<svg width="1608" height="860" viewBox="0 0 1608 860" fill="none" xmlns="http://www.w3.org/2000/svg">
<g clip-path="url(#clip0)">
<path d="M538.48 513.16H453.16C448.278 513.16 444.32 517.118 444.32 522V545.32C444.32 550.202 448.278 554.16 453.16 554.16H538.48C543.362 554.16 547.32 550.202 547.32 545.32V522C547.32 517.118 543.362 513.16 538.48 513.16Z" fill="#D38884"/>
<path d="M950.48 513.16H865.16C860.278 513.16 856.32 517.118 856.32 522V545.32C856.32 550.202 860.278 554.16 865.16 554.16H950.48C955.362 554.16 959.32 550.202 959.32 545.32V522C959.32 517.118 955.362 513.16 950.48 513.16Z" fill="#D38884"/>
<path d="M1053.48 513.16H968.16C963.278 513.16 959.32 517.118 959.32 522V545.32C959.32 550.202 963.278 554.16 968.16 554.16H1053.48C1058.36 554.16 1062.32 550.202 1062.32 545.32V522C1062.32 517.118 1058.36 513.16 1053.48 513.16Z" fill="#D38884"/>
<path opacity="0.1" d="M1053.48 513.16H968.16C963.278 513.16 959.32 517.118 959.32 522V545.32C959.32 550.202 963.278 554.16 968.16 554.16H1053.48C1058.36 554.16 1062.32 550.202 1062.32 545.32V522C1062.32 517.118 1058.36 513.16 1053.48 513.16Z" fill="black"/>
<path d="M968.16 513.16H1053.48C1058.36 513.16 1062.32 509.202 1062.32 504.32V481C1062.32 476.118 1058.36 472.16 1053.48 472.16H968.16C963.278 472.16 959.32 476.118 959.32 481V504.32C959.32 509.202 963.278 513.16 968.16 513.16Z" fill="#D38884"/>
<path d="M865.16 513.16H950.48C955.362 513.16 959.32 509.202 959.32 504.32V481C959.32 476.118 955.362 472.16 950.48 472.16H865.16C860.278 472.16 856.32 476.118 856.32 481V504.32C856.32 509.202 860.278 513.16 865.16 513.16Z" fill="#D38884"/>
<path opacity="0.1" d="M865.16 513.16H950.48C955.362 513.16 959.32 509.202 959.32 504.32V481C959.32 476.118 955.362 472.16 950.48 472.16H865.16C860.278 472.16 856.32 476.118 856.32 481V504.32C856.32 509.202 860.278 513.16 865.16 513.16Z" fill="black"/>
<path d="M453.16 513.16H538.48C543.362 513.16 547.32 509.202 547.32 504.32V481C547.32 476.118 543.362 472.16 538.48 472.16H453.16C448.278 472.16 444.32 476.118 444.32 481V504.32C444.32 509.202 448.278 513.16 453.16 513.16Z" fill="#D38884"/>
<path opacity="0.1" d="M453.16 513.16H538.48C543.362 513.16 547.32 509.202 547.32 504.32V481C547.32 476.118 543.362 472.16 538.48 472.16H453.16C448.278 472.16 444.32 476.118 444.32 481V504.32C444.32 509.202 448.278 513.16 453.16 513.16Z" fill="black"/>
<path d="M538.48 431.16H453.16C448.278 431.16 444.32 435.118 444.32 440V463.32C444.32 468.202 448.278 472.16 453.16 472.16H538.48C543.362 472.16 547.32 468.202 547.32 463.32V440C547.32 435.118 543.362 431.16 538.48 431.16Z" fill="#D38884"/>
<path d="M950.48 431.16H865.16C860.278 431.16 856.32 435.118 856.32 440V463.32C856.32 468.202 860.278 472.16 865.16 472.16H950.48C955.362 472.16 959.32 468.202 959.32 463.32V440C959.32 435.118 955.362 431.16 950.48 431.16Z" fill="#D38884"/>
<path d="M1053.48 431.16H968.16C963.278 431.16 959.32 435.118 959.32 440V463.32C959.32 468.202 963.278 472.16 968.16 472.16H1053.48C1058.36 472.16 1062.32 468.202 1062.32 463.32V440C1062.32 435.118 1058.36 431.16 1053.48 431.16Z" fill="#D38884"/>
<path opacity="0.1" d="M1053.48 431.16H968.16C963.278 431.16 959.32 435.118 959.32 440V463.32C959.32 468.202 963.278 472.16 968.16 472.16H1053.48C1058.36 472.16 1062.32 468.202 1062.32 463.32V440C1062.32 435.118 1058.36 431.16 1053.48 431.16Z" fill="black"/>
<path d="M865.16 431.16H950.48C955.362 431.16 959.32 427.202 959.32 422.32V399C959.32 394.118 955.362 390.16 950.48 390.16H865.16C860.278 390.16 856.32 394.118 856.32 399V422.32C856.32 427.202 860.278 431.16 865.16 431.16Z" fill="#D38884"/>
<path opacity="0.1" d="M865.16 431.16H950.48C955.362 431.16 959.32 427.202 959.32 422.32V399C959.32 394.118 955.362 390.16 950.48 390.16H865.16C860.278 390.16 856.32 394.118 856.32 399V422.32C856.32 427.202 860.278 431.16 865.16 431.16Z" fill="black"/>
<path d="M453.16 431.16H538.48C543.362 431.16 547.32 427.202 547.32 422.32V399C547.32 394.118 543.362 390.16 538.48 390.16H453.16C448.278 390.16 444.32 394.118 444.32 399V422.32C444.32 427.202 448.278 431.16 453.16 431.16Z" fill="#D38884"/>
<path opacity="0.1" d="M453.16 431.16H538.48C543.362 431.16 547.32 427.202 547.32 422.32V399C547.32 394.118 543.362 390.16 538.48 390.16H453.16C448.278 390.16 444.32 394.118 444.32 399V422.32C444.32 427.202 448.278 431.16 453.16 431.16Z" fill="black"/>
<path d="M538.48 351.16H453.16C448.278 351.16 444.32 355.118 444.32 360V383.32C444.32 388.202 448.278 392.16 453.16 392.16H538.48C543.362 392.16 547.32 388.202 547.32 383.32V360C547.32 355.118 543.362 351.16 538.48 351.16Z" fill="#D38884"/>
<path d="M950.48 351.16H865.16C860.278 351.16 856.32 355.118 856.32 360V383.32C856.32 388.202 860.278 392.16 865.16 392.16H950.48C955.362 392.16 959.32 388.202 959.32 383.32V360C959.32 355.118 955.362 351.16 950.48 351.16Z" fill="#D38884"/>
<path d="M865.16 351.16H950.48C955.362 351.16 959.32 347.202 959.32 342.32V319C959.32 314.118 955.362 310.16 950.48 310.16H865.16C860.278 310.16 856.32 314.118 856.32 319V342.32C856.32 347.202 860.278 351.16 865.16 351.16Z" fill="#D38884"/>
<path opacity="0.1" d="M865.16 351.16H950.48C955.362 351.16 959.32 347.202 959.32 342.32V319C959.32 314.118 955.362 310.16 950.48 310.16H865.16C860.278 310.16 856.32 314.118 856.32 319V342.32C856.32 347.202 860.278 351.16 865.16 351.16Z" fill="black"/>
<path d="M762.16 351.16H847.48C852.362 351.16 856.32 347.202 856.32 342.32V319C856.32 314.118 852.362 310.16 847.48 310.16H762.16C757.278 310.16 753.32 314.118 753.32 319V342.32C753.32 347.202 757.278 351.16 762.16 351.16Z" fill="#D38884"/>
<path d="M659.16 351.16H744.48C749.362 351.16 753.32 347.202 753.32 342.32V319C753.32 314.118 749.362 310.16 744.48 310.16H659.16C654.278 310.16 650.32 314.118 650.32 319V342.32C650.32 347.202 654.278 351.16 659.16 351.16Z" fill="#D38884"/>
<path opacity="0.1" d="M659.16 351.16H744.48C749.362 351.16 753.32 347.202 753.32 342.32V319C753.32 314.118 749.362 310.16 744.48 310.16H659.16C654.278 310.16 650.32 314.118 650.32 319V342.32C650.32 347.202 654.278 351.16 659.16 351.16Z" fill="black"/>
<path d="M556.16 351.16H641.48C646.362 351.16 650.32 347.202 650.32 342.32V319C650.32 314.118 646.362 310.16 641.48 310.16H556.16C551.278 310.16 547.32 314.118 547.32 319V342.32C547.32 347.202 551.278 351.16 556.16 351.16Z" fill="#D38884"/>
<path d="M453.16 351.16H538.48C543.362 351.16 547.32 347.202 547.32 342.32V319C547.32 314.118 543.362 310.16 538.48 310.16H453.16C448.278 310.16 444.32 314.118 444.32 319V342.32C444.32 347.202 448.278 351.16 453.16 351.16Z" fill="#D38884"/>
<path opacity="0.1" d="M453.16 351.16H538.48C543.362 351.16 547.32 347.202 547.32 342.32V319C547.32 314.118 543.362 310.16 538.48 310.16H453.16C448.278 310.16 444.32 314.118 444.32 319V342.32C444.32 347.202 448.278 351.16 453.16 351.16Z" fill="black"/>
<path d="M538.48 269.16H453.16C448.278 269.16 444.32 273.118 444.32 278V301.32C444.32 306.202 448.278 310.16 453.16 310.16H538.48C543.362 310.16 547.32 306.202 547.32 301.32V278C547.32 273.118 543.362 269.16 538.48 269.16Z" fill="#D38884"/>
<path d="M641.48 269.16H556.16C551.278 269.16 547.32 273.118 547.32 278V301.32C547.32 306.202 551.278 310.16 556.16 310.16H641.48C646.362 310.16 650.32 306.202 650.32 301.32V278C650.32 273.118 646.362 269.16 641.48 269.16Z" fill="#D38884"/>
<path opacity="0.1" d="M641.48 269.16H556.16C551.278 269.16 547.32 273.118 547.32 278V301.32C547.32 306.202 551.278 310.16 556.16 310.16H641.48C646.362 310.16 650.32 306.202 650.32 301.32V278C650.32 273.118 646.362 269.16 641.48 269.16Z" fill="black"/>
<path d="M744.48 269.16H659.16C654.278 269.16 650.32 273.118 650.32 278V301.32C650.32 306.202 654.278 310.16 659.16 310.16H744.48C749.362 310.16 753.32 306.202 753.32 301.32V278C753.32 273.118 749.362 269.16 744.48 269.16Z" fill="#D38884"/>
<path d="M950.48 269.16H865.16C860.278 269.16 856.32 273.118 856.32 278V301.32C856.32 306.202 860.278 310.16 865.16 310.16H950.48C955.362 310.16 959.32 306.202 959.32 301.32V278C959.32 273.118 955.362 269.16 950.48 269.16Z" fill="#D38884"/>
<path d="M1053.48 132.57H960.16C955.278 132.57 951.32 136.528 951.32 141.41V167.91C951.32 172.793 955.278 176.75 960.16 176.75H1053.48C1058.36 176.75 1062.32 172.793 1062.32 167.91V141.41C1062.32 136.528 1058.36 132.57 1053.48 132.57Z" fill="url(#paint0_linear)"/>
<path d="M964.16 175.16H1049.48C1054.36 175.16 1058.32 171.202 1058.32 166.32V143C1058.32 138.118 1054.36 134.16 1049.48 134.16H964.16C959.278 134.16 955.32 138.118 955.32 143V166.32C955.32 171.202 959.278 175.16 964.16 175.16Z" fill="#D38884"/>
<path d="M865.16 269.16H950.48C955.362 269.16 959.32 265.202 959.32 260.32V237C959.32 232.118 955.362 228.16 950.48 228.16H865.16C860.278 228.16 856.32 232.118 856.32 237V260.32C856.32 265.202 860.278 269.16 865.16 269.16Z" fill="#D38884"/>
<path opacity="0.1" d="M865.16 269.16H950.48C955.362 269.16 959.32 265.202 959.32 260.32V237C959.32 232.118 955.362 228.16 950.48 228.16H865.16C860.278 228.16 856.32 232.118 856.32 237V260.32C856.32 265.202 860.278 269.16 865.16 269.16Z" fill="black"/>
<rect x="547" y="351" width="309" height="198" rx="8" fill="#BE7A77"/>
<path d="M659.16 269.16H744.48C749.362 269.16 753.32 265.202 753.32 260.32V237C753.32 232.118 749.362 228.16 744.48 228.16H659.16C654.278 228.16 650.32 232.118 650.32 237V260.32C650.32 265.202 654.278 269.16 659.16 269.16Z" fill="#D38884"/>
<path opacity="0.1" d="M659.16 269.16H744.48C749.362 269.16 753.32 265.202 753.32 260.32V237C753.32 232.118 749.362 228.16 744.48 228.16H659.16C654.278 228.16 650.32 232.118 650.32 237V260.32C650.32 265.202 654.278 269.16 659.16 269.16Z" fill="black"/>
<path d="M453.16 269.16H538.48C543.362 269.16 547.32 265.202 547.32 260.32V237C547.32 232.118 543.362 228.16 538.48 228.16H453.16C448.278 228.16 444.32 232.118 444.32 237V260.32C444.32 265.202 448.278 269.16 453.16 269.16Z" fill="#D38884"/>
<path opacity="0.1" d="M453.16 269.16H538.48C543.362 269.16 547.32 265.202 547.32 260.32V237C547.32 232.118 543.362 228.16 538.48 228.16H453.16C448.278 228.16 444.32 232.118 444.32 237V260.32C444.32 265.202 448.278 269.16 453.16 269.16Z" fill="black"/>
<path d="M783 754.16C1058.59 754.16 1282 703.344 1282 640.66C1282 577.976 1058.59 527.16 783 527.16C507.41 527.16 284 577.976 284 640.66C284 703.344 507.41 754.16 783 754.16Z" fill="#F5F5F5"/>
<path d="M397.95 589.72C397.95 589.72 406.95 559.31 396.27 536.92C391.743 527.56 390.378 516.983 392.38 506.78C393.368 501.943 394.797 497.206 396.65 492.63" stroke="#535461" stroke-width="2" stroke-miterlimit="10"/>
<path d="M390.03 478.49C390.03 482.22 396.78 493.03 396.78 493.03C396.78 493.03 403.53 482.22 403.53 478.49C403.53 476.7 402.819 474.983 401.553 473.717C400.287 472.451 398.57 471.74 396.78 471.74C394.99 471.74 393.273 472.451 392.007 473.717C390.741 474.983 390.03 476.7 390.03 478.49V478.49Z" fill="#D38884"/>
<path d="M378.87 499.14C380.87 502.27 392.44 507.67 392.44 507.67C392.44 507.67 392.23 494.93 390.2 491.8C389.222 490.308 387.693 489.264 385.948 488.896C384.202 488.528 382.382 488.866 380.885 489.836C379.388 490.806 378.336 492.329 377.958 494.072C377.581 495.816 377.908 497.638 378.87 499.14Z" fill="#D38884"/>
<path d="M379.36 534.42C382.69 536.1 395.36 534.94 395.36 534.94C395.36 534.94 388.75 524.05 385.42 522.37C383.828 521.608 382 521.5 380.329 522.07C378.658 522.64 377.276 523.842 376.481 525.418C375.686 526.995 375.54 528.82 376.074 530.502C376.609 532.185 377.781 533.591 379.34 534.42H379.36Z" fill="#D38884"/>
<path d="M385.74 561.03C388.74 563.25 401.44 564.25 401.44 564.25C401.44 564.25 396.76 552.4 393.77 550.18C392.327 549.231 390.575 548.872 388.874 549.176C387.174 549.48 385.655 550.424 384.63 551.814C383.605 553.205 383.151 554.935 383.364 556.649C383.576 558.364 384.437 559.931 385.77 561.03H385.74Z" fill="#D38884"/>
<path d="M406.61 508.39C403.94 510.99 391.48 513.68 391.48 513.68C391.48 513.68 394.53 501.31 397.2 498.68C397.836 498.062 398.587 497.575 399.41 497.247C400.234 496.92 401.114 496.758 402 496.77C402.887 496.783 403.762 496.97 404.576 497.32C405.39 497.671 406.127 498.179 406.745 498.815C407.363 499.45 407.849 500.201 408.177 501.025C408.505 501.849 408.667 502.729 408.654 503.615C408.642 504.501 408.455 505.376 408.104 506.191C407.753 507.005 407.246 507.742 406.61 508.36V508.39Z" fill="#D38884"/>
<path d="M413.68 539.58C410.35 541.26 397.68 540.1 397.68 540.1C397.68 540.1 404.29 529.21 407.62 527.53C409.207 526.814 411.009 526.739 412.65 527.32C414.291 527.902 415.644 529.095 416.426 530.65C417.209 532.205 417.359 534.003 416.848 535.667C416.336 537.331 415.201 538.733 413.68 539.58V539.58Z" fill="#D38884"/>
<path d="M416.38 570.9C413.38 573.12 400.68 574.12 400.68 574.12C400.68 574.12 405.36 562.27 408.35 560.05C409.794 559.101 411.546 558.742 413.246 559.046C414.947 559.35 416.466 560.294 417.491 561.685C418.516 563.075 418.969 564.805 418.757 566.52C418.545 568.234 417.683 569.802 416.35 570.9H416.38Z" fill="#D38884"/>
<path d="M880.98 417.38C880.98 417.38 913.87 450.27 895.3 499.07C876.73 547.87 927.13 629.07 927.13 629.07C927.13 629.07 926.59 628.99 925.59 628.81C858.04 616.84 824.48 539.58 862.04 482.2C876 460.86 887.47 435.84 880.98 417.38Z" fill="#D38884"/>
<path opacity="0.2" d="M880.98 417.38C880.98 417.38 913.87 450.27 895.3 499.07C876.73 547.87 927.13 629.07 927.13 629.07C927.13 629.07 926.59 628.99 925.59 628.81C858.04 616.84 824.48 539.58 862.04 482.2C876 460.86 887.47 435.84 880.98 417.38Z" fill="black"/>
<path d="M880.98 417.38C880.98 417.38 899.55 457.69 880.98 490.58C862.41 523.47 877.8 615.76 927.16 629.02" stroke="#535461" stroke-miterlimit="10"/>
<path d="M822.41 550.39C822.41 550.39 859.94 544.39 863.36 578.05C866.78 611.71 935.52 616.34 935.52 616.34L934.23 617.2C877.47 654.46 823.23 640.93 831.39 591.46C834.43 573.07 834.16 554.58 822.41 550.39Z" fill="#D38884"/>
<path opacity="0.2" d="M822.41 550.39C822.41 550.39 859.94 544.39 863.36 578.05C866.78 611.71 935.52 616.34 935.52 616.34L934.23 617.2C877.47 654.46 823.23 640.93 831.39 591.46C834.43 573.07 834.16 554.58 822.41 550.39Z" fill="#F5F5F5"/>
<path d="M822.41 550.39C822.41 550.39 851.54 556.78 849.15 583.27C846.76 609.76 892.41 641.51 935.52 616.34" stroke="#535461" stroke-miterlimit="10"/>
<path d="M1107.93 627.81C1107.93 627.81 1052.23 616.67 1037.37 601.81C1022.51 586.95 955.67 560.96 948.24 579.53C940.81 598.1 847.98 661.24 911.16 672.38C974.34 683.52 1059.7 687.23 1078.27 679.81C1096.84 672.39 1107.93 627.81 1107.93 627.81Z" fill="#A8A8A8"/>
<path opacity="0.2" d="M911.16 665.48C974.29 676.62 1059.7 680.33 1078.27 672.91C1092.41 667.25 1102.27 640.08 1106.12 627.43L1107.98 627.82C1107.98 627.82 1096.84 672.38 1078.27 679.82C1059.7 687.26 974.27 683.53 911.16 672.39C892.94 669.17 887.73 661.62 889.69 652.06C891.16 658.29 897.55 663.08 911.16 665.48Z" fill="black"/>
<path d="M1220.63 133.17C1219.64 130.696 1218.05 128.503 1216.02 126.78C1201.07 113.16 1176.9 117.29 1158.34 108.96C1154.06 107.04 1149.68 104.38 1145.04 105.11C1138.56 106.11 1132.53 113.51 1126.88 110.23L1127.28 111.46L1126.88 111.25L1131.04 123.91C1132.64 128.77 1134.32 133.77 1137.42 137.82C1132.83 141.822 1129.32 146.912 1127.2 152.623C1125.09 158.334 1124.44 164.484 1125.32 170.511C1126.19 176.538 1128.57 182.248 1132.22 187.12C1135.87 191.993 1140.69 195.871 1146.23 198.4C1146.43 198.82 1146.62 199.25 1146.81 199.68L1147.34 199.9C1148.57 202.732 1149.49 205.689 1150.08 208.72C1145.27 209.39 1136.88 214.72 1128.64 222.56L1112.16 222.01C1101.5 221.654 1091.19 218.146 1082.52 211.93L1033.16 176.48C1029.64 176.826 1026.33 178.291 1023.71 180.66C1017.59 174.28 1012.39 167.66 1012.83 163.66C1012.83 163.66 989.89 120.73 981.55 142.19C973.21 163.65 997.19 186.19 997.19 186.19L1012.4 205.9C1011.8 209.356 1011.42 212.846 1011.26 216.35C1030.03 237.82 1095.71 257.24 1095.71 257.24L1105.95 257.74L1106.01 258.24C1105.38 260.927 1105.07 263.68 1105.09 266.44C1105.09 266.84 1105.09 267.25 1105.09 267.67C1105.09 268.09 1105.09 268.22 1105.09 268.49C1105.61 302.73 1110.3 407.49 1110.3 407.49C1111.21 407.08 1112.16 406.71 1113.12 406.36L1112.39 415.67C1112.39 415.67 1068.6 421.8 1036.28 434.07C1003.96 446.34 1002.92 460.65 1002.92 460.65V586.91C993.69 591.65 979.12 597.91 971.64 594.54C963.52 590.92 959.07 593.96 958.26 597.13C958.106 597.757 958.106 598.413 958.26 599.04C958.329 599.322 958.433 599.594 958.57 599.85V599.91C958.719 600.174 958.904 600.417 959.12 600.63C962.25 603.7 1030.02 630.27 1045.66 626.18C1046.14 626.053 1046.62 625.893 1047.08 625.7C1047.23 625.64 1047.36 625.56 1047.51 625.49C1047.66 625.42 1048.09 625.22 1048.36 625.06C1048.63 624.9 1048.67 624.85 1048.82 624.75C1048.97 624.65 1049.29 624.44 1049.51 624.27C1049.73 624.1 1049.8 624.01 1049.94 623.88C1050.08 623.75 1050.35 623.53 1050.53 623.33C1050.71 623.13 1050.79 623.03 1050.92 622.88C1051.05 622.73 1051.28 622.48 1051.44 622.26C1051.6 622.04 1051.66 621.93 1051.78 621.77C1051.9 621.61 1052.1 621.31 1052.24 621.07C1052.38 620.83 1052.43 620.73 1052.52 620.55C1052.61 620.37 1052.8 620.04 1052.93 619.77C1053.06 619.5 1053.09 619.42 1053.16 619.24C1053.23 619.06 1053.41 618.67 1053.52 618.38C1053.63 618.09 1053.64 618.03 1053.71 617.85C1053.78 617.67 1053.93 617.22 1054.02 616.85C1054.02 616.68 1054.11 616.51 1054.16 616.34C1054.25 615.99 1054.35 615.65 1054.43 615.34C1054.43 615.18 1054.5 615.02 1054.53 614.86C1054.61 614.48 1054.69 614.1 1054.75 613.72C1054.75 613.58 1054.75 613.43 1054.82 613.29C1054.89 612.88 1054.95 612.46 1055 612.05V611.69C1055.05 611.24 1055.1 610.79 1055.14 610.34V610.06C1055.18 609.573 1055.21 609.087 1055.23 608.6V608.4C1055.23 607.88 1055.23 607.36 1055.23 606.84V606.74C1055.21 600.643 1054.54 594.565 1053.23 588.61V588.61L1057.16 481.08C1077.64 481.398 1098.12 480.644 1118.52 478.82L1120.76 530.14C1120.76 530.14 1120.76 563.87 1132.23 579.2C1142.05 592.32 1153.39 650.35 1156.45 666.82C1152.24 674.82 1144.18 684.82 1130.14 684.48C1130.14 684.48 1103.73 682.2 1105.22 689.48C1105.26 689.671 1105.32 689.858 1105.39 690.04V690.04C1105.47 690.249 1105.57 690.453 1105.68 690.65V690.65C1105.79 690.84 1105.91 691.03 1106.05 691.23L1106.13 691.35C1106.28 691.56 1106.45 691.78 1106.64 692.01V692.06C1106.82 692.27 1107.01 692.48 1107.22 692.69L1107.4 692.87C1107.64 693.11 1107.88 693.35 1108.16 693.6C1121.71 705.87 1200.95 707.91 1200.95 707.91V707.63C1200.95 707.55 1200.95 707.45 1200.95 707.34C1200.95 703.79 1200.43 685.17 1195.69 671.15H1196.79C1196.79 671.15 1185.32 567.91 1175.94 555.65C1175.94 555.65 1173.45 501.21 1179.07 467.1L1180.07 466.72C1206.35 456.9 1208.22 432.72 1205.51 414.96C1210.51 416.56 1213.43 417.65 1213.43 417.65C1213.43 417.65 1213.34 416.88 1213.17 415.51L1213.43 415.61C1213.43 415.61 1212.93 412.36 1212.1 407.3C1210.22 393.37 1206.58 369.03 1202.7 357.54C1202.07 355.01 1201.47 352.85 1200.92 351.22C1198.68 344.315 1197.14 337.203 1196.33 329.99C1195.27 320.641 1194.73 311.239 1194.72 301.83C1194.81 289.258 1195.77 276.708 1197.6 264.27C1199.19 253.41 1200.6 241.05 1200.5 232.42C1200.61 229.406 1200.4 226.389 1199.87 223.42C1198.48 217.05 1192.33 212.91 1185.94 210.27C1185.53 210.1 1185.11 209.96 1184.69 209.8C1184.85 207.39 1185.05 204.65 1185.31 201.8C1186.08 202.331 1186.94 202.7 1187.85 202.886C1188.77 203.071 1189.71 203.069 1190.62 202.88C1193.37 202.28 1195.34 199.99 1197.09 197.88C1206.33 186.53 1215.82 174.7 1219.37 160.6C1220.8 154.303 1221.48 147.857 1221.37 141.4C1221.37 141.047 1221.37 140.693 1221.37 140.34C1221.54 137.925 1221.29 135.499 1220.63 133.17V133.17Z" fill="url(#paint1_linear)"/>
<path d="M1136.5 188.5C1136.5 188.5 1150.5 209.5 1147.5 219.5C1144.5 229.5 1180.5 223.5 1180.5 223.5C1180.5 223.5 1181.5 184.5 1188.5 175.5C1195.5 166.5 1136.5 188.5 1136.5 188.5Z" fill="#F7C4A7"/>
<path d="M1044 202C1044 202 1015 178 1016 169C1016 169 994 127 986 148C978 169 1001 191 1001 191L1029 228L1044 202Z" fill="#F7C4A7"/>
<path d="M1014.5 578.5C1014.5 578.5 987.5 595.5 976.5 590.5C965.5 585.5 961.5 593.5 964.5 596.5C967.5 599.5 1032.5 625.5 1047.5 621.5C1062.5 617.5 1054.87 584.74 1054.87 584.74L1014.5 578.5Z" fill="#535461"/>
<path d="M1157.5 651.5C1157.5 651.5 1151 679 1128.5 678.5C1128.5 678.5 1094.5 675.5 1107.5 687.5C1120.5 699.5 1196.5 701.5 1196.5 701.5C1196.5 701.5 1196.5 660.5 1182.5 651.5C1168.5 642.5 1157.5 651.5 1157.5 651.5Z" fill="#535461"/>
<path d="M1116.5 457.5L1119.5 527.5C1119.5 527.5 1119.5 560.5 1130.5 575.5C1141.5 590.5 1154.5 665.5 1154.5 665.5H1192.5C1192.5 665.5 1181.5 564.5 1172.5 552.5C1172.5 552.5 1168.5 463.5 1182.5 443.5L1116.5 457.5Z" fill="#575988"/>
<path opacity="0.1" d="M1116.5 457.5L1119.5 527.5C1119.5 527.5 1119.5 560.5 1130.5 575.5C1141.5 590.5 1154.5 665.5 1154.5 665.5H1192.5C1192.5 665.5 1181.5 564.5 1172.5 552.5C1172.5 552.5 1168.5 463.5 1182.5 443.5L1116.5 457.5Z" fill="black"/>
<path d="M1195.5 394.5C1195.5 394.5 1218.5 449.5 1176.5 465.5C1134.5 481.5 1058.5 479.5 1058.5 479.5L1054.5 595.5C1054.5 595.5 1007.5 601.5 1006.5 586.5V459.5C1006.5 459.5 1007.5 445.5 1038.5 433.5C1069.5 421.5 1111.5 415.5 1111.5 415.5L1113.5 389.5L1195.5 394.5Z" fill="#575988"/>
<path opacity="0.1" d="M1158.65 213.31C1166.64 212.426 1174.72 213.568 1182.15 216.63C1188.28 219.21 1194.15 223.26 1195.51 229.49C1197.09 236.87 1195.34 253.42 1193.33 267.43C1190.11 289.385 1189.7 311.661 1192.11 333.72C1193.11 342.91 1194.56 350.92 1196.51 354.49C1202.51 365.49 1208.51 417.49 1208.51 417.49C1208.51 417.49 1142.51 392.49 1109.51 407.49C1109.51 407.49 1105.01 304.99 1104.51 271.49C1104.12 245.55 1137.01 215.99 1148.01 214.99C1154.45 214.41 1152.24 213.98 1158.65 213.31Z" fill="black"/>
<path d="M1158.65 211.31C1166.64 210.426 1174.72 211.568 1182.15 214.63C1188.28 217.21 1194.15 221.26 1195.51 227.49C1197.09 234.87 1195.34 251.42 1193.33 265.43C1190.11 287.385 1189.7 309.661 1192.11 331.72C1192.89 338.772 1194.36 345.729 1196.51 352.49C1201.01 365.99 1208.51 415.49 1208.51 415.49C1208.51 415.49 1142.51 390.49 1109.51 405.49C1109.51 405.49 1105.01 302.99 1104.51 269.49C1104.12 243.55 1137.01 213.99 1148.01 212.99C1154.45 212.41 1152.24 211.98 1158.65 211.31Z" fill="#84ADD3"/>
<path opacity="0.1" d="M1176.5 266.5L1105.5 262.5C1105.5 262.5 1100.98 227.69 1111.23 228.05L1181.5 230.5C1181.5 230.5 1196.5 248.5 1176.5 266.5Z" fill="black"/>
<path d="M1176.5 264.5L1095.5 260.5C1095.5 260.5 1032.5 241.5 1014.5 220.5C1014.5 220.5 1015.5 183.5 1035.5 181.5L1082.81 216.19C1091.08 222.255 1100.98 225.691 1111.23 226.05L1181.5 228.5C1181.5 228.5 1196.5 246.5 1176.5 264.5Z" fill="#84ADD3"/>
<path opacity="0.1" d="M1180 193C1181.19 183.52 1185.49 180.37 1188.5 176.5C1195.5 167.5 1136.5 189.5 1136.5 189.5C1139.55 194.184 1142.23 199.103 1144.5 204.21C1149.2 206.377 1154.32 207.499 1159.5 207.5C1168.16 207.5 1173.78 198.13 1180 193Z" fill="black"/>
<path d="M1159.5 206.5C1179.38 206.5 1195.5 190.382 1195.5 170.5C1195.5 150.618 1179.38 134.5 1159.5 134.5C1139.62 134.5 1123.5 150.618 1123.5 170.5C1123.5 190.382 1139.62 206.5 1159.5 206.5Z" fill="#F7C4A7"/>
<path opacity="0.1" d="M1136.77 145.27C1132.94 141.08 1131.09 135.5 1129.35 130.09L1125.35 117.7C1130.77 120.9 1136.55 113.7 1142.77 112.7C1147.22 111.99 1151.43 114.59 1155.53 116.46C1173.33 124.6 1196.53 120.56 1210.85 133.89C1212.81 135.585 1214.32 137.73 1215.27 140.14C1215.93 142.411 1216.2 144.778 1216.07 147.14C1216.19 153.452 1215.56 159.755 1214.2 165.92C1210.8 179.71 1201.7 191.29 1192.83 202.39C1191.15 204.5 1189.26 206.74 1186.62 207.33C1181.47 208.48 1177.49 202.92 1175.5 198.04C1172.86 191.573 1170.92 184.846 1169.7 177.97C1169.18 175.06 1168.77 172.06 1167.32 169.49C1164.22 164 1156.58 158.8 1151.94 154.54C1147.3 150.28 1141.03 149.92 1136.77 145.27Z" fill="black"/>
<path d="M1136.77 144.27C1132.94 140.08 1131.09 134.5 1129.35 129.09L1125.35 116.7C1130.77 119.9 1136.55 112.7 1142.77 111.7C1147.22 110.99 1151.43 113.59 1155.53 115.46C1173.33 123.6 1196.53 119.56 1210.85 132.89C1212.81 134.585 1214.32 136.73 1215.27 139.14C1215.93 141.411 1216.2 143.778 1216.07 146.14C1216.19 152.452 1215.56 158.755 1214.2 164.92C1210.8 178.71 1201.7 190.29 1192.83 201.39C1191.15 203.5 1189.26 205.74 1186.62 206.33C1181.47 207.48 1177.49 201.92 1175.5 197.04C1172.86 190.573 1170.92 183.846 1169.7 176.97C1169.18 174.06 1168.77 171.06 1167.32 168.49C1164.22 163 1156.58 157.8 1151.94 153.54C1147.3 149.28 1141.03 148.92 1136.77 144.27Z" fill="#601916"/>
<path d="M1169 181C1170.66 181 1172 178.09 1172 174.5C1172 170.91 1170.66 168 1169 168C1167.34 168 1166 170.91 1166 174.5C1166 178.09 1167.34 181 1169 181Z" fill="#F7C4A7"/>
<path opacity="0.1" d="M1187 348C1187 348 1185 354 1175 353C1165 352 1136 350 1136 353" fill="black"/>
<path opacity="0.5" d="M1107.5 686.5C1105.7 684.84 1104.8 683.5 1104.59 682.33C1104.33 683.63 1105.13 685.33 1107.5 687.5C1120.5 699.5 1196.5 701.5 1196.5 701.5C1196.5 701.5 1196.5 701.15 1196.5 700.5C1196.01 700.49 1120.46 698.46 1107.5 686.5Z" fill="white"/>
<path opacity="0.5" d="M1047.5 619.5C1032.5 623.5 967.5 597.5 964.5 594.5C964.1 594.094 963.814 593.591 963.67 593.04C963.497 593.639 963.482 594.273 963.628 594.88C963.773 595.486 964.074 596.045 964.5 596.5C967.5 599.5 1032.5 625.5 1047.5 621.5C1055.22 619.44 1056.94 609.77 1056.8 600.86C1056.65 609.16 1054.64 617.58 1047.5 619.5Z" fill="white"/>
<path d="M786.09 608.74C786.488 608.74 786.869 608.582 787.151 608.3C787.432 608.019 787.59 607.638 787.59 607.24C787.59 606.842 787.432 606.46 787.151 606.179C786.869 605.898 786.488 605.74 786.09 605.74C785.692 605.74 785.31 605.898 785.029 606.179C784.748 606.46 784.59 606.842 784.59 607.24C784.59 607.638 784.748 608.019 785.029 608.3C785.31 608.582 785.692 608.74 786.09 608.74V608.74Z" fill="#67647E"/>
<path d="M375.49 582.21C375.49 582.21 412.81 581.06 424.05 573.05C435.29 565.04 481.45 555.48 484.24 568.32C487.03 581.16 540.33 632.2 498.16 632.58C455.99 632.96 400.27 626.02 389.04 619.18C377.81 612.34 375.49 582.21 375.49 582.21Z" fill="#A8A8A8"/>
<path opacity="0.2" d="M498.95 628.07C456.82 628.41 401.06 621.51 389.83 614.67C381.28 609.46 377.83 590.78 376.74 582.16H375.49C375.49 582.16 377.85 612.26 389.08 619.09C400.31 625.92 456.07 632.88 498.16 632.58C510.32 632.48 514.52 628.16 514.29 621.75C512.64 625.58 508 628 498.95 628.07Z" fill="black"/>
<path d="M1230.16 678.16H1315.48C1320.36 678.16 1324.32 674.202 1324.32 669.32V646C1324.32 641.118 1320.36 637.16 1315.48 637.16H1230.16C1225.28 637.16 1221.32 641.118 1221.32 646V669.32C1221.32 674.202 1225.28 678.16 1230.16 678.16Z" fill="#D38884"/>
<path opacity="0.1" d="M1230.16 678.16H1315.48C1320.36 678.16 1324.32 674.202 1324.32 669.32V646C1324.32 641.118 1320.36 637.16 1315.48 637.16H1230.16C1225.28 637.16 1221.32 641.118 1221.32 646V669.32C1221.32 674.202 1225.28 678.16 1230.16 678.16Z" fill="black"/>
<path d="M1315.48 598.16H1230.16C1225.28 598.16 1221.32 602.118 1221.32 607V630.32C1221.32 635.202 1225.28 639.16 1230.16 639.16H1315.48C1320.36 639.16 1324.32 635.202 1324.32 630.32V607C1324.32 602.118 1320.36 598.16 1315.48 598.16Z" fill="#D38884"/>
<path d="M1230.16 598.16H1315.48C1320.36 598.16 1324.32 594.202 1324.32 589.32V566C1324.32 561.118 1320.36 557.16 1315.48 557.16H1230.16C1225.28 557.16 1221.32 561.118 1221.32 566V589.32C1221.32 594.202 1225.28 598.16 1230.16 598.16Z" fill="#D38884"/>
<path opacity="0.1" d="M1230.16 598.16H1315.48C1320.36 598.16 1324.32 594.202 1324.32 589.32V566C1324.32 561.118 1320.36 557.16 1315.48 557.16H1230.16C1225.28 557.16 1221.32 561.118 1221.32 566V589.32C1221.32 594.202 1225.28 598.16 1230.16 598.16Z" fill="black"/>
<path d="M1315.48 516.16H1230.16C1225.28 516.16 1221.32 520.118 1221.32 525V548.32C1221.32 553.202 1225.28 557.16 1230.16 557.16H1315.48C1320.36 557.16 1324.32 553.202 1324.32 548.32V525C1324.32 520.118 1320.36 516.16 1315.48 516.16Z" fill="#D38884"/>
<g filter="url(#filter0_d)">
<path d="M712.317 430L701.751 448.3L691.186 430H656L701.751 509.244L747.503 430H712.317Z" fill="#41B883"/>
<path d="M712.317 429.999L701.752 448.3L691.186 429.999H674.301L701.752 477.545L729.202 429.999H712.317Z" fill="#34495E"/>
</g>
<path d="M644.135 400.135C643.906 402.09 643.183 403.601 641.964 404.667C640.754 405.725 639.141 406.254 637.127 406.254C634.943 406.254 633.191 405.471 631.871 403.905C630.559 402.34 629.903 400.245 629.903 397.621V395.844C629.903 394.126 630.208 392.615 630.817 391.312C631.435 390.008 632.307 389.009 633.433 388.315C634.558 387.613 635.862 387.262 637.343 387.262C639.306 387.262 640.881 387.812 642.065 388.912C643.25 390.004 643.94 391.519 644.135 393.457H641.685C641.473 391.984 641.012 390.918 640.301 390.258C639.598 389.598 638.612 389.268 637.343 389.268C635.785 389.268 634.562 389.843 633.674 390.994C632.794 392.145 632.354 393.783 632.354 395.907V397.697C632.354 399.703 632.772 401.299 633.61 402.483C634.448 403.668 635.62 404.261 637.127 404.261C638.481 404.261 639.518 403.956 640.237 403.347C640.965 402.729 641.448 401.658 641.685 400.135H644.135ZM646.483 399.005C646.483 397.659 646.746 396.449 647.271 395.374C647.804 394.299 648.54 393.47 649.479 392.886C650.427 392.302 651.507 392.01 652.717 392.01C654.587 392.01 656.098 392.657 657.249 393.952C658.409 395.247 658.988 396.969 658.988 399.119V399.284C658.988 400.621 658.73 401.823 658.214 402.89C657.706 403.948 656.974 404.773 656.018 405.365C655.07 405.958 653.978 406.254 652.742 406.254C650.88 406.254 649.369 405.606 648.21 404.312C647.059 403.017 646.483 401.303 646.483 399.17V399.005ZM648.845 399.284C648.845 400.808 649.196 402.031 649.898 402.953C650.609 403.876 651.557 404.337 652.742 404.337C653.936 404.337 654.883 403.871 655.586 402.94C656.288 402.001 656.64 400.689 656.64 399.005C656.64 397.498 656.28 396.28 655.561 395.349C654.85 394.409 653.902 393.939 652.717 393.939C651.557 393.939 650.622 394.401 649.911 395.323C649.2 396.246 648.845 397.566 648.845 399.284ZM668.573 394.371C668.218 394.312 667.833 394.282 667.418 394.282C665.878 394.282 664.832 394.938 664.282 396.25V406H661.934V392.264H664.219L664.257 393.851C665.027 392.623 666.119 392.01 667.532 392.01C667.989 392.01 668.336 392.069 668.573 392.188V394.371ZM676.19 406.254C674.328 406.254 672.813 405.645 671.646 404.426C670.478 403.199 669.894 401.561 669.894 399.513V399.081C669.894 397.718 670.152 396.504 670.668 395.438C671.193 394.363 671.921 393.525 672.852 392.924C673.791 392.314 674.807 392.01 675.898 392.01C677.684 392.01 679.072 392.598 680.062 393.774C681.053 394.951 681.548 396.635 681.548 398.827V399.805H672.242C672.276 401.159 672.67 402.255 673.423 403.093C674.185 403.922 675.149 404.337 676.317 404.337C677.147 404.337 677.849 404.168 678.425 403.829C679 403.491 679.504 403.042 679.936 402.483L681.37 403.601C680.219 405.369 678.493 406.254 676.19 406.254ZM675.898 393.939C674.951 393.939 674.155 394.286 673.512 394.98C672.868 395.666 672.471 396.631 672.318 397.875H679.199V397.697C679.132 396.504 678.81 395.581 678.234 394.93C677.659 394.27 676.88 393.939 675.898 393.939ZM694.243 387.516L700.286 402.598L706.329 387.516H709.49V406H707.053V398.802L707.281 391.032L701.213 406H699.347L693.291 391.07L693.532 398.802V406H691.095V387.516H694.243ZM712.804 399.005C712.804 397.659 713.066 396.449 713.591 395.374C714.124 394.299 714.86 393.47 715.8 392.886C716.748 392.302 717.827 392.01 719.037 392.01C720.908 392.01 722.418 392.657 723.569 393.952C724.729 395.247 725.309 396.969 725.309 399.119V399.284C725.309 400.621 725.05 401.823 724.534 402.89C724.026 403.948 723.294 404.773 722.338 405.365C721.39 405.958 720.298 406.254 719.062 406.254C717.201 406.254 715.69 405.606 714.53 404.312C713.379 403.017 712.804 401.303 712.804 399.17V399.005ZM715.165 399.284C715.165 400.808 715.516 402.031 716.219 402.953C716.93 403.876 717.878 404.337 719.062 404.337C720.256 404.337 721.204 403.871 721.906 402.94C722.609 402.001 722.96 400.689 722.96 399.005C722.96 397.498 722.6 396.28 721.881 395.349C721.17 394.409 720.222 393.939 719.037 393.939C717.878 393.939 716.942 394.401 716.231 395.323C715.521 396.246 715.165 397.566 715.165 399.284ZM727.683 399.018C727.683 396.91 728.182 395.217 729.181 393.939C730.179 392.653 731.487 392.01 733.104 392.01C734.712 392.01 735.985 392.56 736.925 393.66V386.5H739.273V406H737.115L737.001 404.527C736.062 405.678 734.754 406.254 733.078 406.254C731.487 406.254 730.188 405.602 729.181 404.299C728.182 402.995 727.683 401.294 727.683 399.195V399.018ZM730.031 399.284C730.031 400.841 730.353 402.06 730.996 402.94C731.639 403.821 732.528 404.261 733.662 404.261C735.152 404.261 736.239 403.592 736.925 402.255V395.945C736.222 394.65 735.143 394.003 733.688 394.003C732.536 394.003 731.639 394.447 730.996 395.336C730.353 396.225 730.031 397.541 730.031 399.284ZM751.41 404.642C750.496 405.716 749.155 406.254 747.386 406.254C745.922 406.254 744.804 405.831 744.034 404.984C743.272 404.13 742.887 402.868 742.879 401.201V392.264H745.228V401.138C745.228 403.22 746.074 404.261 747.767 404.261C749.561 404.261 750.754 403.592 751.347 402.255V392.264H753.695V406H751.461L751.41 404.642ZM759.827 406H757.479V386.5H759.827V406ZM769.298 406.254C767.436 406.254 765.921 405.645 764.753 404.426C763.585 403.199 763.001 401.561 763.001 399.513V399.081C763.001 397.718 763.259 396.504 763.775 395.438C764.3 394.363 765.028 393.525 765.959 392.924C766.898 392.314 767.914 392.01 769.006 392.01C770.792 392.01 772.18 392.598 773.17 393.774C774.16 394.951 774.655 396.635 774.655 398.827V399.805H765.35C765.383 401.159 765.777 402.255 766.53 403.093C767.292 403.922 768.257 404.337 769.425 404.337C770.254 404.337 770.957 404.168 771.532 403.829C772.108 403.491 772.611 403.042 773.043 402.483L774.478 403.601C773.326 405.369 771.6 406.254 769.298 406.254ZM769.006 393.939C768.058 393.939 767.262 394.286 766.619 394.98C765.976 395.666 765.578 396.631 765.426 397.875H772.307V397.697C772.239 396.504 771.917 395.581 771.342 394.93C770.766 394.27 769.988 393.939 769.006 393.939Z" fill="white"/>
<rect x="444" y="391" width="103" height="163" rx="6" fill="#D38884"/>
<rect x="650" y="228" width="103" height="123" rx="6" fill="#D38884"/>
<rect x="444" y="228" width="103" height="163" rx="6" fill="#BE7A77"/>
</g>
<g filter="url(#filter1_d)">
<path d="M498.651 457L495.152 463.06L491.653 457H480L495.152 483.244L510.304 457H498.651Z" fill="#41B883"/>
<path d="M498.652 457L495.152 463.061L491.653 457H486.061L495.152 472.746L504.244 457H498.652Z" fill="#34495E"/>
</g>
<path d="M469.304 433.336L472.79 442.037L476.276 433.336H478.1V444H476.694V439.847L476.826 435.365L473.325 444H472.248L468.754 435.387L468.894 439.847V444H467.487V433.336H469.304ZM480.012 439.964C480.012 439.188 480.163 438.49 480.466 437.87C480.773 437.25 481.198 436.771 481.74 436.434C482.287 436.097 482.91 435.929 483.608 435.929C484.687 435.929 485.559 436.302 486.223 437.049C486.892 437.796 487.226 438.79 487.226 440.03V440.125C487.226 440.897 487.077 441.59 486.779 442.206C486.486 442.816 486.064 443.292 485.512 443.634C484.965 443.976 484.335 444.146 483.623 444.146C482.548 444.146 481.677 443.773 481.008 443.026C480.344 442.279 480.012 441.29 480.012 440.06V439.964ZM481.374 440.125C481.374 441.004 481.577 441.71 481.982 442.242C482.392 442.774 482.939 443.041 483.623 443.041C484.311 443.041 484.858 442.772 485.263 442.235C485.668 441.693 485.871 440.936 485.871 439.964C485.871 439.095 485.664 438.392 485.249 437.855C484.838 437.313 484.292 437.042 483.608 437.042C482.939 437.042 482.399 437.308 481.989 437.84C481.579 438.373 481.374 439.134 481.374 440.125ZM488.596 439.972C488.596 438.756 488.884 437.779 489.46 437.042C490.036 436.3 490.791 435.929 491.723 435.929C492.651 435.929 493.386 436.246 493.928 436.881V432.75H495.283V444H494.038L493.972 443.15C493.43 443.814 492.675 444.146 491.708 444.146C490.791 444.146 490.041 443.771 489.46 443.019C488.884 442.267 488.596 441.285 488.596 440.074V439.972ZM489.951 440.125C489.951 441.024 490.136 441.727 490.507 442.235C490.878 442.743 491.391 442.997 492.045 442.997C492.905 442.997 493.532 442.611 493.928 441.839V438.199C493.522 437.452 492.9 437.079 492.06 437.079C491.396 437.079 490.878 437.335 490.507 437.848C490.136 438.36 489.951 439.12 489.951 440.125ZM502.285 443.216C501.757 443.836 500.983 444.146 499.963 444.146C499.118 444.146 498.474 443.902 498.029 443.414C497.59 442.921 497.368 442.193 497.363 441.231V436.075H498.718V441.195C498.718 442.396 499.206 442.997 500.183 442.997C501.218 442.997 501.906 442.611 502.248 441.839V436.075H503.603V444H502.314L502.285 443.216ZM507.141 444H505.786V432.75H507.141V444ZM512.604 444.146C511.53 444.146 510.656 443.795 509.982 443.092C509.309 442.384 508.972 441.439 508.972 440.257V440.008C508.972 439.222 509.121 438.521 509.418 437.906C509.721 437.286 510.141 436.803 510.678 436.456C511.22 436.104 511.806 435.929 512.436 435.929C513.466 435.929 514.267 436.268 514.838 436.947C515.41 437.625 515.695 438.597 515.695 439.862V440.426H510.327C510.346 441.207 510.573 441.839 511.008 442.323C511.447 442.801 512.004 443.041 512.678 443.041C513.156 443.041 513.562 442.943 513.894 442.748C514.226 442.552 514.516 442.293 514.765 441.971L515.593 442.616C514.929 443.636 513.933 444.146 512.604 444.146ZM512.436 437.042C511.889 437.042 511.43 437.242 511.059 437.643C510.688 438.038 510.458 438.595 510.371 439.312H514.34V439.21C514.301 438.521 514.116 437.989 513.784 437.613C513.452 437.232 513.002 437.042 512.436 437.042ZM527.092 441.217H522.624L521.621 444H520.17L524.243 433.336H525.473L529.553 444H528.11L527.092 441.217ZM523.049 440.06H526.674L524.858 435.072L523.049 440.06Z" fill="white"/>
<g filter="url(#filter2_d)">
<path d="M495.651 304L492.152 310.06L488.653 304H477L492.152 330.244L507.304 304H495.651Z" fill="#41B883"/>
<path d="M495.652 304L492.152 310.061L488.653 304H483.061L492.152 319.746L501.244 304H495.652Z" fill="#34495E"/>
</g>
<path d="M466.523 280.336L470.01 289.037L473.496 280.336H475.32V291H473.914V286.847L474.045 282.365L470.544 291H469.468L465.974 282.387L466.113 286.847V291H464.707V280.336H466.523ZM477.231 286.964C477.231 286.188 477.383 285.49 477.686 284.87C477.993 284.25 478.418 283.771 478.96 283.434C479.507 283.097 480.129 282.929 480.828 282.929C481.907 282.929 482.778 283.302 483.442 284.049C484.111 284.796 484.446 285.79 484.446 287.03V287.125C484.446 287.897 484.297 288.59 483.999 289.206C483.706 289.816 483.284 290.292 482.732 290.634C482.185 290.976 481.555 291.146 480.842 291.146C479.768 291.146 478.896 290.773 478.228 290.026C477.563 289.279 477.231 288.29 477.231 287.06V286.964ZM478.594 287.125C478.594 288.004 478.796 288.71 479.202 289.242C479.612 289.774 480.159 290.041 480.842 290.041C481.531 290.041 482.078 289.772 482.483 289.235C482.888 288.693 483.091 287.936 483.091 286.964C483.091 286.095 482.883 285.392 482.468 284.855C482.058 284.313 481.511 284.042 480.828 284.042C480.159 284.042 479.619 284.308 479.209 284.84C478.799 285.373 478.594 286.134 478.594 287.125ZM485.815 286.972C485.815 285.756 486.104 284.779 486.68 284.042C487.256 283.3 488.01 282.929 488.943 282.929C489.871 282.929 490.605 283.246 491.147 283.881V279.75H492.502V291H491.257L491.191 290.15C490.649 290.814 489.895 291.146 488.928 291.146C488.01 291.146 487.261 290.771 486.68 290.019C486.104 289.267 485.815 288.285 485.815 287.074V286.972ZM487.17 287.125C487.17 288.024 487.356 288.727 487.727 289.235C488.098 289.743 488.611 289.997 489.265 289.997C490.125 289.997 490.752 289.611 491.147 288.839V285.199C490.742 284.452 490.12 284.079 489.28 284.079C488.616 284.079 488.098 284.335 487.727 284.848C487.356 285.36 487.17 286.12 487.17 287.125ZM499.504 290.216C498.977 290.836 498.203 291.146 497.183 291.146C496.338 291.146 495.693 290.902 495.249 290.414C494.81 289.921 494.587 289.193 494.583 288.231V283.075H495.938V288.195C495.938 289.396 496.426 289.997 497.402 289.997C498.438 289.997 499.126 289.611 499.468 288.839V283.075H500.823V291H499.534L499.504 290.216ZM504.36 291H503.005V279.75H504.36V291ZM509.824 291.146C508.75 291.146 507.876 290.795 507.202 290.092C506.528 289.384 506.191 288.439 506.191 287.257V287.008C506.191 286.222 506.34 285.521 506.638 284.906C506.941 284.286 507.361 283.803 507.898 283.456C508.44 283.104 509.026 282.929 509.656 282.929C510.686 282.929 511.487 283.268 512.058 283.947C512.629 284.625 512.915 285.597 512.915 286.862V287.426H507.546C507.566 288.207 507.793 288.839 508.228 289.323C508.667 289.801 509.224 290.041 509.897 290.041C510.376 290.041 510.781 289.943 511.113 289.748C511.445 289.552 511.736 289.293 511.985 288.971L512.812 289.616C512.148 290.636 511.152 291.146 509.824 291.146ZM509.656 284.042C509.109 284.042 508.65 284.242 508.279 284.643C507.908 285.038 507.678 285.595 507.59 286.312H511.56V286.21C511.521 285.521 511.335 284.989 511.003 284.613C510.671 284.232 510.222 284.042 509.656 284.042ZM518.423 291V280.336H521.909C523.066 280.336 523.936 280.575 524.517 281.054C525.103 281.532 525.396 282.24 525.396 283.178C525.396 283.676 525.254 284.118 524.971 284.503C524.688 284.884 524.302 285.18 523.813 285.39C524.39 285.551 524.844 285.858 525.176 286.312C525.513 286.762 525.681 287.299 525.681 287.924C525.681 288.881 525.371 289.633 524.751 290.18C524.131 290.727 523.254 291 522.122 291H518.423ZM519.829 286.012V289.85H522.151C522.805 289.85 523.32 289.682 523.696 289.345C524.077 289.003 524.268 288.534 524.268 287.938C524.268 286.654 523.569 286.012 522.173 286.012H519.829ZM519.829 284.884H521.953C522.568 284.884 523.059 284.73 523.425 284.423C523.796 284.115 523.982 283.698 523.982 283.17C523.982 282.584 523.811 282.16 523.469 281.896C523.127 281.627 522.607 281.493 521.909 281.493H519.829V284.884Z" fill="white"/>
<g filter="url(#filter3_d)">
<path d="M703.651 291L700.152 297.06L696.653 291H685L700.152 317.244L715.304 291H703.651Z" fill="#41B883"/>
<path d="M703.652 291L700.152 297.061L696.653 291H691.061L700.152 306.746L709.244 291H703.652Z" fill="#34495E"/>
</g>
<path d="M674.311 267.336L677.797 276.037L681.284 267.336H683.107V278H681.701V273.847L681.833 269.365L678.332 278H677.255L673.762 269.387L673.901 273.847V278H672.495V267.336H674.311ZM685.019 273.964C685.019 273.188 685.17 272.49 685.473 271.87C685.781 271.25 686.206 270.771 686.748 270.434C687.294 270.097 687.917 269.929 688.615 269.929C689.694 269.929 690.566 270.302 691.23 271.049C691.899 271.796 692.233 272.79 692.233 274.03V274.125C692.233 274.897 692.084 275.59 691.787 276.206C691.494 276.816 691.071 277.292 690.52 277.634C689.973 277.976 689.343 278.146 688.63 278.146C687.556 278.146 686.684 277.773 686.015 277.026C685.351 276.279 685.019 275.29 685.019 274.06V273.964ZM686.381 274.125C686.381 275.004 686.584 275.71 686.989 276.242C687.399 276.774 687.946 277.041 688.63 277.041C689.318 277.041 689.865 276.772 690.271 276.235C690.676 275.693 690.878 274.936 690.878 273.964C690.878 273.095 690.671 272.392 690.256 271.855C689.846 271.313 689.299 271.042 688.615 271.042C687.946 271.042 687.407 271.308 686.997 271.84C686.586 272.373 686.381 273.134 686.381 274.125ZM693.603 273.972C693.603 272.756 693.891 271.779 694.467 271.042C695.043 270.3 695.798 269.929 696.73 269.929C697.658 269.929 698.393 270.246 698.935 270.881V266.75H700.29V278H699.045L698.979 277.15C698.437 277.814 697.683 278.146 696.716 278.146C695.798 278.146 695.048 277.771 694.467 277.019C693.891 276.267 693.603 275.285 693.603 274.074V273.972ZM694.958 274.125C694.958 275.024 695.144 275.727 695.515 276.235C695.886 276.743 696.398 276.997 697.053 276.997C697.912 276.997 698.54 276.611 698.935 275.839V272.199C698.53 271.452 697.907 271.079 697.067 271.079C696.403 271.079 695.886 271.335 695.515 271.848C695.144 272.36 694.958 273.12 694.958 274.125ZM707.292 277.216C706.765 277.836 705.991 278.146 704.97 278.146C704.125 278.146 703.481 277.902 703.037 277.414C702.597 276.921 702.375 276.193 702.37 275.231V270.075H703.725V275.195C703.725 276.396 704.213 276.997 705.19 276.997C706.225 276.997 706.914 276.611 707.255 275.839V270.075H708.61V278H707.321L707.292 277.216ZM712.148 278H710.793V266.75H712.148V278ZM717.612 278.146C716.538 278.146 715.664 277.795 714.99 277.092C714.316 276.384 713.979 275.439 713.979 274.257V274.008C713.979 273.222 714.128 272.521 714.426 271.906C714.729 271.286 715.148 270.803 715.686 270.456C716.228 270.104 716.813 269.929 717.443 269.929C718.474 269.929 719.274 270.268 719.846 270.947C720.417 271.625 720.703 272.597 720.703 273.862V274.426H715.334C715.354 275.207 715.581 275.839 716.015 276.323C716.455 276.801 717.011 277.041 717.685 277.041C718.164 277.041 718.569 276.943 718.901 276.748C719.233 276.552 719.523 276.293 719.772 275.971L720.6 276.616C719.936 277.636 718.94 278.146 717.612 278.146ZM717.443 271.042C716.896 271.042 716.438 271.242 716.066 271.643C715.695 272.038 715.466 272.595 715.378 273.312H719.348V273.21C719.309 272.521 719.123 271.989 718.791 271.613C718.459 271.232 718.01 271.042 717.443 271.042ZM734.055 274.616C733.923 275.744 733.505 276.616 732.802 277.231C732.104 277.841 731.174 278.146 730.012 278.146C728.752 278.146 727.741 277.695 726.979 276.792C726.223 275.888 725.844 274.68 725.844 273.166V272.141C725.844 271.149 726.02 270.278 726.372 269.526C726.728 268.774 727.231 268.198 727.88 267.797C728.53 267.392 729.282 267.189 730.136 267.189C731.269 267.189 732.177 267.507 732.861 268.142C733.544 268.771 733.942 269.646 734.055 270.764H732.641C732.519 269.914 732.253 269.299 731.843 268.918C731.438 268.537 730.869 268.347 730.136 268.347C729.238 268.347 728.532 268.679 728.02 269.343C727.512 270.007 727.258 270.952 727.258 272.177V273.21C727.258 274.367 727.5 275.288 727.983 275.971C728.466 276.655 729.143 276.997 730.012 276.997C730.793 276.997 731.391 276.821 731.806 276.469C732.226 276.113 732.504 275.495 732.641 274.616H734.055Z" fill="white"/>
<defs>
<filter id="filter0_d" x="639" y="411.999" width="127.503" height="115.246" filterUnits="userSpaceOnUse" color-interpolation-filters="sRGB">
<feFlood flood-opacity="0" result="BackgroundImageFix"/>
<feColorMatrix in="SourceAlpha" type="matrix" values="0 0 0 0 0 0 0 0 0 0 0 0 0 0 0 0 0 0 127 0"/>
<feOffset dx="1"/>
<feGaussianBlur stdDeviation="9"/>
<feColorMatrix type="matrix" values="0 0 0 0 0.36426 0 0 0 0 0.315104 0 0 0 0 0.504167 0 0 0 0.65 0"/>
<feBlend mode="normal" in2="BackgroundImageFix" result="effect1_dropShadow"/>
<feBlend mode="normal" in="SourceGraphic" in2="effect1_dropShadow" result="shape"/>
</filter>
<filter id="filter1_d" x="463" y="439" width="66.3043" height="62.2446" filterUnits="userSpaceOnUse" color-interpolation-filters="sRGB">
<feFlood flood-opacity="0" result="BackgroundImageFix"/>
<feColorMatrix in="SourceAlpha" type="matrix" values="0 0 0 0 0 0 0 0 0 0 0 0 0 0 0 0 0 0 127 0"/>
<feOffset dx="1"/>
<feGaussianBlur stdDeviation="9"/>
<feColorMatrix type="matrix" values="0 0 0 0 0.36426 0 0 0 0 0.315104 0 0 0 0 0.504167 0 0 0 0.65 0"/>
<feBlend mode="normal" in2="BackgroundImageFix" result="effect1_dropShadow"/>
<feBlend mode="normal" in="SourceGraphic" in2="effect1_dropShadow" result="shape"/>
</filter>
<filter id="filter2_d" x="460" y="286" width="66.3043" height="62.2446" filterUnits="userSpaceOnUse" color-interpolation-filters="sRGB">
<feFlood flood-opacity="0" result="BackgroundImageFix"/>
<feColorMatrix in="SourceAlpha" type="matrix" values="0 0 0 0 0 0 0 0 0 0 0 0 0 0 0 0 0 0 127 0"/>
<feOffset dx="1"/>
<feGaussianBlur stdDeviation="9"/>
<feColorMatrix type="matrix" values="0 0 0 0 0.36426 0 0 0 0 0.315104 0 0 0 0 0.504167 0 0 0 0.65 0"/>
<feBlend mode="normal" in2="BackgroundImageFix" result="effect1_dropShadow"/>
<feBlend mode="normal" in="SourceGraphic" in2="effect1_dropShadow" result="shape"/>
</filter>
<filter id="filter3_d" x="668" y="273" width="66.3043" height="62.2446" filterUnits="userSpaceOnUse" color-interpolation-filters="sRGB">
<feFlood flood-opacity="0" result="BackgroundImageFix"/>
<feColorMatrix in="SourceAlpha" type="matrix" values="0 0 0 0 0 0 0 0 0 0 0 0 0 0 0 0 0 0 127 0"/>
<feOffset dx="1"/>
<feGaussianBlur stdDeviation="9"/>
<feColorMatrix type="matrix" values="0 0 0 0 0.36426 0 0 0 0 0.315104 0 0 0 0 0.504167 0 0 0 0.65 0"/>
<feBlend mode="normal" in2="BackgroundImageFix" result="effect1_dropShadow"/>
<feBlend mode="normal" in="SourceGraphic" in2="effect1_dropShadow" result="shape"/>
</filter>
<linearGradient id="paint0_linear" x1="1006.82" y1="176.75" x2="1006.82" y2="132.57" gradientUnits="userSpaceOnUse">
<stop stop-color="#808080" stop-opacity="0.25"/>
<stop offset="0.54" stop-color="#808080" stop-opacity="0.12"/>
<stop offset="1" stop-color="#808080" stop-opacity="0.1"/>
</linearGradient>
<linearGradient id="paint1_linear" x1="234133" y1="439287" x2="234133" y2="75723.7" gradientUnits="userSpaceOnUse">
<stop stop-color="#808080" stop-opacity="0.25"/>
<stop offset="0.54" stop-color="#808080" stop-opacity="0.12"/>
<stop offset="1" stop-color="#808080" stop-opacity="0.1"/>
</linearGradient>
<clipPath id="clip0">
<rect x="284" y="105" width="1040.32" height="649.16" fill="white"/>
</clipPath>
</defs>
</svg>
