<svg width="1868" height="999" viewBox="0 0 1868 999" fill="none" xmlns="http://www.w3.org/2000/svg">
<g clip-path="url(#clip0)">
<path d="M668.48 573.16H583.16C578.278 573.16 574.32 577.118 574.32 582V605.32C574.32 610.202 578.278 614.16 583.16 614.16H668.48C673.362 614.16 677.32 610.202 677.32 605.32V582C677.32 577.118 673.362 573.16 668.48 573.16Z" fill="#D38884"/>
<path d="M1080.48 573.16H995.16C990.278 573.16 986.32 577.118 986.32 582V605.32C986.32 610.202 990.278 614.16 995.16 614.16H1080.48C1085.36 614.16 1089.32 610.202 1089.32 605.32V582C1089.32 577.118 1085.36 573.16 1080.48 573.16Z" fill="#D38884"/>
<path d="M1183.48 573.16H1098.16C1093.28 573.16 1089.32 577.118 1089.32 582V605.32C1089.32 610.202 1093.28 614.16 1098.16 614.16H1183.48C1188.36 614.16 1192.32 610.202 1192.32 605.32V582C1192.32 577.118 1188.36 573.16 1183.48 573.16Z" fill="#D38884"/>
<path opacity="0.1" d="M1183.48 573.16H1098.16C1093.28 573.16 1089.32 577.118 1089.32 582V605.32C1089.32 610.202 1093.28 614.16 1098.16 614.16H1183.48C1188.36 614.16 1192.32 610.202 1192.32 605.32V582C1192.32 577.118 1188.36 573.16 1183.48 573.16Z" fill="black"/>
<path d="M1098.16 573.16H1183.48C1188.36 573.16 1192.32 569.202 1192.32 564.32V541C1192.32 536.118 1188.36 532.16 1183.48 532.16H1098.16C1093.28 532.16 1089.32 536.118 1089.32 541V564.32C1089.32 569.202 1093.28 573.16 1098.16 573.16Z" fill="#D38884"/>
<path d="M995.16 573.16H1080.48C1085.36 573.16 1089.32 569.202 1089.32 564.32V541C1089.32 536.118 1085.36 532.16 1080.48 532.16H995.16C990.278 532.16 986.32 536.118 986.32 541V564.32C986.32 569.202 990.278 573.16 995.16 573.16Z" fill="#D38884"/>
<path opacity="0.1" d="M995.16 573.16H1080.48C1085.36 573.16 1089.32 569.202 1089.32 564.32V541C1089.32 536.118 1085.36 532.16 1080.48 532.16H995.16C990.278 532.16 986.32 536.118 986.32 541V564.32C986.32 569.202 990.278 573.16 995.16 573.16Z" fill="black"/>
<path d="M583.16 573.16H668.48C673.362 573.16 677.32 569.202 677.32 564.32V541C677.32 536.118 673.362 532.16 668.48 532.16H583.16C578.278 532.16 574.32 536.118 574.32 541V564.32C574.32 569.202 578.278 573.16 583.16 573.16Z" fill="#D38884"/>
<path opacity="0.1" d="M583.16 573.16H668.48C673.362 573.16 677.32 569.202 677.32 564.32V541C677.32 536.118 673.362 532.16 668.48 532.16H583.16C578.278 532.16 574.32 536.118 574.32 541V564.32C574.32 569.202 578.278 573.16 583.16 573.16Z" fill="black"/>
<path d="M668.48 491.16H583.16C578.278 491.16 574.32 495.118 574.32 500V523.32C574.32 528.202 578.278 532.16 583.16 532.16H668.48C673.362 532.16 677.32 528.202 677.32 523.32V500C677.32 495.118 673.362 491.16 668.48 491.16Z" fill="#D38884"/>
<path d="M1080.48 491.16H995.16C990.278 491.16 986.32 495.118 986.32 500V523.32C986.32 528.202 990.278 532.16 995.16 532.16H1080.48C1085.36 532.16 1089.32 528.202 1089.32 523.32V500C1089.32 495.118 1085.36 491.16 1080.48 491.16Z" fill="#D38884"/>
<path d="M1183.48 491.16H1098.16C1093.28 491.16 1089.32 495.118 1089.32 500V523.32C1089.32 528.202 1093.28 532.16 1098.16 532.16H1183.48C1188.36 532.16 1192.32 528.202 1192.32 523.32V500C1192.32 495.118 1188.36 491.16 1183.48 491.16Z" fill="#D38884"/>
<path opacity="0.1" d="M1183.48 491.16H1098.16C1093.28 491.16 1089.32 495.118 1089.32 500V523.32C1089.32 528.202 1093.28 532.16 1098.16 532.16H1183.48C1188.36 532.16 1192.32 528.202 1192.32 523.32V500C1192.32 495.118 1188.36 491.16 1183.48 491.16Z" fill="black"/>
<path d="M995.16 491.16H1080.48C1085.36 491.16 1089.32 487.202 1089.32 482.32V459C1089.32 454.118 1085.36 450.16 1080.48 450.16H995.16C990.278 450.16 986.32 454.118 986.32 459V482.32C986.32 487.202 990.278 491.16 995.16 491.16Z" fill="#D38884"/>
<path opacity="0.1" d="M995.16 491.16H1080.48C1085.36 491.16 1089.32 487.202 1089.32 482.32V459C1089.32 454.118 1085.36 450.16 1080.48 450.16H995.16C990.278 450.16 986.32 454.118 986.32 459V482.32C986.32 487.202 990.278 491.16 995.16 491.16Z" fill="black"/>
<path d="M583.16 491.16H668.48C673.362 491.16 677.32 487.202 677.32 482.32V459C677.32 454.118 673.362 450.16 668.48 450.16H583.16C578.278 450.16 574.32 454.118 574.32 459V482.32C574.32 487.202 578.278 491.16 583.16 491.16Z" fill="#D38884"/>
<path opacity="0.1" d="M583.16 491.16H668.48C673.362 491.16 677.32 487.202 677.32 482.32V459C677.32 454.118 673.362 450.16 668.48 450.16H583.16C578.278 450.16 574.32 454.118 574.32 459V482.32C574.32 487.202 578.278 491.16 583.16 491.16Z" fill="black"/>
<path d="M668.48 411.16H583.16C578.278 411.16 574.32 415.118 574.32 420V443.32C574.32 448.202 578.278 452.16 583.16 452.16H668.48C673.362 452.16 677.32 448.202 677.32 443.32V420C677.32 415.118 673.362 411.16 668.48 411.16Z" fill="#D38884"/>
<path d="M1080.48 411.16H995.16C990.278 411.16 986.32 415.118 986.32 420V443.32C986.32 448.202 990.278 452.16 995.16 452.16H1080.48C1085.36 452.16 1089.32 448.202 1089.32 443.32V420C1089.32 415.118 1085.36 411.16 1080.48 411.16Z" fill="#D38884"/>
<path d="M995.16 411.16H1080.48C1085.36 411.16 1089.32 407.202 1089.32 402.32V379C1089.32 374.118 1085.36 370.16 1080.48 370.16H995.16C990.278 370.16 986.32 374.118 986.32 379V402.32C986.32 407.202 990.278 411.16 995.16 411.16Z" fill="#D38884"/>
<path opacity="0.1" d="M995.16 411.16H1080.48C1085.36 411.16 1089.32 407.202 1089.32 402.32V379C1089.32 374.118 1085.36 370.16 1080.48 370.16H995.16C990.278 370.16 986.32 374.118 986.32 379V402.32C986.32 407.202 990.278 411.16 995.16 411.16Z" fill="black"/>
<path d="M892.16 411.16H977.48C982.362 411.16 986.32 407.202 986.32 402.32V379C986.32 374.118 982.362 370.16 977.48 370.16H892.16C887.278 370.16 883.32 374.118 883.32 379V402.32C883.32 407.202 887.278 411.16 892.16 411.16Z" fill="#D38884"/>
<path d="M789.16 411.16H874.48C879.362 411.16 883.32 407.202 883.32 402.32V379C883.32 374.118 879.362 370.16 874.48 370.16H789.16C784.278 370.16 780.32 374.118 780.32 379V402.32C780.32 407.202 784.278 411.16 789.16 411.16Z" fill="#D38884"/>
<path opacity="0.1" d="M789.16 411.16H874.48C879.362 411.16 883.32 407.202 883.32 402.32V379C883.32 374.118 879.362 370.16 874.48 370.16H789.16C784.278 370.16 780.32 374.118 780.32 379V402.32C780.32 407.202 784.278 411.16 789.16 411.16Z" fill="black"/>
<path d="M686.16 411.16H771.48C776.362 411.16 780.32 407.202 780.32 402.32V379C780.32 374.118 776.362 370.16 771.48 370.16H686.16C681.278 370.16 677.32 374.118 677.32 379V402.32C677.32 407.202 681.278 411.16 686.16 411.16Z" fill="#D38884"/>
<path d="M583.16 411.16H668.48C673.362 411.16 677.32 407.202 677.32 402.32V379C677.32 374.118 673.362 370.16 668.48 370.16H583.16C578.278 370.16 574.32 374.118 574.32 379V402.32C574.32 407.202 578.278 411.16 583.16 411.16Z" fill="#D38884"/>
<path opacity="0.1" d="M583.16 411.16H668.48C673.362 411.16 677.32 407.202 677.32 402.32V379C677.32 374.118 673.362 370.16 668.48 370.16H583.16C578.278 370.16 574.32 374.118 574.32 379V402.32C574.32 407.202 578.278 411.16 583.16 411.16Z" fill="black"/>
<path d="M668.48 329.16H583.16C578.278 329.16 574.32 333.118 574.32 338V361.32C574.32 366.202 578.278 370.16 583.16 370.16H668.48C673.362 370.16 677.32 366.202 677.32 361.32V338C677.32 333.118 673.362 329.16 668.48 329.16Z" fill="#D38884"/>
<path d="M771.48 329.16H686.16C681.278 329.16 677.32 333.118 677.32 338V361.32C677.32 366.202 681.278 370.16 686.16 370.16H771.48C776.362 370.16 780.32 366.202 780.32 361.32V338C780.32 333.118 776.362 329.16 771.48 329.16Z" fill="#D38884"/>
<path opacity="0.1" d="M771.48 329.16H686.16C681.278 329.16 677.32 333.118 677.32 338V361.32C677.32 366.202 681.278 370.16 686.16 370.16H771.48C776.362 370.16 780.32 366.202 780.32 361.32V338C780.32 333.118 776.362 329.16 771.48 329.16Z" fill="black"/>
<path d="M874.48 329.16H789.16C784.278 329.16 780.32 333.118 780.32 338V361.32C780.32 366.202 784.278 370.16 789.16 370.16H874.48C879.362 370.16 883.32 366.202 883.32 361.32V338C883.32 333.118 879.362 329.16 874.48 329.16Z" fill="#D38884"/>
<path d="M1080.48 329.16H995.16C990.278 329.16 986.32 333.118 986.32 338V361.32C986.32 366.202 990.278 370.16 995.16 370.16H1080.48C1085.36 370.16 1089.32 366.202 1089.32 361.32V338C1089.32 333.118 1085.36 329.16 1080.48 329.16Z" fill="#D38884"/>
<path d="M1183.48 192.57H1090.16C1085.28 192.57 1081.32 196.528 1081.32 201.41V227.91C1081.32 232.793 1085.28 236.75 1090.16 236.75H1183.48C1188.36 236.75 1192.32 232.793 1192.32 227.91V201.41C1192.32 196.528 1188.36 192.57 1183.48 192.57Z" fill="url(#paint0_linear)"/>
<path d="M1094.16 235.16H1179.48C1184.36 235.16 1188.32 231.202 1188.32 226.32V203C1188.32 198.118 1184.36 194.16 1179.48 194.16H1094.16C1089.28 194.16 1085.32 198.118 1085.32 203V226.32C1085.32 231.202 1089.28 235.16 1094.16 235.16Z" fill="#D38884"/>
<path d="M995.16 329.16H1080.48C1085.36 329.16 1089.32 325.202 1089.32 320.32V297C1089.32 292.118 1085.36 288.16 1080.48 288.16H995.16C990.278 288.16 986.32 292.118 986.32 297V320.32C986.32 325.202 990.278 329.16 995.16 329.16Z" fill="#D38884"/>
<path opacity="0.1" d="M995.16 329.16H1080.48C1085.36 329.16 1089.32 325.202 1089.32 320.32V297C1089.32 292.118 1085.36 288.16 1080.48 288.16H995.16C990.278 288.16 986.32 292.118 986.32 297V320.32C986.32 325.202 990.278 329.16 995.16 329.16Z" fill="black"/>
<rect x="677" y="411" width="309" height="198" rx="8" fill="#BE7A77"/>
<path d="M789.16 329.16H874.48C879.362 329.16 883.32 325.202 883.32 320.32V297C883.32 292.118 879.362 288.16 874.48 288.16H789.16C784.278 288.16 780.32 292.118 780.32 297V320.32C780.32 325.202 784.278 329.16 789.16 329.16Z" fill="#D38884"/>
<path opacity="0.1" d="M789.16 329.16H874.48C879.362 329.16 883.32 325.202 883.32 320.32V297C883.32 292.118 879.362 288.16 874.48 288.16H789.16C784.278 288.16 780.32 292.118 780.32 297V320.32C780.32 325.202 784.278 329.16 789.16 329.16Z" fill="black"/>
<path d="M583.16 329.16H668.48C673.362 329.16 677.32 325.202 677.32 320.32V297C677.32 292.118 673.362 288.16 668.48 288.16H583.16C578.278 288.16 574.32 292.118 574.32 297V320.32C574.32 325.202 578.278 329.16 583.16 329.16Z" fill="#D38884"/>
<path opacity="0.1" d="M583.16 329.16H668.48C673.362 329.16 677.32 325.202 677.32 320.32V297C677.32 292.118 673.362 288.16 668.48 288.16H583.16C578.278 288.16 574.32 292.118 574.32 297V320.32C574.32 325.202 578.278 329.16 583.16 329.16Z" fill="black"/>
<path d="M913 814.16C1188.59 814.16 1412 763.344 1412 700.66C1412 637.976 1188.59 587.16 913 587.16C637.41 587.16 414 637.976 414 700.66C414 763.344 637.41 814.16 913 814.16Z" fill="#F5F5F5"/>
<path d="M527.95 649.72C527.95 649.72 536.95 619.31 526.27 596.92C521.743 587.56 520.378 576.983 522.38 566.78C523.368 561.943 524.797 557.206 526.65 552.63" stroke="#535461" stroke-width="2" stroke-miterlimit="10"/>
<path d="M520.03 538.49C520.03 542.22 526.78 553.03 526.78 553.03C526.78 553.03 533.53 542.22 533.53 538.49C533.53 536.7 532.819 534.983 531.553 533.717C530.287 532.451 528.57 531.74 526.78 531.74C524.99 531.74 523.273 532.451 522.007 533.717C520.741 534.983 520.03 536.7 520.03 538.49V538.49Z" fill="#D38884"/>
<path d="M508.87 559.14C510.87 562.27 522.44 567.67 522.44 567.67C522.44 567.67 522.23 554.93 520.2 551.8C519.222 550.308 517.693 549.264 515.948 548.896C514.202 548.528 512.382 548.866 510.885 549.836C509.388 550.806 508.336 552.329 507.958 554.072C507.581 555.816 507.908 557.638 508.87 559.14Z" fill="#D38884"/>
<path d="M509.36 594.42C512.69 596.1 525.36 594.94 525.36 594.94C525.36 594.94 518.75 584.05 515.42 582.37C513.828 581.608 512 581.5 510.329 582.07C508.658 582.64 507.276 583.842 506.481 585.418C505.686 586.995 505.54 588.82 506.074 590.502C506.609 592.185 507.781 593.591 509.34 594.42H509.36Z" fill="#D38884"/>
<path d="M515.74 621.03C518.74 623.25 531.44 624.25 531.44 624.25C531.44 624.25 526.76 612.4 523.77 610.18C522.327 609.231 520.575 608.872 518.874 609.176C517.174 609.48 515.655 610.424 514.63 611.814C513.605 613.205 513.151 614.935 513.364 616.649C513.576 618.364 514.437 619.931 515.77 621.03H515.74Z" fill="#D38884"/>
<path d="M536.61 568.39C533.94 570.99 521.48 573.68 521.48 573.68C521.48 573.68 524.53 561.31 527.2 558.68C527.836 558.062 528.587 557.575 529.41 557.247C530.234 556.92 531.114 556.758 532 556.77C532.887 556.783 533.762 556.97 534.576 557.32C535.39 557.671 536.127 558.179 536.745 558.815C537.363 559.45 537.849 560.201 538.177 561.025C538.505 561.849 538.667 562.729 538.654 563.615C538.642 564.501 538.455 565.376 538.104 566.191C537.753 567.005 537.246 567.742 536.61 568.36V568.39Z" fill="#D38884"/>
<path d="M543.68 599.58C540.35 601.26 527.68 600.1 527.68 600.1C527.68 600.1 534.29 589.21 537.62 587.53C539.207 586.814 541.009 586.739 542.65 587.32C544.291 587.902 545.644 589.095 546.426 590.65C547.209 592.205 547.359 594.003 546.848 595.667C546.336 597.331 545.201 598.733 543.68 599.58V599.58Z" fill="#D38884"/>
<path d="M546.38 630.9C543.38 633.12 530.68 634.12 530.68 634.12C530.68 634.12 535.36 622.27 538.35 620.05C539.794 619.101 541.546 618.742 543.246 619.046C544.947 619.35 546.466 620.294 547.491 621.685C548.516 623.075 548.969 624.805 548.757 626.52C548.545 628.234 547.683 629.802 546.35 630.9H546.38Z" fill="#D38884"/>
<path d="M1010.98 477.38C1010.98 477.38 1043.87 510.27 1025.3 559.07C1006.73 607.87 1057.13 689.07 1057.13 689.07C1057.13 689.07 1056.59 688.99 1055.59 688.81C988.04 676.84 954.48 599.58 992.04 542.2C1006 520.86 1017.47 495.84 1010.98 477.38Z" fill="#D38884"/>
<path opacity="0.2" d="M1010.98 477.38C1010.98 477.38 1043.87 510.27 1025.3 559.07C1006.73 607.87 1057.13 689.07 1057.13 689.07C1057.13 689.07 1056.59 688.99 1055.59 688.81C988.04 676.84 954.48 599.58 992.04 542.2C1006 520.86 1017.47 495.84 1010.98 477.38Z" fill="black"/>
<path d="M1010.98 477.38C1010.98 477.38 1029.55 517.69 1010.98 550.58C992.41 583.47 1007.8 675.76 1057.16 689.02" stroke="#535461" stroke-miterlimit="10"/>
<path d="M952.41 610.39C952.41 610.39 989.94 604.39 993.36 638.05C996.78 671.71 1065.52 676.34 1065.52 676.34L1064.23 677.2C1007.47 714.46 953.23 700.93 961.39 651.46C964.43 633.07 964.16 614.58 952.41 610.39Z" fill="#D38884"/>
<path opacity="0.2" d="M952.41 610.39C952.41 610.39 989.94 604.39 993.36 638.05C996.78 671.71 1065.52 676.34 1065.52 676.34L1064.23 677.2C1007.47 714.46 953.23 700.93 961.39 651.46C964.43 633.07 964.16 614.58 952.41 610.39Z" fill="#F5F5F5"/>
<path d="M952.41 610.39C952.41 610.39 981.54 616.78 979.15 643.27C976.76 669.76 1022.41 701.51 1065.52 676.34" stroke="#535461" stroke-miterlimit="10"/>
<path d="M1237.93 687.81C1237.93 687.81 1182.23 676.67 1167.37 661.81C1152.51 646.95 1085.67 620.96 1078.24 639.53C1070.81 658.1 977.98 721.24 1041.16 732.38C1104.34 743.52 1189.7 747.23 1208.27 739.81C1226.84 732.39 1237.93 687.81 1237.93 687.81Z" fill="#A8A8A8"/>
<path opacity="0.2" d="M1041.16 725.48C1104.29 736.62 1189.7 740.33 1208.27 732.91C1222.41 727.25 1232.27 700.08 1236.12 687.43L1237.98 687.82C1237.98 687.82 1226.84 732.38 1208.27 739.82C1189.7 747.26 1104.27 743.53 1041.16 732.39C1022.94 729.17 1017.73 721.62 1019.69 712.06C1021.16 718.29 1027.55 723.08 1041.16 725.48Z" fill="black"/>
<path d="M1350.63 193.17C1349.64 190.696 1348.05 188.503 1346.02 186.78C1331.07 173.16 1306.9 177.29 1288.34 168.96C1284.06 167.04 1279.68 164.38 1275.04 165.11C1268.56 166.11 1262.53 173.51 1256.88 170.23L1257.28 171.46L1256.88 171.25L1261.04 183.91C1262.64 188.77 1264.32 193.77 1267.42 197.82C1262.83 201.822 1259.32 206.912 1257.2 212.623C1255.09 218.334 1254.44 224.484 1255.32 230.511C1256.19 236.538 1258.57 242.248 1262.22 247.12C1265.87 251.993 1270.69 255.871 1276.23 258.4C1276.43 258.82 1276.62 259.25 1276.81 259.68L1277.34 259.9C1278.57 262.732 1279.49 265.689 1280.08 268.72C1275.27 269.39 1266.88 274.72 1258.64 282.56L1242.16 282.01C1231.5 281.654 1221.19 278.146 1212.52 271.93L1163.16 236.48C1159.64 236.826 1156.33 238.291 1153.71 240.66C1147.59 234.28 1142.39 227.66 1142.83 223.66C1142.83 223.66 1119.89 180.73 1111.55 202.19C1103.21 223.65 1127.19 246.19 1127.19 246.19L1142.4 265.9C1141.8 269.356 1141.42 272.846 1141.26 276.35C1160.03 297.82 1225.71 317.24 1225.71 317.24L1235.95 317.74L1236.01 318.24C1235.38 320.927 1235.07 323.68 1235.09 326.44C1235.09 326.84 1235.09 327.25 1235.09 327.67C1235.09 328.09 1235.09 328.22 1235.09 328.49C1235.61 362.73 1240.3 467.49 1240.3 467.49C1241.21 467.08 1242.16 466.71 1243.12 466.36L1242.39 475.67C1242.39 475.67 1198.6 481.8 1166.28 494.07C1133.96 506.34 1132.92 520.65 1132.92 520.65V646.91C1123.69 651.65 1109.12 657.91 1101.64 654.54C1093.52 650.92 1089.07 653.96 1088.26 657.13C1088.11 657.757 1088.11 658.413 1088.26 659.04C1088.33 659.322 1088.43 659.594 1088.57 659.85V659.91C1088.72 660.174 1088.9 660.417 1089.12 660.63C1092.25 663.7 1160.02 690.27 1175.66 686.18C1176.14 686.053 1176.62 685.893 1177.08 685.7C1177.23 685.64 1177.36 685.56 1177.51 685.49C1177.66 685.42 1178.09 685.22 1178.36 685.06C1178.63 684.9 1178.67 684.85 1178.82 684.75C1178.97 684.65 1179.29 684.44 1179.51 684.27C1179.73 684.1 1179.8 684.01 1179.94 683.88C1180.08 683.75 1180.35 683.53 1180.53 683.33C1180.71 683.13 1180.79 683.03 1180.92 682.88C1181.05 682.73 1181.28 682.48 1181.44 682.26C1181.6 682.04 1181.66 681.93 1181.78 681.77C1181.9 681.61 1182.1 681.31 1182.24 681.07C1182.38 680.83 1182.43 680.73 1182.52 680.55C1182.61 680.37 1182.8 680.04 1182.93 679.77C1183.06 679.5 1183.09 679.42 1183.16 679.24C1183.23 679.06 1183.41 678.67 1183.52 678.38C1183.63 678.09 1183.64 678.03 1183.71 677.85C1183.78 677.67 1183.93 677.22 1184.02 676.85C1184.02 676.68 1184.11 676.51 1184.16 676.34C1184.25 675.99 1184.35 675.65 1184.43 675.34C1184.43 675.18 1184.5 675.02 1184.53 674.86C1184.61 674.48 1184.69 674.1 1184.75 673.72C1184.75 673.58 1184.75 673.43 1184.82 673.29C1184.89 672.88 1184.95 672.46 1185 672.05V671.69C1185.05 671.24 1185.1 670.79 1185.14 670.34V670.06C1185.18 669.573 1185.21 669.087 1185.23 668.6V668.4C1185.23 667.88 1185.23 667.36 1185.23 666.84V666.74C1185.21 660.643 1184.54 654.565 1183.23 648.61V648.61L1187.16 541.08C1207.64 541.398 1228.12 540.644 1248.52 538.82L1250.76 590.14C1250.76 590.14 1250.76 623.87 1262.23 639.2C1272.05 652.32 1283.39 710.35 1286.45 726.82C1282.24 734.82 1274.18 744.82 1260.14 744.48C1260.14 744.48 1233.73 742.2 1235.22 749.48C1235.26 749.671 1235.32 749.858 1235.39 750.04V750.04C1235.47 750.249 1235.57 750.453 1235.68 750.65V750.65C1235.79 750.84 1235.91 751.03 1236.05 751.23L1236.13 751.35C1236.28 751.56 1236.45 751.78 1236.64 752.01V752.06C1236.82 752.27 1237.01 752.48 1237.22 752.69L1237.4 752.87C1237.64 753.11 1237.88 753.35 1238.16 753.6C1251.71 765.87 1330.95 767.91 1330.95 767.91V767.63C1330.95 767.55 1330.95 767.45 1330.95 767.34C1330.95 763.79 1330.43 745.17 1325.69 731.15H1326.79C1326.79 731.15 1315.32 627.91 1305.94 615.65C1305.94 615.65 1303.45 561.21 1309.07 527.1L1310.07 526.72C1336.35 516.9 1338.22 492.72 1335.51 474.96C1340.51 476.56 1343.43 477.65 1343.43 477.65C1343.43 477.65 1343.34 476.88 1343.17 475.51L1343.43 475.61C1343.43 475.61 1342.93 472.36 1342.1 467.3C1340.22 453.37 1336.58 429.03 1332.7 417.54C1332.07 415.01 1331.47 412.85 1330.92 411.22C1328.68 404.315 1327.14 397.203 1326.33 389.99C1325.27 380.641 1324.73 371.239 1324.72 361.83C1324.81 349.258 1325.77 336.708 1327.6 324.27C1329.19 313.41 1330.6 301.05 1330.5 292.42C1330.61 289.406 1330.4 286.389 1329.87 283.42C1328.48 277.05 1322.33 272.91 1315.94 270.27C1315.53 270.1 1315.11 269.96 1314.69 269.8C1314.85 267.39 1315.05 264.65 1315.31 261.8C1316.08 262.331 1316.94 262.7 1317.85 262.886C1318.77 263.071 1319.71 263.069 1320.62 262.88C1323.37 262.28 1325.34 259.99 1327.09 257.88C1336.33 246.53 1345.82 234.7 1349.37 220.6C1350.8 214.303 1351.48 207.857 1351.37 201.4C1351.37 201.047 1351.37 200.693 1351.37 200.34C1351.54 197.925 1351.29 195.499 1350.63 193.17V193.17Z" fill="url(#paint1_linear)"/>
<path d="M1266.5 248.5C1266.5 248.5 1280.5 269.5 1277.5 279.5C1274.5 289.5 1310.5 283.5 1310.5 283.5C1310.5 283.5 1311.5 244.5 1318.5 235.5C1325.5 226.5 1266.5 248.5 1266.5 248.5Z" fill="#F7C4A7"/>
<path d="M1174 262C1174 262 1145 238 1146 229C1146 229 1124 187 1116 208C1108 229 1131 251 1131 251L1159 288L1174 262Z" fill="#F7C4A7"/>
<path d="M1144.5 638.5C1144.5 638.5 1117.5 655.5 1106.5 650.5C1095.5 645.5 1091.5 653.5 1094.5 656.5C1097.5 659.5 1162.5 685.5 1177.5 681.5C1192.5 677.5 1184.87 644.74 1184.87 644.74L1144.5 638.5Z" fill="#535461"/>
<path d="M1287.5 711.5C1287.5 711.5 1281 739 1258.5 738.5C1258.5 738.5 1224.5 735.5 1237.5 747.5C1250.5 759.5 1326.5 761.5 1326.5 761.5C1326.5 761.5 1326.5 720.5 1312.5 711.5C1298.5 702.5 1287.5 711.5 1287.5 711.5Z" fill="#535461"/>
<path d="M1246.5 517.5L1249.5 587.5C1249.5 587.5 1249.5 620.5 1260.5 635.5C1271.5 650.5 1284.5 725.5 1284.5 725.5H1322.5C1322.5 725.5 1311.5 624.5 1302.5 612.5C1302.5 612.5 1298.5 523.5 1312.5 503.5L1246.5 517.5Z" fill="#575988"/>
<path opacity="0.1" d="M1246.5 517.5L1249.5 587.5C1249.5 587.5 1249.5 620.5 1260.5 635.5C1271.5 650.5 1284.5 725.5 1284.5 725.5H1322.5C1322.5 725.5 1311.5 624.5 1302.5 612.5C1302.5 612.5 1298.5 523.5 1312.5 503.5L1246.5 517.5Z" fill="black"/>
<path d="M1325.5 454.5C1325.5 454.5 1348.5 509.5 1306.5 525.5C1264.5 541.5 1188.5 539.5 1188.5 539.5L1184.5 655.5C1184.5 655.5 1137.5 661.5 1136.5 646.5V519.5C1136.5 519.5 1137.5 505.5 1168.5 493.5C1199.5 481.5 1241.5 475.5 1241.5 475.5L1243.5 449.5L1325.5 454.5Z" fill="#575988"/>
<path opacity="0.1" d="M1288.65 273.31C1296.64 272.426 1304.72 273.568 1312.15 276.63C1318.28 279.21 1324.15 283.26 1325.51 289.49C1327.09 296.87 1325.34 313.42 1323.33 327.43C1320.11 349.385 1319.7 371.661 1322.11 393.72C1323.11 402.91 1324.56 410.92 1326.51 414.49C1332.51 425.49 1338.51 477.49 1338.51 477.49C1338.51 477.49 1272.51 452.49 1239.51 467.49C1239.51 467.49 1235.01 364.99 1234.51 331.49C1234.12 305.55 1267.01 275.99 1278.01 274.99C1284.45 274.41 1282.24 273.98 1288.65 273.31Z" fill="black"/>
<path d="M1288.65 271.31C1296.64 270.426 1304.72 271.568 1312.15 274.63C1318.28 277.21 1324.15 281.26 1325.51 287.49C1327.09 294.87 1325.34 311.42 1323.33 325.43C1320.11 347.385 1319.7 369.661 1322.11 391.72C1322.89 398.772 1324.36 405.729 1326.51 412.49C1331.01 425.99 1338.51 475.49 1338.51 475.49C1338.51 475.49 1272.51 450.49 1239.51 465.49C1239.51 465.49 1235.01 362.99 1234.51 329.49C1234.12 303.55 1267.01 273.99 1278.01 272.99C1284.45 272.41 1282.24 271.98 1288.65 271.31Z" fill="#84ADD3"/>
<path opacity="0.1" d="M1306.5 326.5L1235.5 322.5C1235.5 322.5 1230.98 287.69 1241.23 288.05L1311.5 290.5C1311.5 290.5 1326.5 308.5 1306.5 326.5Z" fill="black"/>
<path d="M1306.5 324.5L1225.5 320.5C1225.5 320.5 1162.5 301.5 1144.5 280.5C1144.5 280.5 1145.5 243.5 1165.5 241.5L1212.81 276.19C1221.08 282.255 1230.98 285.691 1241.23 286.05L1311.5 288.5C1311.5 288.5 1326.5 306.5 1306.5 324.5Z" fill="#84ADD3"/>
<path opacity="0.1" d="M1310 253C1311.19 243.52 1315.49 240.37 1318.5 236.5C1325.5 227.5 1266.5 249.5 1266.5 249.5C1269.55 254.184 1272.23 259.103 1274.5 264.21C1279.2 266.377 1284.32 267.499 1289.5 267.5C1298.16 267.5 1303.78 258.13 1310 253Z" fill="black"/>
<path d="M1289.5 266.5C1309.38 266.5 1325.5 250.382 1325.5 230.5C1325.5 210.618 1309.38 194.5 1289.5 194.5C1269.62 194.5 1253.5 210.618 1253.5 230.5C1253.5 250.382 1269.62 266.5 1289.5 266.5Z" fill="#F7C4A7"/>
<path opacity="0.1" d="M1266.77 205.27C1262.94 201.08 1261.09 195.5 1259.35 190.09L1255.35 177.7C1260.77 180.9 1266.55 173.7 1272.77 172.7C1277.22 171.99 1281.43 174.59 1285.53 176.46C1303.33 184.6 1326.53 180.56 1340.85 193.89C1342.81 195.585 1344.32 197.73 1345.27 200.14C1345.93 202.411 1346.2 204.778 1346.07 207.14C1346.19 213.452 1345.56 219.755 1344.2 225.92C1340.8 239.71 1331.7 251.29 1322.83 262.39C1321.15 264.5 1319.26 266.74 1316.62 267.33C1311.47 268.48 1307.49 262.92 1305.5 258.04C1302.86 251.573 1300.92 244.846 1299.7 237.97C1299.18 235.06 1298.77 232.06 1297.32 229.49C1294.22 224 1286.58 218.8 1281.94 214.54C1277.3 210.28 1271.03 209.92 1266.77 205.27Z" fill="black"/>
<path d="M1266.77 204.27C1262.94 200.08 1261.09 194.5 1259.35 189.09L1255.35 176.7C1260.77 179.9 1266.55 172.7 1272.77 171.7C1277.22 170.99 1281.43 173.59 1285.53 175.46C1303.33 183.6 1326.53 179.56 1340.85 192.89C1342.81 194.585 1344.32 196.73 1345.27 199.14C1345.93 201.411 1346.2 203.778 1346.07 206.14C1346.19 212.452 1345.56 218.755 1344.2 224.92C1340.8 238.71 1331.7 250.29 1322.83 261.39C1321.15 263.5 1319.26 265.74 1316.62 266.33C1311.47 267.48 1307.49 261.92 1305.5 257.04C1302.86 250.573 1300.92 243.846 1299.7 236.97C1299.18 234.06 1298.77 231.06 1297.32 228.49C1294.22 223 1286.58 217.8 1281.94 213.54C1277.3 209.28 1271.03 208.92 1266.77 204.27Z" fill="#601916"/>
<path d="M1299 241C1300.66 241 1302 238.09 1302 234.5C1302 230.91 1300.66 228 1299 228C1297.34 228 1296 230.91 1296 234.5C1296 238.09 1297.34 241 1299 241Z" fill="#F7C4A7"/>
<path opacity="0.1" d="M1317 408C1317 408 1315 414 1305 413C1295 412 1266 410 1266 413" fill="black"/>
<path opacity="0.5" d="M1237.5 746.5C1235.7 744.84 1234.8 743.5 1234.59 742.33C1234.33 743.63 1235.13 745.33 1237.5 747.5C1250.5 759.5 1326.5 761.5 1326.5 761.5C1326.5 761.5 1326.5 761.15 1326.5 760.5C1326.01 760.49 1250.46 758.46 1237.5 746.5Z" fill="white"/>
<path opacity="0.5" d="M1177.5 679.5C1162.5 683.5 1097.5 657.5 1094.5 654.5C1094.1 654.094 1093.81 653.591 1093.67 653.04C1093.5 653.639 1093.48 654.273 1093.63 654.88C1093.77 655.486 1094.07 656.045 1094.5 656.5C1097.5 659.5 1162.5 685.5 1177.5 681.5C1185.22 679.44 1186.94 669.77 1186.8 660.86C1186.65 669.16 1184.64 677.58 1177.5 679.5Z" fill="white"/>
<path d="M916.09 668.74C916.488 668.74 916.869 668.582 917.151 668.3C917.432 668.019 917.59 667.638 917.59 667.24C917.59 666.842 917.432 666.46 917.151 666.179C916.869 665.898 916.488 665.74 916.09 665.74C915.692 665.74 915.31 665.898 915.029 666.179C914.748 666.46 914.59 666.842 914.59 667.24C914.59 667.638 914.748 668.019 915.029 668.3C915.31 668.582 915.692 668.74 916.09 668.74V668.74Z" fill="#67647E"/>
<path d="M505.49 642.21C505.49 642.21 542.81 641.06 554.05 633.05C565.29 625.04 611.45 615.48 614.24 628.32C617.03 641.16 670.33 692.2 628.16 692.58C585.99 692.96 530.27 686.02 519.04 679.18C507.81 672.34 505.49 642.21 505.49 642.21Z" fill="#A8A8A8"/>
<path opacity="0.2" d="M628.95 688.07C586.82 688.41 531.06 681.51 519.83 674.67C511.28 669.46 507.83 650.78 506.74 642.16H505.49C505.49 642.16 507.85 672.26 519.08 679.09C530.31 685.92 586.07 692.88 628.16 692.58C640.32 692.48 644.52 688.16 644.29 681.75C642.64 685.58 638 688 628.95 688.07Z" fill="black"/>
<path d="M1360.16 738.16H1445.48C1450.36 738.16 1454.32 734.202 1454.32 729.32V706C1454.32 701.118 1450.36 697.16 1445.48 697.16H1360.16C1355.28 697.16 1351.32 701.118 1351.32 706V729.32C1351.32 734.202 1355.28 738.16 1360.16 738.16Z" fill="#D38884"/>
<path opacity="0.1" d="M1360.16 738.16H1445.48C1450.36 738.16 1454.32 734.202 1454.32 729.32V706C1454.32 701.118 1450.36 697.16 1445.48 697.16H1360.16C1355.28 697.16 1351.32 701.118 1351.32 706V729.32C1351.32 734.202 1355.28 738.16 1360.16 738.16Z" fill="black"/>
<path d="M1445.48 658.16H1360.16C1355.28 658.16 1351.32 662.118 1351.32 667V690.32C1351.32 695.202 1355.28 699.16 1360.16 699.16H1445.48C1450.36 699.16 1454.32 695.202 1454.32 690.32V667C1454.32 662.118 1450.36 658.16 1445.48 658.16Z" fill="#D38884"/>
<path d="M1360.16 658.16H1445.48C1450.36 658.16 1454.32 654.202 1454.32 649.32V626C1454.32 621.118 1450.36 617.16 1445.48 617.16H1360.16C1355.28 617.16 1351.32 621.118 1351.32 626V649.32C1351.32 654.202 1355.28 658.16 1360.16 658.16Z" fill="#D38884"/>
<path opacity="0.1" d="M1360.16 658.16H1445.48C1450.36 658.16 1454.32 654.202 1454.32 649.32V626C1454.32 621.118 1450.36 617.16 1445.48 617.16H1360.16C1355.28 617.16 1351.32 621.118 1351.32 626V649.32C1351.32 654.202 1355.28 658.16 1360.16 658.16Z" fill="black"/>
<path d="M1445.48 576.16H1360.16C1355.28 576.16 1351.32 580.118 1351.32 585V608.32C1351.32 613.202 1355.28 617.16 1360.16 617.16H1445.48C1450.36 617.16 1454.32 613.202 1454.32 608.32V585C1454.32 580.118 1450.36 576.16 1445.48 576.16Z" fill="#D38884"/>
<g filter="url(#filter0_d)">
<path d="M842.317 490L831.751 508.3L821.186 490H786L831.751 569.244L877.503 490H842.317Z" fill="#41B883"/>
<path d="M842.317 489.999L831.752 508.3L821.186 489.999H804.301L831.752 537.545L859.202 489.999H842.317Z" fill="#34495E"/>
</g>
<path d="M774.135 460.135C773.906 462.09 773.183 463.601 771.964 464.667C770.754 465.725 769.141 466.254 767.127 466.254C764.943 466.254 763.191 465.471 761.871 463.905C760.559 462.34 759.903 460.245 759.903 457.621V455.844C759.903 454.126 760.208 452.615 760.817 451.312C761.435 450.008 762.307 449.009 763.433 448.315C764.558 447.613 765.862 447.262 767.343 447.262C769.306 447.262 770.881 447.812 772.065 448.912C773.25 450.004 773.94 451.519 774.135 453.457H771.685C771.473 451.984 771.012 450.918 770.301 450.258C769.598 449.598 768.612 449.268 767.343 449.268C765.785 449.268 764.562 449.843 763.674 450.994C762.794 452.145 762.354 453.783 762.354 455.907V457.697C762.354 459.703 762.772 461.299 763.61 462.483C764.448 463.668 765.62 464.261 767.127 464.261C768.481 464.261 769.518 463.956 770.237 463.347C770.965 462.729 771.448 461.658 771.685 460.135H774.135ZM776.483 459.005C776.483 457.659 776.746 456.449 777.271 455.374C777.804 454.299 778.54 453.47 779.479 452.886C780.427 452.302 781.507 452.01 782.717 452.01C784.587 452.01 786.098 452.657 787.249 453.952C788.409 455.247 788.988 456.969 788.988 459.119V459.284C788.988 460.621 788.73 461.823 788.214 462.89C787.706 463.948 786.974 464.773 786.018 465.365C785.07 465.958 783.978 466.254 782.742 466.254C780.88 466.254 779.369 465.606 778.21 464.312C777.059 463.017 776.483 461.303 776.483 459.17V459.005ZM778.845 459.284C778.845 460.808 779.196 462.031 779.898 462.953C780.609 463.876 781.557 464.337 782.742 464.337C783.936 464.337 784.883 463.871 785.586 462.94C786.288 462.001 786.64 460.689 786.64 459.005C786.64 457.498 786.28 456.28 785.561 455.349C784.85 454.409 783.902 453.939 782.717 453.939C781.557 453.939 780.622 454.401 779.911 455.323C779.2 456.246 778.845 457.566 778.845 459.284ZM798.573 454.371C798.218 454.312 797.833 454.282 797.418 454.282C795.878 454.282 794.832 454.938 794.282 456.25V466H791.934V452.264H794.219L794.257 453.851C795.027 452.623 796.119 452.01 797.532 452.01C797.989 452.01 798.336 452.069 798.573 452.188V454.371ZM806.19 466.254C804.328 466.254 802.813 465.645 801.646 464.426C800.478 463.199 799.894 461.561 799.894 459.513V459.081C799.894 457.718 800.152 456.504 800.668 455.438C801.193 454.363 801.921 453.525 802.852 452.924C803.791 452.314 804.807 452.01 805.898 452.01C807.684 452.01 809.072 452.598 810.062 453.774C811.053 454.951 811.548 456.635 811.548 458.827V459.805H802.242C802.276 461.159 802.67 462.255 803.423 463.093C804.185 463.922 805.149 464.337 806.317 464.337C807.147 464.337 807.849 464.168 808.425 463.829C809 463.491 809.504 463.042 809.936 462.483L811.37 463.601C810.219 465.369 808.493 466.254 806.19 466.254ZM805.898 453.939C804.951 453.939 804.155 454.286 803.512 454.98C802.868 455.666 802.471 456.631 802.318 457.875H809.199V457.697C809.132 456.504 808.81 455.581 808.234 454.93C807.659 454.27 806.88 453.939 805.898 453.939ZM824.243 447.516L830.286 462.598L836.329 447.516H839.49V466H837.053V458.802L837.281 451.032L831.213 466H829.347L823.291 451.07L823.532 458.802V466H821.095V447.516H824.243ZM842.804 459.005C842.804 457.659 843.066 456.449 843.591 455.374C844.124 454.299 844.86 453.47 845.8 452.886C846.748 452.302 847.827 452.01 849.037 452.01C850.908 452.01 852.418 452.657 853.569 453.952C854.729 455.247 855.309 456.969 855.309 459.119V459.284C855.309 460.621 855.05 461.823 854.534 462.89C854.026 463.948 853.294 464.773 852.338 465.365C851.39 465.958 850.298 466.254 849.062 466.254C847.201 466.254 845.69 465.606 844.53 464.312C843.379 463.017 842.804 461.303 842.804 459.17V459.005ZM845.165 459.284C845.165 460.808 845.516 462.031 846.219 462.953C846.93 463.876 847.878 464.337 849.062 464.337C850.256 464.337 851.204 463.871 851.906 462.94C852.609 462.001 852.96 460.689 852.96 459.005C852.96 457.498 852.6 456.28 851.881 455.349C851.17 454.409 850.222 453.939 849.037 453.939C847.878 453.939 846.942 454.401 846.231 455.323C845.521 456.246 845.165 457.566 845.165 459.284ZM857.683 459.018C857.683 456.91 858.182 455.217 859.181 453.939C860.179 452.653 861.487 452.01 863.104 452.01C864.712 452.01 865.985 452.56 866.925 453.66V446.5H869.273V466H867.115L867.001 464.527C866.062 465.678 864.754 466.254 863.078 466.254C861.487 466.254 860.188 465.602 859.181 464.299C858.182 462.995 857.683 461.294 857.683 459.195V459.018ZM860.031 459.284C860.031 460.841 860.353 462.06 860.996 462.94C861.639 463.821 862.528 464.261 863.662 464.261C865.152 464.261 866.239 463.592 866.925 462.255V455.945C866.222 454.65 865.143 454.003 863.688 454.003C862.536 454.003 861.639 454.447 860.996 455.336C860.353 456.225 860.031 457.541 860.031 459.284ZM881.41 464.642C880.496 465.716 879.155 466.254 877.386 466.254C875.922 466.254 874.804 465.831 874.034 464.984C873.272 464.13 872.887 462.868 872.879 461.201V452.264H875.228V461.138C875.228 463.22 876.074 464.261 877.767 464.261C879.561 464.261 880.754 463.592 881.347 462.255V452.264H883.695V466H881.461L881.41 464.642ZM889.827 466H887.479V446.5H889.827V466ZM899.298 466.254C897.436 466.254 895.921 465.645 894.753 464.426C893.585 463.199 893.001 461.561 893.001 459.513V459.081C893.001 457.718 893.259 456.504 893.775 455.438C894.3 454.363 895.028 453.525 895.959 452.924C896.898 452.314 897.914 452.01 899.006 452.01C900.792 452.01 902.18 452.598 903.17 453.774C904.16 454.951 904.655 456.635 904.655 458.827V459.805H895.35C895.383 461.159 895.777 462.255 896.53 463.093C897.292 463.922 898.257 464.337 899.425 464.337C900.254 464.337 900.957 464.168 901.532 463.829C902.108 463.491 902.611 463.042 903.043 462.483L904.478 463.601C903.326 465.369 901.6 466.254 899.298 466.254ZM899.006 453.939C898.058 453.939 897.262 454.286 896.619 454.98C895.976 455.666 895.578 456.631 895.426 457.875H902.307V457.697C902.239 456.504 901.917 455.581 901.342 454.93C900.766 454.27 899.988 453.939 899.006 453.939Z" fill="white"/>
<rect x="574" y="451" width="103" height="163" rx="6" fill="#D38884"/>
<rect x="780" y="288" width="103" height="123" rx="6" fill="#D38884"/>
<rect x="574" y="288" width="103" height="163" rx="6" fill="#BE7A77"/>
</g>
<g filter="url(#filter1_d)">
<path d="M628.651 517L625.152 523.06L621.653 517H610L625.152 543.244L640.304 517H628.651Z" fill="#41B883"/>
<path d="M628.652 517L625.152 523.061L621.653 517H616.061L625.152 532.746L634.244 517H628.652Z" fill="#34495E"/>
</g>
<path d="M599.304 493.336L602.79 502.037L606.276 493.336H608.1V504H606.694V499.847L606.826 495.365L603.325 504H602.248L598.754 495.387L598.894 499.847V504H597.487V493.336H599.304ZM610.012 499.964C610.012 499.188 610.163 498.49 610.466 497.87C610.773 497.25 611.198 496.771 611.74 496.434C612.287 496.097 612.91 495.929 613.608 495.929C614.687 495.929 615.559 496.302 616.223 497.049C616.892 497.796 617.226 498.79 617.226 500.03V500.125C617.226 500.897 617.077 501.59 616.779 502.206C616.486 502.816 616.064 503.292 615.512 503.634C614.965 503.976 614.335 504.146 613.623 504.146C612.548 504.146 611.677 503.773 611.008 503.026C610.344 502.279 610.012 501.29 610.012 500.06V499.964ZM611.374 500.125C611.374 501.004 611.577 501.71 611.982 502.242C612.392 502.774 612.939 503.041 613.623 503.041C614.311 503.041 614.858 502.772 615.263 502.235C615.668 501.693 615.871 500.936 615.871 499.964C615.871 499.095 615.664 498.392 615.249 497.855C614.838 497.313 614.292 497.042 613.608 497.042C612.939 497.042 612.399 497.308 611.989 497.84C611.579 498.373 611.374 499.134 611.374 500.125ZM618.596 499.972C618.596 498.756 618.884 497.779 619.46 497.042C620.036 496.3 620.791 495.929 621.723 495.929C622.651 495.929 623.386 496.246 623.928 496.881V492.75H625.283V504H624.038L623.972 503.15C623.43 503.814 622.675 504.146 621.708 504.146C620.791 504.146 620.041 503.771 619.46 503.019C618.884 502.267 618.596 501.285 618.596 500.074V499.972ZM619.951 500.125C619.951 501.024 620.136 501.727 620.507 502.235C620.878 502.743 621.391 502.997 622.045 502.997C622.905 502.997 623.532 502.611 623.928 501.839V498.199C623.522 497.452 622.9 497.079 622.06 497.079C621.396 497.079 620.878 497.335 620.507 497.848C620.136 498.36 619.951 499.12 619.951 500.125ZM632.285 503.216C631.757 503.836 630.983 504.146 629.963 504.146C629.118 504.146 628.474 503.902 628.029 503.414C627.59 502.921 627.368 502.193 627.363 501.231V496.075H628.718V501.195C628.718 502.396 629.206 502.997 630.183 502.997C631.218 502.997 631.906 502.611 632.248 501.839V496.075H633.603V504H632.314L632.285 503.216ZM637.141 504H635.786V492.75H637.141V504ZM642.604 504.146C641.53 504.146 640.656 503.795 639.982 503.092C639.309 502.384 638.972 501.439 638.972 500.257V500.008C638.972 499.222 639.121 498.521 639.418 497.906C639.721 497.286 640.141 496.803 640.678 496.456C641.22 496.104 641.806 495.929 642.436 495.929C643.466 495.929 644.267 496.268 644.838 496.947C645.41 497.625 645.695 498.597 645.695 499.862V500.426H640.327C640.346 501.207 640.573 501.839 641.008 502.323C641.447 502.801 642.004 503.041 642.678 503.041C643.156 503.041 643.562 502.943 643.894 502.748C644.226 502.552 644.516 502.293 644.765 501.971L645.593 502.616C644.929 503.636 643.933 504.146 642.604 504.146ZM642.436 497.042C641.889 497.042 641.43 497.242 641.059 497.643C640.688 498.038 640.458 498.595 640.371 499.312H644.34V499.21C644.301 498.521 644.116 497.989 643.784 497.613C643.452 497.232 643.002 497.042 642.436 497.042ZM657.092 501.217H652.624L651.621 504H650.17L654.243 493.336H655.473L659.553 504H658.11L657.092 501.217ZM653.049 500.06H656.674L654.858 495.072L653.049 500.06Z" fill="white"/>
<g filter="url(#filter2_d)">
<path d="M625.651 364L622.152 370.06L618.653 364H607L622.152 390.244L637.304 364H625.651Z" fill="#41B883"/>
<path d="M625.652 364L622.152 370.061L618.653 364H613.061L622.152 379.746L631.244 364H625.652Z" fill="#34495E"/>
</g>
<path d="M596.523 340.336L600.01 349.037L603.496 340.336H605.32V351H603.914V346.847L604.045 342.365L600.544 351H599.468L595.974 342.387L596.113 346.847V351H594.707V340.336H596.523ZM607.231 346.964C607.231 346.188 607.383 345.49 607.686 344.87C607.993 344.25 608.418 343.771 608.96 343.434C609.507 343.097 610.129 342.929 610.828 342.929C611.907 342.929 612.778 343.302 613.442 344.049C614.111 344.796 614.446 345.79 614.446 347.03V347.125C614.446 347.897 614.297 348.59 613.999 349.206C613.706 349.816 613.284 350.292 612.732 350.634C612.185 350.976 611.555 351.146 610.842 351.146C609.768 351.146 608.896 350.773 608.228 350.026C607.563 349.279 607.231 348.29 607.231 347.06V346.964ZM608.594 347.125C608.594 348.004 608.796 348.71 609.202 349.242C609.612 349.774 610.159 350.041 610.842 350.041C611.531 350.041 612.078 349.772 612.483 349.235C612.888 348.693 613.091 347.936 613.091 346.964C613.091 346.095 612.883 345.392 612.468 344.855C612.058 344.313 611.511 344.042 610.828 344.042C610.159 344.042 609.619 344.308 609.209 344.84C608.799 345.373 608.594 346.134 608.594 347.125ZM615.815 346.972C615.815 345.756 616.104 344.779 616.68 344.042C617.256 343.3 618.01 342.929 618.943 342.929C619.871 342.929 620.605 343.246 621.147 343.881V339.75H622.502V351H621.257L621.191 350.15C620.649 350.814 619.895 351.146 618.928 351.146C618.01 351.146 617.261 350.771 616.68 350.019C616.104 349.267 615.815 348.285 615.815 347.074V346.972ZM617.17 347.125C617.17 348.024 617.356 348.727 617.727 349.235C618.098 349.743 618.611 349.997 619.265 349.997C620.125 349.997 620.752 349.611 621.147 348.839V345.199C620.742 344.452 620.12 344.079 619.28 344.079C618.616 344.079 618.098 344.335 617.727 344.848C617.356 345.36 617.17 346.12 617.17 347.125ZM629.504 350.216C628.977 350.836 628.203 351.146 627.183 351.146C626.338 351.146 625.693 350.902 625.249 350.414C624.81 349.921 624.587 349.193 624.583 348.231V343.075H625.938V348.195C625.938 349.396 626.426 349.997 627.402 349.997C628.438 349.997 629.126 349.611 629.468 348.839V343.075H630.823V351H629.534L629.504 350.216ZM634.36 351H633.005V339.75H634.36V351ZM639.824 351.146C638.75 351.146 637.876 350.795 637.202 350.092C636.528 349.384 636.191 348.439 636.191 347.257V347.008C636.191 346.222 636.34 345.521 636.638 344.906C636.941 344.286 637.361 343.803 637.898 343.456C638.44 343.104 639.026 342.929 639.656 342.929C640.686 342.929 641.487 343.268 642.058 343.947C642.629 344.625 642.915 345.597 642.915 346.862V347.426H637.546C637.566 348.207 637.793 348.839 638.228 349.323C638.667 349.801 639.224 350.041 639.897 350.041C640.376 350.041 640.781 349.943 641.113 349.748C641.445 349.552 641.736 349.293 641.985 348.971L642.812 349.616C642.148 350.636 641.152 351.146 639.824 351.146ZM639.656 344.042C639.109 344.042 638.65 344.242 638.279 344.643C637.908 345.038 637.678 345.595 637.59 346.312H641.56V346.21C641.521 345.521 641.335 344.989 641.003 344.613C640.671 344.232 640.222 344.042 639.656 344.042ZM648.423 351V340.336H651.909C653.066 340.336 653.936 340.575 654.517 341.054C655.103 341.532 655.396 342.24 655.396 343.178C655.396 343.676 655.254 344.118 654.971 344.503C654.688 344.884 654.302 345.18 653.813 345.39C654.39 345.551 654.844 345.858 655.176 346.312C655.513 346.762 655.681 347.299 655.681 347.924C655.681 348.881 655.371 349.633 654.751 350.18C654.131 350.727 653.254 351 652.122 351H648.423ZM649.829 346.012V349.85H652.151C652.805 349.85 653.32 349.682 653.696 349.345C654.077 349.003 654.268 348.534 654.268 347.938C654.268 346.654 653.569 346.012 652.173 346.012H649.829ZM649.829 344.884H651.953C652.568 344.884 653.059 344.73 653.425 344.423C653.796 344.115 653.982 343.698 653.982 343.17C653.982 342.584 653.811 342.16 653.469 341.896C653.127 341.627 652.607 341.493 651.909 341.493H649.829V344.884Z" fill="white"/>
<g filter="url(#filter3_d)">
<path d="M833.651 351L830.152 357.06L826.653 351H815L830.152 377.244L845.304 351H833.651Z" fill="#41B883"/>
<path d="M833.652 351L830.152 357.061L826.653 351H821.061L830.152 366.746L839.244 351H833.652Z" fill="#34495E"/>
</g>
<path d="M804.311 327.336L807.797 336.037L811.284 327.336H813.107V338H811.701V333.847L811.833 329.365L808.332 338H807.255L803.762 329.387L803.901 333.847V338H802.495V327.336H804.311ZM815.019 333.964C815.019 333.188 815.17 332.49 815.473 331.87C815.781 331.25 816.206 330.771 816.748 330.434C817.294 330.097 817.917 329.929 818.615 329.929C819.694 329.929 820.566 330.302 821.23 331.049C821.899 331.796 822.233 332.79 822.233 334.03V334.125C822.233 334.897 822.084 335.59 821.787 336.206C821.494 336.816 821.071 337.292 820.52 337.634C819.973 337.976 819.343 338.146 818.63 338.146C817.556 338.146 816.684 337.773 816.015 337.026C815.351 336.279 815.019 335.29 815.019 334.06V333.964ZM816.381 334.125C816.381 335.004 816.584 335.71 816.989 336.242C817.399 336.774 817.946 337.041 818.63 337.041C819.318 337.041 819.865 336.772 820.271 336.235C820.676 335.693 820.878 334.936 820.878 333.964C820.878 333.095 820.671 332.392 820.256 331.855C819.846 331.313 819.299 331.042 818.615 331.042C817.946 331.042 817.407 331.308 816.997 331.84C816.586 332.373 816.381 333.134 816.381 334.125ZM823.603 333.972C823.603 332.756 823.891 331.779 824.467 331.042C825.043 330.3 825.798 329.929 826.73 329.929C827.658 329.929 828.393 330.246 828.935 330.881V326.75H830.29V338H829.045L828.979 337.15C828.437 337.814 827.683 338.146 826.716 338.146C825.798 338.146 825.048 337.771 824.467 337.019C823.891 336.267 823.603 335.285 823.603 334.074V333.972ZM824.958 334.125C824.958 335.024 825.144 335.727 825.515 336.235C825.886 336.743 826.398 336.997 827.053 336.997C827.912 336.997 828.54 336.611 828.935 335.839V332.199C828.53 331.452 827.907 331.079 827.067 331.079C826.403 331.079 825.886 331.335 825.515 331.848C825.144 332.36 824.958 333.12 824.958 334.125ZM837.292 337.216C836.765 337.836 835.991 338.146 834.97 338.146C834.125 338.146 833.481 337.902 833.037 337.414C832.597 336.921 832.375 336.193 832.37 335.231V330.075H833.725V335.195C833.725 336.396 834.213 336.997 835.19 336.997C836.225 336.997 836.914 336.611 837.255 335.839V330.075H838.61V338H837.321L837.292 337.216ZM842.148 338H840.793V326.75H842.148V338ZM847.612 338.146C846.538 338.146 845.664 337.795 844.99 337.092C844.316 336.384 843.979 335.439 843.979 334.257V334.008C843.979 333.222 844.128 332.521 844.426 331.906C844.729 331.286 845.148 330.803 845.686 330.456C846.228 330.104 846.813 329.929 847.443 329.929C848.474 329.929 849.274 330.268 849.846 330.947C850.417 331.625 850.703 332.597 850.703 333.862V334.426H845.334C845.354 335.207 845.581 335.839 846.015 336.323C846.455 336.801 847.011 337.041 847.685 337.041C848.164 337.041 848.569 336.943 848.901 336.748C849.233 336.552 849.523 336.293 849.772 335.971L850.6 336.616C849.936 337.636 848.94 338.146 847.612 338.146ZM847.443 331.042C846.896 331.042 846.438 331.242 846.066 331.643C845.695 332.038 845.466 332.595 845.378 333.312H849.348V333.21C849.309 332.521 849.123 331.989 848.791 331.613C848.459 331.232 848.01 331.042 847.443 331.042ZM864.055 334.616C863.923 335.744 863.505 336.616 862.802 337.231C862.104 337.841 861.174 338.146 860.012 338.146C858.752 338.146 857.741 337.695 856.979 336.792C856.223 335.888 855.844 334.68 855.844 333.166V332.141C855.844 331.149 856.02 330.278 856.372 329.526C856.728 328.774 857.231 328.198 857.88 327.797C858.53 327.392 859.282 327.189 860.136 327.189C861.269 327.189 862.177 327.507 862.861 328.142C863.544 328.771 863.942 329.646 864.055 330.764H862.641C862.519 329.914 862.253 329.299 861.843 328.918C861.438 328.537 860.869 328.347 860.136 328.347C859.238 328.347 858.532 328.679 858.02 329.343C857.512 330.007 857.258 330.952 857.258 332.177V333.21C857.258 334.367 857.5 335.288 857.983 335.971C858.466 336.655 859.143 336.997 860.012 336.997C860.793 336.997 861.391 336.821 861.806 336.469C862.226 336.113 862.504 335.495 862.641 334.616H864.055Z" fill="white"/>
<defs>
<filter id="filter0_d" x="769" y="471.999" width="127.503" height="115.246" filterUnits="userSpaceOnUse" color-interpolation-filters="sRGB">
<feFlood flood-opacity="0" result="BackgroundImageFix"/>
<feColorMatrix in="SourceAlpha" type="matrix" values="0 0 0 0 0 0 0 0 0 0 0 0 0 0 0 0 0 0 127 0"/>
<feOffset dx="1"/>
<feGaussianBlur stdDeviation="9"/>
<feColorMatrix type="matrix" values="0 0 0 0 0.36426 0 0 0 0 0.315104 0 0 0 0 0.504167 0 0 0 0.65 0"/>
<feBlend mode="normal" in2="BackgroundImageFix" result="effect1_dropShadow"/>
<feBlend mode="normal" in="SourceGraphic" in2="effect1_dropShadow" result="shape"/>
</filter>
<filter id="filter1_d" x="593" y="499" width="66.3043" height="62.2446" filterUnits="userSpaceOnUse" color-interpolation-filters="sRGB">
<feFlood flood-opacity="0" result="BackgroundImageFix"/>
<feColorMatrix in="SourceAlpha" type="matrix" values="0 0 0 0 0 0 0 0 0 0 0 0 0 0 0 0 0 0 127 0"/>
<feOffset dx="1"/>
<feGaussianBlur stdDeviation="9"/>
<feColorMatrix type="matrix" values="0 0 0 0 0.36426 0 0 0 0 0.315104 0 0 0 0 0.504167 0 0 0 0.65 0"/>
<feBlend mode="normal" in2="BackgroundImageFix" result="effect1_dropShadow"/>
<feBlend mode="normal" in="SourceGraphic" in2="effect1_dropShadow" result="shape"/>
</filter>
<filter id="filter2_d" x="590" y="346" width="66.3043" height="62.2446" filterUnits="userSpaceOnUse" color-interpolation-filters="sRGB">
<feFlood flood-opacity="0" result="BackgroundImageFix"/>
<feColorMatrix in="SourceAlpha" type="matrix" values="0 0 0 0 0 0 0 0 0 0 0 0 0 0 0 0 0 0 127 0"/>
<feOffset dx="1"/>
<feGaussianBlur stdDeviation="9"/>
<feColorMatrix type="matrix" values="0 0 0 0 0.36426 0 0 0 0 0.315104 0 0 0 0 0.504167 0 0 0 0.65 0"/>
<feBlend mode="normal" in2="BackgroundImageFix" result="effect1_dropShadow"/>
<feBlend mode="normal" in="SourceGraphic" in2="effect1_dropShadow" result="shape"/>
</filter>
<filter id="filter3_d" x="798" y="333" width="66.3043" height="62.2446" filterUnits="userSpaceOnUse" color-interpolation-filters="sRGB">
<feFlood flood-opacity="0" result="BackgroundImageFix"/>
<feColorMatrix in="SourceAlpha" type="matrix" values="0 0 0 0 0 0 0 0 0 0 0 0 0 0 0 0 0 0 127 0"/>
<feOffset dx="1"/>
<feGaussianBlur stdDeviation="9"/>
<feColorMatrix type="matrix" values="0 0 0 0 0.36426 0 0 0 0 0.315104 0 0 0 0 0.504167 0 0 0 0.65 0"/>
<feBlend mode="normal" in2="BackgroundImageFix" result="effect1_dropShadow"/>
<feBlend mode="normal" in="SourceGraphic" in2="effect1_dropShadow" result="shape"/>
</filter>
<linearGradient id="paint0_linear" x1="1136.82" y1="236.75" x2="1136.82" y2="192.57" gradientUnits="userSpaceOnUse">
<stop stop-color="#808080" stop-opacity="0.25"/>
<stop offset="0.54" stop-color="#808080" stop-opacity="0.12"/>
<stop offset="1" stop-color="#808080" stop-opacity="0.1"/>
</linearGradient>
<linearGradient id="paint1_linear" x1="234263" y1="439347" x2="234263" y2="75783.7" gradientUnits="userSpaceOnUse">
<stop stop-color="#808080" stop-opacity="0.25"/>
<stop offset="0.54" stop-color="#808080" stop-opacity="0.12"/>
<stop offset="1" stop-color="#808080" stop-opacity="0.1"/>
</linearGradient>
<clipPath id="clip0">
<rect x="414" y="165" width="1040.32" height="649.16" fill="white"/>
</clipPath>
</defs>
</svg>
