<svg width="877" height="542" viewBox="0 0 877 542" fill="none" xmlns="http://www.w3.org/2000/svg">
<ellipse rx="10.6643" ry="25.4426" transform="matrix(0.992812 0.119689 -0.124089 0.992271 396.61 467.478)" fill="#EEE857"/>
<ellipse cx="410.833" cy="467.478" rx="10.6672" ry="25.4356" fill="#EEE857"/>
<ellipse rx="10.6643" ry="25.4427" transform="matrix(0.992812 -0.119689 0.124088 0.992271 426.072 467.478)" fill="#EEE857"/>
<ellipse rx="10.6643" ry="25.4426" transform="matrix(0.992812 0.119688 -0.124089 0.992271 470.773 467.478)" fill="#EEE857"/>
<ellipse cx="484.996" cy="467.478" rx="10.6672" ry="25.4356" fill="#EEE857"/>
<ellipse rx="10.6643" ry="25.4427" transform="matrix(0.992812 -0.119689 0.124089 0.992271 500.234 467.478)" fill="#EEE857"/>
<ellipse rx="48.5459" ry="182.157" transform="matrix(0.658204 0.752839 -0.621678 0.783273 651.98 228.456)" fill="#793D3D"/>
<ellipse rx="56.7286" ry="22.3311" transform="matrix(0.99973 -0.0232435 -0.173908 0.984762 782.881 95.9087)" fill="#793D3D"/>
<ellipse rx="72.5715" ry="22.5011" transform="matrix(0.999104 0.0423273 -0.213517 0.976939 762.124 132.571)" fill="#793D3D"/>
<ellipse rx="80.3333" ry="22.5011" transform="matrix(0.999104 0.0423273 -0.213517 0.976939 736.884 167.46)" fill="#793D3D"/>
<ellipse rx="79.7431" ry="22.6003" transform="matrix(0.996224 0.0868176 -0.239425 0.970915 720.102 202.661)" fill="#793D3D"/>
<ellipse rx="79.4716" ry="22.6456" transform="matrix(0.994015 0.109242 -0.252235 0.967666 693.855 236.275)" fill="#793D3D"/>
<ellipse rx="78.9784" ry="22.7272" transform="matrix(0.988017 0.154348 -0.277577 0.960703 668.171 275.476)" fill="#793D3D"/>
<ellipse rx="78.5544" ry="22.7967" transform="matrix(0.979866 0.199656 -0.302562 0.95313 632.582 312.89)" fill="#793D3D"/>
<ellipse rx="78.203" ry="22.8538" transform="matrix(0.969527 0.244984 -0.327204 0.944954 601.529 347.564)" fill="#793D3D"/>
<ellipse rx="67.4727" ry="22.8985" transform="matrix(0.956984 0.290141 -0.351517 0.936182 559.818 375.067)" fill="#793D3D"/>
<ellipse rx="48.5459" ry="182.157" transform="matrix(-0.658204 0.752839 0.621678 0.783273 243.851 233.456)" fill="#793D3D"/>
<ellipse rx="56.7286" ry="22.3311" transform="matrix(-0.99973 -0.0232435 0.173908 0.984762 112.951 100.909)" fill="#793D3D"/>
<ellipse rx="72.5715" ry="22.5011" transform="matrix(-0.999104 0.0423273 0.213517 0.976939 133.707 137.571)" fill="#793D3D"/>
<ellipse rx="80.3333" ry="22.5011" transform="matrix(-0.999104 0.0423273 0.213517 0.976939 158.947 172.46)" fill="#793D3D"/>
<ellipse rx="79.7431" ry="22.6003" transform="matrix(-0.996224 0.0868176 0.239425 0.970915 175.73 207.661)" fill="#793D3D"/>
<ellipse rx="79.4716" ry="22.6456" transform="matrix(-0.994015 0.109242 0.252235 0.967666 201.977 241.275)" fill="#793D3D"/>
<ellipse rx="78.9784" ry="22.7272" transform="matrix(-0.988017 0.154348 0.277577 0.960703 227.66 280.476)" fill="#793D3D"/>
<ellipse rx="78.5544" ry="22.7967" transform="matrix(-0.979866 0.199656 0.302562 0.95313 263.249 317.89)" fill="#793D3D"/>
<ellipse rx="78.203" ry="22.8538" transform="matrix(-0.969527 0.244984 0.327204 0.944954 294.302 352.564)" fill="#793D3D"/>
<ellipse rx="67.4727" ry="22.8985" transform="matrix(-0.956984 0.290141 0.351517 0.936182 336.013 380.067)" fill="#793D3D"/>
<path d="M597.225 326.541C597.225 418.928 530.226 473.872 448.88 473.872C367.535 473.872 301.592 418.928 301.592 326.541C301.592 234.153 367.535 155.678 448.88 155.678C530.226 155.678 597.225 234.153 597.225 326.541Z" fill="#B15A5A"/>
<path fill-rule="evenodd" clip-rule="evenodd" d="M352.103 230.584C337.904 227.904 326.14 217.073 323.253 202.329C320.355 187.534 327.233 173.069 339.466 165.324C353.665 168.004 365.429 178.835 368.317 193.578C371.214 208.373 364.336 222.839 352.103 230.584Z" fill="#B15A5A"/>
<path fill-rule="evenodd" clip-rule="evenodd" d="M551.793 230.584C565.992 227.904 577.756 217.073 580.644 202.329C583.541 187.535 576.663 173.069 564.43 165.324C550.231 168.004 538.467 178.835 535.58 193.579C532.682 208.374 539.56 222.839 551.793 230.584Z" fill="#B15A5A"/>
<rect x="352.453" y="334.04" width="201.353" height="146.221" rx="16" fill="#E8DEDE"/>
<g clip-path="url(#clip0)">
<path d="M515.479 446.558C514.68 446.558 513.882 446.259 513.259 445.654L475.899 409.783C474.594 408.534 474.529 406.427 475.756 405.091C476.984 403.742 479.029 403.683 480.347 404.945L517.706 440.816C519.011 442.066 519.076 444.172 517.849 445.508C517.206 446.206 516.349 446.558 515.479 446.558Z" fill="#793D3D"/>
<path d="M390.773 446.556C389.909 446.556 389.046 446.204 388.403 445.507C387.176 444.171 387.241 442.064 388.546 440.815L425.918 404.944C427.23 403.694 429.288 403.747 430.509 405.09C431.736 406.426 431.671 408.532 430.366 409.781L392.994 445.653C392.37 446.257 391.572 446.556 390.773 446.556Z" fill="#793D3D"/>
<path d="M537.574 479.911H368.685C359.738 479.911 352.453 472.461 352.453 463.298V350.015C352.453 340.851 359.738 333.402 368.685 333.402H537.574C546.521 333.402 553.806 340.851 553.806 350.015V463.298C553.806 472.461 546.521 479.911 537.574 479.911ZM368.685 340.047C363.315 340.047 358.946 344.519 358.946 350.015V463.298C358.946 468.793 363.315 473.265 368.685 473.265H537.574C542.943 473.265 547.313 468.793 547.313 463.298V350.015C547.313 344.519 542.943 340.047 537.574 340.047H368.685Z" fill="#793D3D"/>
<path d="M453.13 423.353C448.812 423.353 444.494 421.884 441.209 418.953L357.842 344.519C356.492 343.317 356.349 341.217 357.524 339.828C358.712 338.446 360.757 338.319 362.108 339.509L445.475 413.936C449.624 417.638 456.636 417.638 460.778 413.936L544.041 339.629C545.385 338.426 547.43 338.559 548.625 339.948C549.8 341.336 549.664 343.43 548.313 344.639L465.05 418.947C461.758 421.884 457.447 423.353 453.13 423.353Z" fill="#793D3D"/>
</g>
<path d="M478.312 376.312C478.062 381.354 476.812 385.333 474.562 388.25C472.312 391.167 469.302 392.625 465.531 392.625C461.635 392.625 459.135 390.875 458.031 387.375C456.906 389.146 455.615 390.469 454.156 391.344C452.719 392.198 451.229 392.625 449.688 392.625C446.729 392.625 444.49 391.417 442.969 389C441.448 386.583 440.885 383.24 441.281 378.969C441.594 375.531 442.375 372.469 443.625 369.781C444.896 367.073 446.521 364.948 448.5 363.406C450.5 361.865 452.594 361.094 454.781 361.094C456.469 361.094 457.979 361.323 459.312 361.781C460.646 362.219 462.146 363.094 463.812 364.406L462.188 381.719C461.792 386.531 463.125 388.938 466.188 388.938C468.542 388.938 470.448 387.771 471.906 385.438C473.365 383.104 474.156 380.062 474.281 376.312C474.677 368.208 473.167 362.031 469.75 357.781C466.354 353.531 461.177 351.406 454.219 351.406C450.031 351.406 446.312 352.448 443.062 354.531C439.812 356.594 437.25 359.583 435.375 363.5C433.5 367.417 432.448 371.938 432.219 377.062C431.969 382.229 432.594 386.719 434.094 390.531C435.594 394.323 437.875 397.219 440.938 399.219C444.021 401.24 447.74 402.25 452.094 402.25C453.969 402.25 455.844 402.021 457.719 401.562C459.615 401.104 461.188 400.51 462.438 399.781L463.594 403.375C462.302 404.188 460.583 404.854 458.438 405.375C456.312 405.896 454.156 406.156 451.969 406.156C446.76 406.156 442.281 404.979 438.531 402.625C434.781 400.292 431.969 396.917 430.094 392.5C428.24 388.104 427.438 382.958 427.688 377.062C427.938 371.333 429.219 366.188 431.531 361.625C433.844 357.042 436.979 353.51 440.938 351.031C444.896 348.531 449.365 347.281 454.344 347.281C459.531 347.281 463.979 348.448 467.688 350.781C471.396 353.115 474.156 356.479 475.969 360.875C477.781 365.271 478.562 370.417 478.312 376.312ZM446.25 378.969C445.958 381.927 446.229 384.198 447.062 385.781C447.917 387.365 449.26 388.156 451.094 388.156C452.344 388.156 453.542 387.625 454.688 386.562C455.854 385.5 456.812 383.979 457.562 382L457.594 381.719L459.031 366C457.865 365.396 456.615 365.094 455.281 365.094C452.844 365.094 450.823 366.333 449.219 368.812C447.635 371.292 446.646 374.677 446.25 378.969Z" fill="#696969"/>
<path d="M449.408 356.17L397.06 288.092H501.757L449.408 356.17Z" fill="#EEE857"/>
<ellipse cx="396.581" cy="267.894" rx="61.4632" ry="60.3471" fill="white"/>
<ellipse cx="504.268" cy="267.894" rx="61.4632" ry="60.3471" fill="white"/>
<path d="M439.273 267.894C439.273 291.003 420.185 309.784 396.58 309.784C372.976 309.784 353.888 291.003 353.888 267.894C353.888 244.784 372.976 226.004 396.58 226.004C420.185 226.004 439.273 244.784 439.273 267.894Z" stroke="#B15A5A" stroke-width="3"/>
<path d="M546.961 267.894C546.961 291.003 527.873 309.784 504.268 309.784C480.664 309.784 461.576 291.003 461.576 267.894C461.576 244.784 480.664 226.004 504.268 226.004C527.873 226.004 546.961 244.784 546.961 267.894Z" stroke="#B15A5A" stroke-width="3"/>
<ellipse cx="396.073" cy="267.395" rx="36.5731" ry="35.909" fill="black"/>
<ellipse cx="503.76" cy="267.395" rx="36.5731" ry="35.909" fill="black"/>
<ellipse cx="379.31" cy="246.947" rx="4.57166" ry="4.48861" fill="white"/>
<ellipse cx="489.029" cy="246.947" rx="4.57164" ry="4.48861" fill="white"/>
<defs>
<clipPath id="clip0">
<rect width="201.353" height="206.084" fill="white" transform="translate(352.453 303.618)"/>
</clipPath>
</defs>
</svg>
