<svg width="930" height="788" viewBox="0 0 930 788" fill="none" xmlns="http://www.w3.org/2000/svg">
<path d="M748.166 64.2329C756.315 64.2329 762.921 57.6266 762.921 49.4774C762.921 41.3281 756.315 34.7218 748.166 34.7218C740.016 34.7218 733.41 41.3281 733.41 49.4774C733.41 57.6266 740.016 64.2329 748.166 64.2329Z" fill="#F1F1F1"/>
<path d="M661.166 635.233C669.315 635.233 675.921 628.627 675.921 620.477C675.921 612.328 669.315 605.722 661.166 605.722C653.016 605.722 646.41 612.328 646.41 620.477C646.41 628.627 653.016 635.233 661.166 635.233Z" fill="#F1F1F1"/>
<path d="M294.166 206.233C302.315 206.233 308.921 199.627 308.921 191.477C308.921 183.328 302.315 176.722 294.166 176.722C286.016 176.722 279.41 183.328 279.41 191.477C279.41 199.627 286.016 206.233 294.166 206.233Z" fill="#F1F1F1"/>
<path d="M157 788C243.709 788 314 777.703 314 765C314 752.297 243.709 742 157 742C70.2913 742 0 752.297 0 765C0 777.703 70.2913 788 157 788Z" fill="#F1F1F1"/>
<path d="M917.642 175.242L406.204 21.6639L282.823 432.539L794.262 586.117L917.642 175.242Z" fill="#F1F1F1"/>
<path d="M611.165 141.893L732.305 190.858" stroke="#3F3D56" stroke-width="2" stroke-miterlimit="10"/>
<path d="M723.096 195.958L722.38 194.089L731.593 190.572L727.412 181.64L729.226 180.793L734.316 191.673L723.096 195.958Z" fill="#3F3D56"/>
<path d="M671.735 177.375C677.81 177.375 682.735 172.451 682.735 166.375C682.735 160.3 677.81 155.375 671.735 155.375C665.66 155.375 660.735 160.3 660.735 166.375C660.735 172.451 665.66 177.375 671.735 177.375Z" fill="#3F3D56"/>
<path d="M601.934 481.351L713.537 413.4" stroke="#3F3D56" stroke-width="2" stroke-miterlimit="10"/>
<path d="M611.848 484.891L612.251 482.93L602.59 480.953L605.268 471.461L603.341 470.919L600.082 482.48L611.848 484.891Z" fill="#3F3D56"/>
<path d="M657.735 458.375C663.81 458.375 668.735 453.451 668.735 447.375C668.735 441.3 663.81 436.375 657.735 436.375C651.66 436.375 646.735 441.3 646.735 447.375C646.735 453.451 651.66 458.375 657.735 458.375Z" fill="#3F3D56"/>
<path d="M461.715 266.044L461.755 396.706" stroke="#3F3D56" stroke-width="2" stroke-miterlimit="10"/>
<path d="M453.538 272.674L455.003 274.038L461.714 266.812L468.431 274.034L469.895 272.669L461.713 263.875L453.538 272.674Z" fill="#3F3D56"/>
<path d="M461.735 342.375C467.81 342.375 472.735 337.451 472.735 331.375C472.735 325.3 467.81 320.375 461.735 320.375C455.66 320.375 450.735 325.3 450.735 331.375C450.735 337.451 455.66 342.375 461.735 342.375Z" fill="#3F3D56"/>
<path d="M551 0H369V226H551V0Z" fill="#615E7B"/>
<path d="M448.621 84.1345H407.318C404.499 67.8399 404.499 51.1824 407.318 34.8878H448.621C443.968 50.9736 443.968 68.0487 448.621 84.1345V84.1345Z" fill="#EEE857"/>
<path d="M471.379 109.112H512.683C515.501 92.8176 515.501 76.1601 512.683 59.8655H471.379C476.032 75.9513 476.032 93.0264 471.379 109.112V109.112Z" fill="#B15A5A"/>
<path d="M432.379 191.112H473.683C476.501 174.818 476.501 158.16 473.683 141.866H432.379C437.032 157.951 437.032 175.026 432.379 191.112V191.112Z" fill="#B15A5A"/>
<path d="M930 215H748V441H930V215Z" fill="#615E7B"/>
<path d="M904 263H774V269H904V263Z" fill="#B15A5A"/>
<path d="M904 284H774V290H904V284Z" fill="#B15A5A"/>
<path d="M904 305H774V311H904V305Z" fill="#B15A5A"/>
<path d="M904 326H774V332H904V326Z" fill="#B15A5A"/>
<path d="M904 347H774V353H904V347Z" fill="#B15A5A"/>
<path d="M873 369H805V393H873V369Z" fill="#B15A5A"/>
<path d="M567 447H385V673H567V447Z" fill="#615E7B"/>
<path d="M541.296 572.806H411.296V578.806H541.296V572.806Z" fill="#B15A5A"/>
<path d="M541.296 593.806H411.296V599.806H541.296V593.806Z" fill="#B15A5A"/>
<path d="M541.296 614.806H411.296V620.806H541.296V614.806Z" fill="#B15A5A"/>
<path d="M541.296 635.806H411.296V641.806H541.296V635.806Z" fill="#B15A5A"/>
<path opacity="0.3" d="M451.121 527.441H409.818C406.999 511.146 406.999 494.488 409.818 478.194H451.121C446.468 494.28 446.468 511.355 451.121 527.441V527.441Z" fill="#793D3D"/>
<path opacity="0.3" d="M544.296 482.806H468.296V487.806H544.296V482.806Z" fill="#793D3D"/>
<path opacity="0.3" d="M544.296 500.806H468.296V505.806H544.296V500.806Z" fill="#793D3D"/>
<path opacity="0.3" d="M544.296 518.806H468.296V523.806H544.296V518.806Z" fill="#793D3D"/>
<path opacity="0.3" d="M544.296 536.806H468.296V541.806H544.296V536.806Z" fill="#793D3D"/>
<ellipse rx="4.97385" ry="12.1127" transform="matrix(0.992504 0.122211 -0.121528 0.992588 129.671 753.369)" fill="#EEE857"/>
<ellipse cx="136.302" cy="753.369" rx="4.97364" ry="12.1132" fill="#EEE857"/>
<ellipse rx="4.97385" ry="12.1127" transform="matrix(0.992504 -0.122211 0.121529 0.992588 143.408 753.369)" fill="#EEE857"/>
<ellipse rx="4.97385" ry="12.1127" transform="matrix(0.992504 0.122211 -0.121528 0.992588 164.25 753.369)" fill="#EEE857"/>
<ellipse cx="170.881" cy="753.369" rx="4.97364" ry="12.1132" fill="#EEE857"/>
<ellipse rx="4.97386" ry="12.1127" transform="matrix(0.992504 -0.122211 0.121529 0.992588 177.987 753.369)" fill="#EEE857"/>
<ellipse cx="154.289" cy="679.222" rx="74.131" ry="74.3419" fill="#793D3D"/>
<path d="M223.209 686.251C223.209 730.248 191.97 756.414 154.043 756.414C116.115 756.414 85.3682 730.248 85.3682 686.251C85.3682 642.253 116.115 604.88 154.043 604.88C191.97 604.88 223.209 642.253 223.209 686.251Z" fill="#B15A5A"/>
<path fill-rule="evenodd" clip-rule="evenodd" d="M108.979 640.576C114.639 636.889 117.805 630.012 116.442 622.967C115.08 615.926 109.585 610.743 102.967 609.451C97.3071 613.138 94.1408 620.015 95.5039 627.06C96.8663 634.101 102.361 639.284 108.979 640.576Z" fill="#B15A5A"/>
<path fill-rule="evenodd" clip-rule="evenodd" d="M207.978 609.451C213.638 613.138 216.805 620.015 215.442 627.06C214.079 634.101 208.584 639.284 201.967 640.576C196.306 636.889 193.14 630.012 194.503 622.967C195.865 615.926 201.36 610.743 207.978 609.451Z" fill="#B15A5A"/>
<path d="M154.289 700.361L129.881 667.94H178.697L154.289 700.361Z" fill="#EEE857"/>
<ellipse cx="129.657" cy="658.321" rx="28.6577" ry="28.7392" fill="white"/>
<ellipse cx="179.867" cy="658.321" rx="28.6577" ry="28.7392" fill="white"/>
<path d="M148.762 658.321C148.762 668.909 140.205 677.485 129.657 677.485C119.11 677.485 110.552 668.909 110.552 658.321C110.552 647.733 119.11 639.157 129.657 639.157C140.205 639.157 148.762 647.733 148.762 658.321Z" stroke="#B15A5A" stroke-width="3"/>
<path d="M198.972 658.321C198.972 668.909 190.415 677.485 179.867 677.485C169.32 677.485 160.762 668.909 160.762 658.321C160.762 647.733 169.32 639.157 179.867 639.157C190.415 639.157 198.972 647.733 198.972 658.321Z" stroke="#B15A5A" stroke-width="3"/>
<ellipse cx="129.42" cy="658.083" rx="17.0525" ry="17.101" fill="black"/>
<ellipse cx="179.631" cy="658.083" rx="17.0525" ry="17.101" fill="black"/>
<ellipse cx="121.605" cy="648.345" rx="2.13156" ry="2.13762" fill="white"/>
<ellipse cx="172.762" cy="648.345" rx="2.13157" ry="2.13762" fill="white"/>
</svg>
