<svg width="372" height="140" viewBox="0 0 372 140" fill="none" xmlns="http://www.w3.org/2000/svg">
<g opacity="0.2">
<path d="M82 50C82 53.8333 81.6667 57.1667 81 60H71C71.6667 62.6667 72 66 72 70C72 73.8333 71.6667 77.1667 71 80H81C81.6667 82.6667 82 86 82 90C82 93.8333 81.6667 97.1667 81 100C81.6667 102.667 82 106 82 110C82 113.833 81.6667 117.167 81 120H71C71.6667 122.667 72 126 72 130C72 133.833 71.6667 137.167 71 140H1C0.333333 137.167 0 133.833 0 130C0 126 0.333333 122.667 1 120C0.333333 117.167 0 113.833 0 110C0 106 0.333333 102.667 1 100C0.333333 97.1667 0 93.8333 0 90C0 86 0.333333 82.6667 1 80C0.333333 77.1667 0 73.8333 0 70C0 66 0.333333 62.6667 1 60C0.333333 57.1667 0 53.8333 0 50C0 46 0.333333 42.6667 1 40C0.333333 37.1667 0 33.8333 0 30C0 26 0.333333 22.6667 1 20C0.333333 17.1667 0 13.8333 0 9.99999C0 5.99999 0.333333 2.66666 1 0H71C71.6667 2.66666 72 5.99999 72 9.99999C72 13.8333 71.6667 17.1667 71 20H81C81.6667 22.6667 82 26 82 30C82 33.8333 81.6667 37.1667 81 40C81.6667 42.6667 82 46 82 50ZM61 60C60.3333 57.1667 60 53.8333 60 50C60 46 60.3333 42.6667 61 40C60.3333 37.1667 60 33.8333 60 30C60 26 60.3333 22.6667 61 20H21C21.6667 22.6667 22 26 22 30C22 33.8333 21.6667 37.1667 21 40C21.6667 42.6667 22 46 22 50C22 53.8333 21.6667 57.1667 21 60H61ZM61 100C60.3333 97.1667 60 93.8333 60 90C60 86 60.3333 82.6667 61 80H21C21.6667 82.6667 22 86 22 90C22 93.8333 21.6667 97.1667 21 100C21.6667 102.667 22 106 22 110C22 113.833 21.6667 117.167 21 120H61C60.3333 117.167 60 113.833 60 110C60 106 60.3333 102.667 61 100Z" fill="#169BA5"/>
<path d="M181.098 120C181.764 122.667 182.098 126 182.098 130C182.098 133.833 181.764 137.167 181.098 140H111.098C110.431 137.167 110.098 133.833 110.098 130C110.098 126 110.431 122.667 111.098 120C110.431 117.167 110.098 113.833 110.098 110C110.098 106 110.431 102.667 111.098 100C110.431 97.1667 110.098 93.8333 110.098 90C110.098 86 110.431 82.6667 111.098 80C110.431 77.1667 110.098 73.8333 110.098 70C110.098 66 110.431 62.6667 111.098 60C110.431 57.1667 110.098 53.8333 110.098 50C110.098 46 110.431 42.6667 111.098 40C110.431 37.1667 110.098 33.8333 110.098 30C110.098 26 110.431 22.6667 111.098 20C110.431 17.1667 110.098 13.8333 110.098 9.99999C110.098 5.99999 110.431 2.66666 111.098 0H131.098C131.764 2.66666 132.098 5.99999 132.098 9.99999C132.098 13.8333 131.764 17.1667 131.098 20C131.764 22.6667 132.098 26 132.098 30C132.098 33.8333 131.764 37.1667 131.098 40C131.764 42.6667 132.098 46 132.098 50C132.098 53.8333 131.764 57.1667 131.098 60C131.764 62.6667 132.098 66 132.098 70C132.098 73.8333 131.764 77.1667 131.098 80C131.764 82.6667 132.098 86 132.098 90C132.098 93.8333 131.764 97.1667 131.098 100C131.764 102.667 132.098 106 132.098 110C132.098 113.833 131.764 117.167 131.098 120H181.098Z" fill="#169BA5"/>
<path d="M281.195 60C281.862 62.6667 282.195 66 282.195 70C282.195 73.8333 281.862 77.1667 281.195 80C281.862 82.6667 282.195 86 282.195 90C282.195 93.8333 281.862 97.1667 281.195 100H273.695C274.362 102.667 274.695 106 274.695 110C274.695 113.833 274.362 117.167 273.695 120H261.195C261.862 122.667 262.195 126 262.195 130C262.195 133.833 261.862 137.167 261.195 140H221.195C220.529 137.167 220.195 133.833 220.195 130C220.195 126 220.529 122.667 221.195 120H208.695C208.029 117.167 207.695 113.833 207.695 110C207.695 106 208.029 102.667 208.695 100H201.195C200.529 97.1667 200.195 93.8333 200.195 90C200.195 86 200.529 82.6667 201.195 80C200.529 77.1667 200.195 73.8333 200.195 70C200.195 66 200.529 62.6667 201.195 60C200.529 57.1667 200.195 53.8333 200.195 50C200.195 46 200.529 42.6667 201.195 40H208.695C208.029 37.1667 207.695 33.8333 207.695 30C207.695 26 208.029 22.6667 208.695 20H221.195C220.529 17.1667 220.195 13.8333 220.195 9.99999C220.195 5.99999 220.529 2.66666 221.195 0H261.195C261.862 2.66666 262.195 5.99999 262.195 9.99999C262.195 13.8333 261.862 17.1667 261.195 20H273.695C274.362 22.6667 274.695 26 274.695 30C274.695 33.8333 274.362 37.1667 273.695 40H281.195C281.862 42.6667 282.195 46 282.195 50C282.195 53.8333 281.862 57.1667 281.195 60ZM261.195 100C260.529 97.1667 260.195 93.8333 260.195 90C260.195 86 260.529 82.6667 261.195 80C260.529 77.1667 260.195 73.8333 260.195 70C260.195 66 260.529 62.6667 261.195 60C260.529 57.1667 260.195 53.8333 260.195 50C260.195 46 260.529 42.6667 261.195 40H253.695C253.029 37.1667 252.695 33.8333 252.695 30C252.695 26 253.029 22.6667 253.695 20H228.695C229.362 22.6667 229.695 26 229.695 30C229.695 33.8333 229.362 37.1667 228.695 40H221.195C221.862 42.6667 222.195 46 222.195 50C222.195 53.8333 221.862 57.1667 221.195 60C221.862 62.6667 222.195 66 222.195 70C222.195 73.8333 221.862 77.1667 221.195 80C221.862 82.6667 222.195 86 222.195 90C222.195 93.8333 221.862 97.1667 221.195 100H228.695C229.362 102.667 229.695 106 229.695 110C229.695 113.833 229.362 117.167 228.695 120H253.695C253.029 117.167 252.695 113.833 252.695 110C252.695 106 253.029 102.667 253.695 100H261.195Z" fill="#169BA5"/>
<path d="M381.293 60C381.96 62.6667 382.293 66 382.293 70C382.293 73.8333 381.96 77.1667 381.293 80C381.96 82.6667 382.293 86 382.293 90C382.293 93.8333 381.96 97.1667 381.293 100C381.96 102.667 382.293 106 382.293 110C382.293 113.833 381.96 117.167 381.293 120H371.293C371.96 122.667 372.293 126 372.293 130C372.293 133.833 371.96 137.167 371.293 140H321.293C320.626 137.167 320.293 133.833 320.293 130C320.293 126 320.626 122.667 321.293 120H311.293C310.626 117.167 310.293 113.833 310.293 110C310.293 106 310.626 102.667 311.293 100H301.293C300.626 97.1667 300.293 93.8333 300.293 90C300.293 86 300.626 82.6667 301.293 80C300.626 77.1667 300.293 73.8333 300.293 70C300.293 66 300.626 62.6667 301.293 60C300.626 57.1667 300.293 53.8333 300.293 50C300.293 46 300.626 42.6667 301.293 40H311.293C310.626 37.1667 310.293 33.8333 310.293 30C310.293 26 310.626 22.6667 311.293 20H321.293C320.626 17.1667 320.293 13.8333 320.293 9.99999C320.293 5.99999 320.626 2.66666 321.293 0H371.293C371.96 2.66666 372.293 5.99999 372.293 9.99999C372.293 13.8333 371.96 17.1667 371.293 20H381.293C381.96 22.6667 382.293 26 382.293 30C382.293 33.8333 381.96 37.1667 381.293 40H361.293C360.626 37.1667 360.293 33.8333 360.293 30C360.293 26 360.626 22.6667 361.293 20H331.293C331.96 22.6667 332.293 26 332.293 30C332.293 33.8333 331.96 37.1667 331.293 40H321.293C321.96 42.6667 322.293 46 322.293 50C322.293 53.8333 321.96 57.1667 321.293 60C321.96 62.6667 322.293 66 322.293 70C322.293 73.8333 321.96 77.1667 321.293 80C321.96 82.6667 322.293 86 322.293 90C322.293 93.8333 321.96 97.1667 321.293 100H331.293C331.96 102.667 332.293 106 332.293 110C332.293 113.833 331.96 117.167 331.293 120H361.293C360.626 117.167 360.293 113.833 360.293 110C360.293 106 360.626 102.667 361.293 100C360.626 97.1667 360.293 93.8333 360.293 90C360.293 86 360.626 82.6667 361.293 80H346.293C345.626 77.1667 345.293 73.8333 345.293 70C345.293 66 345.626 62.6667 346.293 60H381.293Z" fill="#169BA5"/>
</g>
</svg>
