<svg width="387" height="113" viewBox="0 0 387 113" fill="none" xmlns="http://www.w3.org/2000/svg">
<rect y="57" width="387" height="56" rx="28" fill="#946464"/>
<path d="M153.621 87.6445C153.484 89.1094 152.98 90.2357 152.107 91.0234C151.235 91.8047 150.05 92.1953 148.553 92.1953C147.544 92.1953 146.648 91.9414 145.867 91.4336C145.092 90.9193 144.49 90.1934 144.061 89.2559C143.631 88.3118 143.413 87.2344 143.406 86.0234V83.8262C143.406 82.6152 143.618 81.5345 144.041 80.584C144.464 79.627 145.066 78.888 145.848 78.3672C146.635 77.8464 147.537 77.5859 148.553 77.5859C150.037 77.5859 151.219 77.9766 152.098 78.7578C152.977 79.5391 153.484 80.6589 153.621 82.1172H153.094C152.944 80.8086 152.488 79.8158 151.727 79.1387C150.965 78.4551 149.907 78.1133 148.553 78.1133C147.173 78.1133 146.056 78.6341 145.203 79.6758C144.357 80.7174 143.934 82.1139 143.934 83.8652V85.9551C143.934 87.0749 144.122 88.0677 144.5 88.9336C144.878 89.793 145.418 90.4635 146.121 90.9453C146.831 91.4271 147.641 91.668 148.553 91.668C149.913 91.668 150.975 91.3327 151.736 90.6621C152.505 89.9915 152.957 88.9857 153.094 87.6445H153.621ZM166.99 85.9551C166.99 87.1855 166.769 88.276 166.326 89.2266C165.89 90.1706 165.265 90.903 164.451 91.4238C163.637 91.9382 162.7 92.1953 161.639 92.1953C160.037 92.1953 158.742 91.6257 157.752 90.4863C156.762 89.347 156.268 87.8105 156.268 85.877V83.8262C156.268 82.6022 156.486 81.515 156.922 80.5645C157.365 79.6139 157.993 78.8815 158.807 78.3672C159.627 77.8464 160.564 77.5859 161.619 77.5859C162.68 77.5859 163.618 77.8464 164.432 78.3672C165.252 78.8815 165.883 79.6172 166.326 80.5742C166.769 81.5247 166.99 82.6087 166.99 83.8262V85.9551ZM166.463 83.8066C166.463 82.0879 166.027 80.7109 165.154 79.6758C164.282 78.6341 163.104 78.1133 161.619 78.1133C160.154 78.1133 158.986 78.6309 158.113 79.666C157.241 80.6947 156.805 82.0977 156.805 83.875V85.9551C156.805 87.0879 157 88.0905 157.391 88.9629C157.788 89.8288 158.351 90.4961 159.08 90.9648C159.809 91.4336 160.662 91.668 161.639 91.668C163.123 91.668 164.298 91.1504 165.164 90.1152C166.03 89.0801 166.463 87.6673 166.463 85.877V83.8066ZM170.77 85.9941V92H170.242V77.7812H174.686C176.137 77.7812 177.264 78.1491 178.064 78.8848C178.872 79.6139 179.275 80.6296 179.275 81.9316C179.275 83.2207 178.882 84.2168 178.094 84.9199C177.312 85.623 176.199 85.9811 174.754 85.9941H170.77ZM170.77 85.4668H174.686C175.968 85.4668 176.964 85.1576 177.674 84.5391C178.39 83.9206 178.748 83.0579 178.748 81.9512C178.748 80.8053 178.39 79.9134 177.674 79.2754C176.964 78.6309 175.968 78.3086 174.686 78.3086H170.77V85.4668ZM186.248 86.1211L191.229 77.7812H191.873L186.512 86.5996V92H185.984V86.5996L180.623 77.7812H181.326L186.248 86.1211ZM195.125 92H194.598V77.7812H195.125V92ZM209.666 92H209.139L199.959 78.6797V92H199.422V77.7812H199.959L209.139 91.0723V77.7812H209.666V92ZM223.602 90.4766C223.243 90.9714 222.615 91.3815 221.717 91.707C220.818 92.0326 219.829 92.1953 218.748 92.1953C217.693 92.1953 216.753 91.9382 215.926 91.4238C215.099 90.9095 214.451 90.1836 213.982 89.2461C213.52 88.3086 213.283 87.2474 213.27 86.0625V83.6211C213.27 82.4557 213.494 81.4108 213.943 80.4863C214.393 79.5618 215.024 78.849 215.838 78.3477C216.652 77.8398 217.566 77.5859 218.582 77.5859C219.995 77.5859 221.144 77.9473 222.029 78.6699C222.921 79.3926 223.439 80.3789 223.582 81.6289H223.055C222.879 80.4961 222.407 79.627 221.639 79.0215C220.87 78.416 219.852 78.1133 218.582 78.1133C217.15 78.1133 215.994 78.6243 215.115 79.6465C214.236 80.6686 213.797 82.013 213.797 83.6797V85.9453C213.797 87.0586 214.002 88.0514 214.412 88.9238C214.829 89.7962 215.411 90.4733 216.16 90.9551C216.915 91.4303 217.778 91.668 218.748 91.668C219.699 91.668 220.581 91.528 221.395 91.248C222.208 90.9681 222.768 90.6296 223.074 90.2324V86.0918H218.729V85.5547H223.602V90.4766ZM231.58 91.5215C231.58 91.3717 231.632 91.2448 231.736 91.1406C231.84 91.0299 231.967 90.9746 232.117 90.9746C232.267 90.9746 232.394 91.0299 232.498 91.1406C232.609 91.2448 232.664 91.3717 232.664 91.5215C232.664 91.6712 232.609 91.7982 232.498 91.9023C232.394 92.0065 232.267 92.0586 232.117 92.0586C231.967 92.0586 231.84 92.0065 231.736 91.9023C231.632 91.7982 231.58 91.6712 231.58 91.5215ZM235.877 91.5215C235.877 91.3717 235.929 91.2448 236.033 91.1406C236.137 91.0299 236.264 90.9746 236.414 90.9746C236.564 90.9746 236.691 91.0299 236.795 91.1406C236.906 91.2448 236.961 91.3717 236.961 91.5215C236.961 91.6712 236.906 91.7982 236.795 91.9023C236.691 92.0065 236.564 92.0586 236.414 92.0586C236.264 92.0586 236.137 92.0065 236.033 91.9023C235.929 91.7982 235.877 91.6712 235.877 91.5215ZM240.174 91.5215C240.174 91.3717 240.226 91.2448 240.33 91.1406C240.434 91.0299 240.561 90.9746 240.711 90.9746C240.861 90.9746 240.988 91.0299 241.092 91.1406C241.202 91.2448 241.258 91.3717 241.258 91.5215C241.258 91.6712 241.202 91.7982 241.092 91.9023C240.988 92.0065 240.861 92.0586 240.711 92.0586C240.561 92.0586 240.434 92.0065 240.33 91.9023C240.226 91.7982 240.174 91.6712 240.174 91.5215Z" fill="white"/>
<path d="M166.4 28.8C166.507 29.2267 166.56 29.76 166.56 30.4C166.56 31.0133 166.507 31.5467 166.4 32H163.2C163.093 31.5467 163.04 31.0133 163.04 30.4C163.04 29.76 163.093 29.2267 163.2 28.8H162C161.893 28.3467 161.84 27.8133 161.84 27.2C161.84 26.56 161.893 26.0267 162 25.6H160.8C160.693 25.1467 160.64 24.6133 160.64 24C160.64 23.36 160.693 22.8267 160.8 22.4H156.8C156.907 22.8267 156.96 23.36 156.96 24C156.96 24.6133 156.907 25.1467 156.8 25.6C156.907 26.0267 156.96 26.56 156.96 27.2C156.96 27.8133 156.907 28.3467 156.8 28.8C156.907 29.2267 156.96 29.76 156.96 30.4C156.96 31.0133 156.907 31.5467 156.8 32H153.6C153.493 31.5467 153.44 31.0133 153.44 30.4C153.44 29.76 153.493 29.2267 153.6 28.8C153.493 28.3467 153.44 27.8133 153.44 27.2C153.44 26.56 153.493 26.0267 153.6 25.6C153.493 25.1467 153.44 24.6133 153.44 24C153.44 23.36 153.493 22.8267 153.6 22.4C153.493 21.9467 153.44 21.4133 153.44 20.8C153.44 20.16 153.493 19.6267 153.6 19.2C153.493 18.7467 153.44 18.2133 153.44 17.6C153.44 16.96 153.493 16.4267 153.6 16C153.493 15.5467 153.44 15.0133 153.44 14.4C153.44 13.76 153.493 13.2267 153.6 12.8C153.493 12.3467 153.44 11.8133 153.44 11.2C153.44 10.56 153.493 10.0267 153.6 9.6H164.8C164.907 10.0267 164.96 10.56 164.96 11.2C164.96 11.8133 164.907 12.3467 164.8 12.8H166.4C166.507 13.2267 166.56 13.76 166.56 14.4C166.56 15.0133 166.507 15.5467 166.4 16H165.6C165.707 16.4267 165.76 16.96 165.76 17.6C165.76 18.2133 165.707 18.7467 165.6 19.2H163.2C163.307 19.6267 163.36 20.16 163.36 20.8C163.36 21.4133 163.307 21.9467 163.2 22.4H164C164.107 22.8267 164.16 23.36 164.16 24C164.16 24.6133 164.107 25.1467 164 25.6H165.2C165.307 26.0267 165.36 26.56 165.36 27.2C165.36 27.8133 165.307 28.3467 165.2 28.8H166.4ZM162.4 19.2C162.293 18.7467 162.24 18.2133 162.24 17.6C162.24 16.96 162.293 16.4267 162.4 16C162.293 15.5467 162.24 15.0133 162.24 14.4C162.24 13.76 162.293 13.2267 162.4 12.8H156.8C156.907 13.2267 156.96 13.76 156.96 14.4C156.96 15.0133 156.907 15.5467 156.8 16C156.907 16.4267 156.96 16.96 156.96 17.6C156.96 18.2133 156.907 18.7467 156.8 19.2H162.4ZM182.416 22.4C182.522 22.8267 182.576 23.36 182.576 24C182.576 24.6133 182.522 25.1467 182.416 25.6C182.522 26.0267 182.576 26.56 182.576 27.2C182.576 27.8133 182.522 28.3467 182.416 28.8H180.816C180.922 29.2267 180.976 29.76 180.976 30.4C180.976 31.0133 180.922 31.5467 180.816 32H171.216C171.109 31.5467 171.056 31.0133 171.056 30.4C171.056 29.76 171.109 29.2267 171.216 28.8H169.616C169.509 28.3467 169.456 27.8133 169.456 27.2C169.456 26.56 169.509 26.0267 169.616 25.6H172.816C172.922 26.0267 172.976 26.56 172.976 27.2C172.976 27.8133 172.922 28.3467 172.816 28.8H179.216C179.109 28.3467 179.056 27.8133 179.056 27.2C179.056 26.56 179.109 26.0267 179.216 25.6C179.109 25.1467 179.056 24.6133 179.056 24C179.056 23.36 179.109 22.8267 179.216 22.4H171.216C171.109 21.9467 171.056 21.4133 171.056 20.8C171.056 20.16 171.109 19.6267 171.216 19.2H169.616C169.509 18.7467 169.456 18.2133 169.456 17.6C169.456 16.96 169.509 16.4267 169.616 16C169.509 15.5467 169.456 15.0133 169.456 14.4C169.456 13.76 169.509 13.2267 169.616 12.8H171.216C171.109 12.3467 171.056 11.8133 171.056 11.2C171.056 10.56 171.109 10.0267 171.216 9.6H180.816C180.922 10.0267 180.976 10.56 180.976 11.2C180.976 11.8133 180.922 12.3467 180.816 12.8H182.416C182.522 13.2267 182.576 13.76 182.576 14.4C182.576 15.0133 182.522 15.5467 182.416 16H179.216C179.109 15.5467 179.056 15.0133 179.056 14.4C179.056 13.76 179.109 13.2267 179.216 12.8H172.816C172.922 13.2267 172.976 13.76 172.976 14.4C172.976 15.0133 172.922 15.5467 172.816 16C172.922 16.4267 172.976 16.96 172.976 17.6C172.976 18.2133 172.922 18.7467 172.816 19.2H180.816C180.922 19.6267 180.976 20.16 180.976 20.8C180.976 21.4133 180.922 21.9467 180.816 22.4H182.416ZM198.591 11.2C198.591 11.8133 198.538 12.3467 198.431 12.8C198.538 13.2267 198.591 13.76 198.591 14.4C198.591 15.0133 198.538 15.5467 198.431 16H196.831C196.938 16.4267 196.991 16.96 196.991 17.6C196.991 18.2133 196.938 18.7467 196.831 19.2H195.231C195.338 19.6267 195.391 20.16 195.391 20.8C195.391 21.4133 195.338 21.9467 195.231 22.4H193.631C193.738 22.8267 193.791 23.36 193.791 24C193.791 24.6133 193.738 25.1467 193.631 25.6C193.738 26.0267 193.791 26.56 193.791 27.2C193.791 27.8133 193.738 28.3467 193.631 28.8C193.738 29.2267 193.791 29.76 193.791 30.4C193.791 31.0133 193.738 31.5467 193.631 32H190.431C190.325 31.5467 190.271 31.0133 190.271 30.4C190.271 29.76 190.325 29.2267 190.431 28.8C190.325 28.3467 190.271 27.8133 190.271 27.2C190.271 26.56 190.325 26.0267 190.431 25.6C190.325 25.1467 190.271 24.6133 190.271 24C190.271 23.36 190.325 22.8267 190.431 22.4H188.831C188.725 21.9467 188.671 21.4133 188.671 20.8C188.671 20.16 188.725 19.6267 188.831 19.2H187.231C187.125 18.7467 187.071 18.2133 187.071 17.6C187.071 16.96 187.125 16.4267 187.231 16H185.631C185.525 15.5467 185.471 15.0133 185.471 14.4C185.471 13.76 185.525 13.2267 185.631 12.8C185.525 12.3467 185.471 11.8133 185.471 11.2C185.471 10.56 185.525 10.0267 185.631 9.6H188.831C188.938 10.0267 188.991 10.56 188.991 11.2C188.991 11.8133 188.938 12.3467 188.831 12.8C188.938 13.2267 188.991 13.76 188.991 14.4C188.991 15.0133 188.938 15.5467 188.831 16H190.431C190.538 16.4267 190.591 16.96 190.591 17.6C190.591 18.2133 190.538 18.7467 190.431 19.2H193.631C193.525 18.7467 193.471 18.2133 193.471 17.6C193.471 16.96 193.525 16.4267 193.631 16H195.231C195.125 15.5467 195.071 15.0133 195.071 14.4C195.071 13.76 195.125 13.2267 195.231 12.8C195.125 12.3467 195.071 11.8133 195.071 11.2C195.071 10.56 195.125 10.0267 195.231 9.6H198.431C198.538 10.0267 198.591 10.56 198.591 11.2ZM214.447 12.8C214.554 13.2267 214.607 13.76 214.607 14.4C214.607 15.0133 214.554 15.5467 214.447 16C214.554 16.4267 214.607 16.96 214.607 17.6C214.607 18.2133 214.554 18.7467 214.447 19.2C214.554 19.6267 214.607 20.16 214.607 20.8C214.607 21.4133 214.554 21.9467 214.447 22.4C214.554 22.8267 214.607 23.36 214.607 24C214.607 24.6133 214.554 25.1467 214.447 25.6C214.554 26.0267 214.607 26.56 214.607 27.2C214.607 27.8133 214.554 28.3467 214.447 28.8C214.554 29.2267 214.607 29.76 214.607 30.4C214.607 31.0133 214.554 31.5467 214.447 32H211.247C211.14 31.5467 211.087 31.0133 211.087 30.4C211.087 29.76 211.14 29.2267 211.247 28.8H209.247C209.14 28.3467 209.087 27.8133 209.087 27.2C209.087 26.56 209.14 26.0267 209.247 25.6H208.047C207.94 25.1467 207.887 24.6133 207.887 24C207.887 23.36 207.94 22.8267 208.047 22.4H206.447C206.34 21.9467 206.287 21.4133 206.287 20.8C206.287 20.16 206.34 19.6267 206.447 19.2H204.847C204.954 19.6267 205.007 20.16 205.007 20.8C205.007 21.4133 204.954 21.9467 204.847 22.4C204.954 22.8267 205.007 23.36 205.007 24C205.007 24.6133 204.954 25.1467 204.847 25.6C204.954 26.0267 205.007 26.56 205.007 27.2C205.007 27.8133 204.954 28.3467 204.847 28.8C204.954 29.2267 205.007 29.76 205.007 30.4C205.007 31.0133 204.954 31.5467 204.847 32H201.647C201.54 31.5467 201.487 31.0133 201.487 30.4C201.487 29.76 201.54 29.2267 201.647 28.8C201.54 28.3467 201.487 27.8133 201.487 27.2C201.487 26.56 201.54 26.0267 201.647 25.6C201.54 25.1467 201.487 24.6133 201.487 24C201.487 23.36 201.54 22.8267 201.647 22.4C201.54 21.9467 201.487 21.4133 201.487 20.8C201.487 20.16 201.54 19.6267 201.647 19.2C201.54 18.7467 201.487 18.2133 201.487 17.6C201.487 16.96 201.54 16.4267 201.647 16C201.54 15.5467 201.487 15.0133 201.487 14.4C201.487 13.76 201.54 13.2267 201.647 12.8C201.54 12.3467 201.487 11.8133 201.487 11.2C201.487 10.56 201.54 10.0267 201.647 9.6H205.647C205.754 10.0267 205.807 10.56 205.807 11.2C205.807 11.8133 205.754 12.3467 205.647 12.8H206.847C206.954 13.2267 207.007 13.76 207.007 14.4C207.007 15.0133 206.954 15.5467 206.847 16H208.047C208.154 16.4267 208.207 16.96 208.207 17.6C208.207 18.2133 208.154 18.7467 208.047 19.2H209.647C209.754 19.6267 209.807 20.16 209.807 20.8C209.807 21.4133 209.754 21.9467 209.647 22.4H211.247C211.14 21.9467 211.087 21.4133 211.087 20.8C211.087 20.16 211.14 19.6267 211.247 19.2C211.14 18.7467 211.087 18.2133 211.087 17.6C211.087 16.96 211.14 16.4267 211.247 16C211.14 15.5467 211.087 15.0133 211.087 14.4C211.087 13.76 211.14 13.2267 211.247 12.8C211.14 12.3467 211.087 11.8133 211.087 11.2C211.087 10.56 211.14 10.0267 211.247 9.6H214.447C214.554 10.0267 214.607 10.56 214.607 11.2C214.607 11.8133 214.554 12.3467 214.447 12.8ZM230.463 25.6C230.569 26.0267 230.623 26.56 230.623 27.2C230.623 27.8133 230.569 28.3467 230.463 28.8H228.863C228.969 29.2267 229.023 29.76 229.023 30.4C229.023 31.0133 228.969 31.5467 228.863 32H220.863C220.756 31.5467 220.703 31.0133 220.703 30.4C220.703 29.76 220.756 29.2267 220.863 28.8H219.263C219.156 28.3467 219.103 27.8133 219.103 27.2C219.103 26.56 219.156 26.0267 219.263 25.6H217.663C217.556 25.1467 217.503 24.6133 217.503 24C217.503 23.36 217.556 22.8267 217.663 22.4C217.556 21.9467 217.503 21.4133 217.503 20.8C217.503 20.16 217.556 19.6267 217.663 19.2C217.556 18.7467 217.503 18.2133 217.503 17.6C217.503 16.96 217.556 16.4267 217.663 16H219.263C219.156 15.5467 219.103 15.0133 219.103 14.4C219.103 13.76 219.156 13.2267 219.263 12.8H220.863C220.756 12.3467 220.703 11.8133 220.703 11.2C220.703 10.56 220.756 10.0267 220.863 9.6H228.863C228.969 10.0267 229.023 10.56 229.023 11.2C229.023 11.8133 228.969 12.3467 228.863 12.8H230.463C230.569 13.2267 230.623 13.76 230.623 14.4C230.623 15.0133 230.569 15.5467 230.463 16H227.263C227.156 15.5467 227.103 15.0133 227.103 14.4C227.103 13.76 227.156 13.2267 227.263 12.8H222.463C222.569 13.2267 222.623 13.76 222.623 14.4C222.623 15.0133 222.569 15.5467 222.463 16H220.863C220.969 16.4267 221.023 16.96 221.023 17.6C221.023 18.2133 220.969 18.7467 220.863 19.2C220.969 19.6267 221.023 20.16 221.023 20.8C221.023 21.4133 220.969 21.9467 220.863 22.4C220.969 22.8267 221.023 23.36 221.023 24C221.023 24.6133 220.969 25.1467 220.863 25.6H222.463C222.569 26.0267 222.623 26.56 222.623 27.2C222.623 27.8133 222.569 28.3467 222.463 28.8H227.263C227.156 28.3467 227.103 27.8133 227.103 27.2C227.103 26.56 227.156 26.0267 227.263 25.6H230.463Z" fill="#696969"/>
<path fill-rule="evenodd" clip-rule="evenodd" d="M256.218 112.876L277.696 56.9167H358.924C374.377 56.9167 386.903 69.4435 386.903 84.8961C386.903 100.349 374.377 112.876 358.924 112.876H256.218Z" fill="#793D3D"/>
</svg>
