<svg width="814" height="702" viewBox="0 0 814 702" fill="none" xmlns="http://www.w3.org/2000/svg">
<g clip-path="url(#clip0)">
<path d="M134.819 114H15V220.387H134.819V114Z" fill="#D0CDE1"/>
<path d="M134.407 305.262H14.5879V411.649H134.407V305.262Z" fill="#D0CDE1"/>
<path d="M519.407 113.766H399.588V220.152H519.407V113.766Z" fill="#D0CDE1"/>
<path d="M519.407 305.262H399.588V411.649H519.407V305.262Z" fill="#D0CDE1"/>
<path d="M328.268 113.766H208.448V220.152H328.268V113.766Z" fill="#3F3D56"/>
<path d="M328.268 305.262H208.448V411.649H328.268V305.262Z" fill="#3F3D56"/>
<path d="M307.604 210.578L230.198 208.826C239.468 178.83 241.467 150.272 232.119 123.958L309.526 125.711C301.696 153.379 301.035 182.584 307.604 210.578Z" fill="#6C63FF"/>
<path d="M250.423 139.769L250.381 141.634L290.483 142.542L290.525 140.677L250.423 139.769Z" fill="white"/>
<path d="M250.254 147.229L250.212 149.095L290.314 150.003L290.356 148.137L250.254 147.229Z" fill="white"/>
<path d="M250.085 154.69L250.043 156.556L290.145 157.464L290.187 155.598L250.085 154.69Z" fill="white"/>
<path d="M249.916 162.151L249.874 164.017L289.976 164.925L290.019 163.059L249.916 162.151Z" fill="white"/>
<path d="M249.747 169.612L249.705 171.478L289.807 172.385L289.85 170.52L249.747 169.612Z" fill="white"/>
<path d="M249.578 177.073L249.536 178.938L289.638 179.846L289.681 177.981L249.578 177.073Z" fill="white"/>
<path d="M249.409 184.534L249.367 186.399L289.469 187.307L289.512 185.442L249.409 184.534Z" fill="white"/>
<path d="M249.24 191.995L249.198 193.86L289.301 194.768L289.343 192.903L249.24 191.995Z" fill="white"/>
<path d="M329.799 129.133C342.203 129.133 352.259 119.077 352.259 106.673C352.259 94.2693 342.203 84.2139 329.799 84.2139C317.395 84.2139 307.34 94.2693 307.34 106.673C307.34 119.077 317.395 129.133 329.799 129.133Z" fill="#6C63FF"/>
<path d="M328.998 117.617L320.492 107.22L321.83 106.126L328.872 114.734L341.179 96.6851L342.606 97.6581L328.998 117.617Z" fill="white"/>
<path d="M371.172 701.257C576.164 701.257 742.343 692.789 742.343 682.344C742.343 671.898 576.164 663.431 371.172 663.431C166.179 663.431 0 671.898 0 682.344C0 692.789 166.179 701.257 371.172 701.257Z" fill="#D0CDE1"/>
<path d="M715.017 652.129L802.571 521.928L715.196 666.136L715.379 680.787C708.987 680.836 702.658 680.729 696.39 680.468L700.733 492.14L700.614 490.687L700.774 490.406L701.189 472.61L605.308 333.401L701.076 459.291L701.416 463.053L704.696 320.764L621.88 176.436L704.932 295.768L704.065 0.981163L704.067 0L704.095 0.964943L709.593 233.296L785.07 138.923L709.84 253.311L711.487 380.585L780.941 256.37L711.742 399.297L712.659 470.068L813.665 297.038L712.966 494.757L715.017 652.129Z" fill="#D0CDE1"/>
<path d="M322.066 564.338L256.909 522.511C280.45 501.739 297.036 478.405 302.767 451.074L367.924 492.901C346.825 512.437 331.044 537.021 322.066 564.338V564.338Z" fill="#6C63FF"/>
<path d="M310.152 474.107L309.145 475.677L342.9 497.346L343.908 495.776L310.152 474.107Z" fill="white"/>
<path d="M306.121 480.387L305.113 481.958L338.869 503.627L339.877 502.057L306.121 480.387Z" fill="white"/>
<path d="M302.089 486.666L301.082 488.236L334.838 509.905L335.845 508.335L302.089 486.666Z" fill="white"/>
<path d="M298.058 492.947L297.05 494.517L330.806 516.186L331.814 514.616L298.058 492.947Z" fill="white"/>
<path d="M294.026 499.226L293.019 500.796L326.775 522.466L327.782 520.895L294.026 499.226Z" fill="white"/>
<path d="M289.995 505.507L288.987 507.077L322.743 528.746L323.751 527.176L289.995 505.507Z" fill="white"/>
<path d="M285.964 511.787L284.956 513.357L318.712 535.026L319.72 533.456L285.964 511.787Z" fill="white"/>
<path d="M281.932 518.067L280.924 519.637L314.68 541.306L315.688 539.736L281.932 518.067Z" fill="white"/>
<path d="M183.497 694.972L199.771 663.431C229.803 668.371 235.104 667.361 261.347 663.954L268.325 698.185C240.259 693.934 211.804 692.856 183.497 694.972Z" fill="#6C63FF"/>
<path d="M251.392 689.284L250.882 671.55L252.746 671.62L253.256 689.354L251.392 689.284Z" fill="white"/>
<path d="M243.935 689.001L243.424 671.267L245.289 671.338L245.799 689.072L243.935 689.001Z" fill="white"/>
<path d="M236.477 688.719L235.967 670.985L237.831 671.055L238.342 688.789L236.477 688.719Z" fill="white"/>
<path d="M229.691 670.702L229.02 688.437L230.884 688.507L231.556 670.773L229.691 670.702Z" fill="white"/>
<path d="M222.234 670.42L221.562 688.154L223.427 688.224L224.099 670.49L222.234 670.42Z" fill="white"/>
<path d="M214.105 687.871L215.959 670.137L217.823 670.208L215.969 687.942L214.105 687.871Z" fill="white"/>
<path d="M206.647 687.589L208.501 669.855L210.366 669.925L208.512 687.659L206.647 687.589Z" fill="white"/>
<path d="M199.19 687.306L201.044 669.572L202.908 669.643L201.054 687.377L199.19 687.306Z" fill="white"/>
<path d="M300.838 420.515L302.02 432.335C302.02 432.335 292.564 466.616 306.749 464.251C320.934 461.887 316.205 432.335 316.205 432.335L313.841 422.879L300.838 420.515Z" fill="#FFB8B8"/>
<path d="M452.144 421.696L450.962 433.517C450.962 433.517 460.419 467.797 446.234 465.433C432.049 463.069 436.777 433.517 436.777 433.517L439.141 424.06L452.144 421.696Z" fill="#FFB8B8"/>
<path d="M334.527 644.518L330.981 669.341L355.805 666.977L352.258 642.154L334.527 644.518Z" fill="#FFB8B8"/>
<path d="M465.738 644.518L469.284 669.341L444.46 666.977L448.007 642.154L465.738 644.518Z" fill="#FFB8B8"/>
<path d="M330.39 408.694C330.39 408.694 324.48 411.058 330.39 500.896L332.754 647.473H356.396L365.852 517.445L378.855 438.245L415.499 541.086L445.051 651.019L468.693 645.109L437.959 504.442C437.959 504.442 443.869 422.878 422.592 408.694C401.314 394.509 330.39 408.694 330.39 408.694Z" fill="#2F2E41"/>
<path d="M336.301 661.658C336.301 661.658 335.81 650.908 333.691 650.373C331.572 649.837 316.205 662.84 316.205 662.84C316.205 662.84 299.656 660.476 300.838 678.207C302.02 695.938 325.662 690.028 325.662 690.028C325.662 690.028 330.39 700.666 339.847 700.666C349.303 700.666 363.488 700.666 364.67 693.574C365.852 686.482 358.76 654.566 356.396 655.748C354.032 656.93 348.121 655.748 348.121 655.748L336.301 661.658Z" fill="#2F2E41"/>
<path d="M463.965 661.658C463.965 661.658 464.455 650.908 466.574 650.373C468.693 649.837 484.06 662.84 484.06 662.84C484.06 662.84 500.609 660.476 499.427 678.207C498.245 695.938 474.603 690.028 474.603 690.028C474.603 690.028 469.875 700.666 460.418 700.666C450.962 700.666 436.777 700.666 435.595 693.574C434.413 686.482 441.505 654.565 443.869 655.748C446.233 656.93 452.144 655.748 452.144 655.748L463.965 661.658Z" fill="#2F2E41"/>
<path d="M376.491 229.018C388.895 229.018 398.951 218.963 398.951 206.559C398.951 194.155 388.895 184.099 376.491 184.099C364.087 184.099 354.032 194.155 354.032 206.559C354.032 218.963 364.087 229.018 376.491 229.018Z" fill="#FFB8B8"/>
<path d="M391.858 210.105C391.858 210.105 393.04 242.021 398.951 245.567C404.861 249.113 363.488 245.567 363.488 245.567L368.217 218.379L391.858 210.105Z" fill="#FFB8B8"/>
<path d="M401.314 242.021C401.314 242.021 380.037 231.382 359.942 238.475C339.847 245.567 329.208 253.842 329.208 253.842L342.211 322.402C342.211 322.402 317.387 412.24 324.48 414.604C331.572 416.968 415.499 407.511 423.774 414.604C432.048 421.696 432.048 406.329 432.048 406.329C432.048 406.329 420.228 376.777 422.592 351.954C424.956 327.13 424.956 318.856 424.956 318.856L437.959 263.298L401.314 242.021Z" fill="#575A89"/>
<path d="M337.483 253.842H329.208C329.208 253.842 316.205 262.116 316.205 273.937C316.205 285.758 304.384 350.772 304.384 350.772L297.292 424.061L317.387 427.607L335.118 330.677L348.121 304.671L337.483 253.842Z" fill="#575A89"/>
<path d="M415.5 263.298H437.959C437.959 263.298 445.051 270.391 448.598 286.94C452.144 303.489 455.69 368.503 455.69 368.503L453.326 427.607H435.595L433.231 350.772L421.41 301.125L415.5 263.298Z" fill="#575A89"/>
<path d="M357.378 205.01L362.133 217.157C364.081 222.135 366.313 227.46 370.88 230.238C376.518 233.668 384.048 231.996 389.503 228.28C394.409 224.939 398.174 220.176 400.294 214.631C402.414 209.087 402.787 203.026 401.362 197.264C399.937 191.502 396.782 186.313 392.323 182.396C387.863 178.479 382.311 176.02 376.413 175.35L376.187 179.416L371.198 175.234C370.829 175.867 370.322 176.408 369.714 176.817C369.105 177.226 368.412 177.492 367.687 177.594C366.961 177.697 366.222 177.634 365.524 177.41C364.827 177.185 364.189 176.806 363.659 176.3C364.969 179.017 363.457 182.33 361.273 184.411C358.589 186.967 350.914 190.04 351.232 194.61C351.445 197.66 356.141 201.849 357.378 205.01Z" fill="#2F2E41"/>
<path d="M59.889 150.56C59.889 151.005 59.8503 151.391 59.773 151.72H60.933C61.0103 152.029 61.049 152.416 61.049 152.88C61.049 153.325 61.0103 153.711 60.933 154.04H60.063C60.1403 154.349 60.179 154.736 60.179 155.2C60.179 155.645 60.1403 156.031 60.063 156.36C60.1403 156.669 60.179 157.056 60.179 157.52C60.179 157.965 60.1403 158.351 60.063 158.68C60.1403 158.989 60.179 159.376 60.179 159.84C60.179 160.285 60.1403 160.671 60.063 161H57.743C57.6657 160.671 57.627 160.285 57.627 159.84C57.627 159.376 57.6657 158.989 57.743 158.68C57.6657 158.351 57.627 157.965 57.627 157.52C57.627 157.056 57.6657 156.669 57.743 156.36C57.6657 156.031 57.627 155.645 57.627 155.2C57.627 154.736 57.6657 154.349 57.743 154.04C57.6657 153.711 57.627 153.325 57.627 152.88C57.627 152.416 57.6657 152.029 57.743 151.72C57.6657 151.391 57.627 151.005 57.627 150.56C57.627 150.096 57.6657 149.709 57.743 149.4H59.773C59.8503 149.709 59.889 150.096 59.889 150.56ZM67.023 154.04C67.1003 154.349 67.139 154.736 67.139 155.2C67.139 155.645 67.1003 156.031 67.023 156.36C67.1003 156.669 67.139 157.056 67.139 157.52C67.139 157.965 67.1003 158.351 67.023 158.68C67.1003 158.989 67.139 159.376 67.139 159.84C67.139 160.285 67.1003 160.671 67.023 161H64.703C64.6257 160.671 64.587 160.285 64.587 159.84C64.587 159.376 64.6257 158.989 64.703 158.68C64.6257 158.351 64.587 157.965 64.587 157.52C64.587 157.056 64.6257 156.669 64.703 156.36C64.6257 156.031 64.587 155.645 64.587 155.2C64.587 154.736 64.6257 154.349 64.703 154.04C64.6257 153.711 64.587 153.325 64.587 152.88C64.587 152.416 64.6257 152.029 64.703 151.72H60.933C60.8557 151.391 60.817 151.005 60.817 150.56C60.817 150.096 60.8557 149.709 60.933 149.4H65.573C65.6503 149.709 65.689 150.096 65.689 150.56C65.689 151.005 65.6503 151.391 65.573 151.72H67.023C67.1003 152.029 67.139 152.416 67.139 152.88C67.139 153.325 67.1003 153.711 67.023 154.04ZM78.7503 155.2C78.7503 155.645 78.7117 156.031 78.6343 156.36H77.4743C77.5517 156.669 77.5903 157.056 77.5903 157.52C77.5903 157.965 77.5517 158.351 77.4743 158.68H76.3143C76.3917 158.989 76.4303 159.376 76.4303 159.84C76.4303 160.285 76.3917 160.671 76.3143 161H71.6743C71.7517 161.309 71.7903 161.696 71.7903 162.16C71.7903 162.605 71.7517 162.991 71.6743 163.32C71.7517 163.629 71.7903 164.016 71.7903 164.48C71.7903 164.925 71.7517 165.311 71.6743 165.64H69.3543C69.277 165.311 69.2383 164.925 69.2383 164.48C69.2383 164.016 69.277 163.629 69.3543 163.32C69.277 162.991 69.2383 162.605 69.2383 162.16C69.2383 161.696 69.277 161.309 69.3543 161C69.277 160.671 69.2383 160.285 69.2383 159.84C69.2383 159.376 69.277 158.989 69.3543 158.68C69.277 158.351 69.2383 157.965 69.2383 157.52C69.2383 157.056 69.277 156.669 69.3543 156.36C69.277 156.031 69.2383 155.645 69.2383 155.2C69.2383 154.736 69.277 154.349 69.3543 154.04C69.277 153.711 69.2383 153.325 69.2383 152.88C69.2383 152.416 69.277 152.029 69.3543 151.72C69.277 151.391 69.2383 151.005 69.2383 150.56C69.2383 150.096 69.277 149.709 69.3543 149.4H71.6743C71.7517 149.709 71.7903 150.096 71.7903 150.56C71.7903 151.005 71.7517 151.391 71.6743 151.72H72.8343C72.9117 152.029 72.9503 152.416 72.9503 152.88C72.9503 153.325 72.9117 153.711 72.8343 154.04H71.6743C71.7517 154.349 71.7903 154.736 71.7903 155.2C71.7903 155.645 71.7517 156.031 71.6743 156.36C71.7517 156.669 71.7903 157.056 71.7903 157.52C71.7903 157.965 71.7517 158.351 71.6743 158.68H75.1543C75.077 158.351 75.0383 157.965 75.0383 157.52C75.0383 157.056 75.077 156.669 75.1543 156.36H76.3143C76.237 156.031 76.1983 155.645 76.1983 155.2C76.1983 154.736 76.237 154.349 76.3143 154.04H75.1543C75.077 153.711 75.0383 153.325 75.0383 152.88C75.0383 152.416 75.077 152.029 75.1543 151.72H72.8343C72.757 151.391 72.7183 151.005 72.7183 150.56C72.7183 150.096 72.757 149.709 72.8343 149.4H76.3143C76.3917 149.709 76.4303 150.096 76.4303 150.56C76.4303 151.005 76.3917 151.391 76.3143 151.72H77.4743C77.5517 152.029 77.5903 152.416 77.5903 152.88C77.5903 153.325 77.5517 153.711 77.4743 154.04H78.6343C78.7117 154.349 78.7503 154.736 78.7503 155.2ZM82.5317 150.56C82.5317 151.005 82.493 151.391 82.4157 151.72H83.2857C83.363 152.029 83.4017 152.416 83.4017 152.88C83.4017 153.325 83.363 153.711 83.2857 154.04C83.363 154.349 83.4017 154.736 83.4017 155.2C83.4017 155.645 83.363 156.031 83.2857 156.36C83.363 156.669 83.4017 157.056 83.4017 157.52C83.4017 157.965 83.363 158.351 83.2857 158.68C83.363 158.989 83.4017 159.376 83.4017 159.84C83.4017 160.285 83.363 160.671 83.2857 161H80.9657C80.8883 160.671 80.8497 160.285 80.8497 159.84C80.8497 159.376 80.8883 158.989 80.9657 158.68C80.8883 158.351 80.8497 157.965 80.8497 157.52C80.8497 157.056 80.8883 156.669 80.9657 156.36C80.8883 156.031 80.8497 155.645 80.8497 155.2C80.8497 154.736 80.8883 154.349 80.9657 154.04C80.8883 153.711 80.8497 153.325 80.8497 152.88C80.8497 152.416 80.8883 152.029 80.9657 151.72C80.8883 151.391 80.8497 151.005 80.8497 150.56C80.8497 150.096 80.8883 149.709 80.9657 149.4H82.4157C82.493 149.709 82.5317 150.096 82.5317 150.56ZM85.7217 150.56C85.7217 151.005 85.683 151.391 85.6057 151.72H86.4757C86.553 152.029 86.5917 152.416 86.5917 152.88C86.5917 153.325 86.553 153.711 86.4757 154.04C86.553 154.349 86.5917 154.736 86.5917 155.2C86.5917 155.645 86.553 156.031 86.4757 156.36C86.553 156.669 86.5917 157.056 86.5917 157.52C86.5917 157.965 86.553 158.351 86.4757 158.68C86.553 158.989 86.5917 159.376 86.5917 159.84C86.5917 160.285 86.553 160.671 86.4757 161H84.7357C84.6583 160.671 84.6197 160.285 84.6197 159.84C84.6197 159.376 84.6583 158.989 84.7357 158.68C84.6583 158.351 84.6197 157.965 84.6197 157.52C84.6197 157.056 84.6583 156.669 84.7357 156.36C84.6583 156.031 84.6197 155.645 84.6197 155.2C84.6197 154.736 84.6583 154.349 84.7357 154.04C84.6583 153.711 84.6197 153.325 84.6197 152.88C84.6197 152.416 84.6583 152.029 84.7357 151.72H83.2857C83.2083 151.391 83.1697 151.005 83.1697 150.56C83.1697 150.096 83.2083 149.709 83.2857 149.4H85.6057C85.683 149.709 85.7217 150.096 85.7217 150.56ZM90.2457 154.04C90.323 154.349 90.3617 154.736 90.3617 155.2C90.3617 155.645 90.323 156.031 90.2457 156.36C90.323 156.669 90.3617 157.056 90.3617 157.52C90.3617 157.965 90.323 158.351 90.2457 158.68C90.323 158.989 90.3617 159.376 90.3617 159.84C90.3617 160.285 90.323 160.671 90.2457 161H87.9257C87.8483 160.671 87.8097 160.285 87.8097 159.84C87.8097 159.376 87.8483 158.989 87.9257 158.68C87.8483 158.351 87.8097 157.965 87.8097 157.52C87.8097 157.056 87.8483 156.669 87.9257 156.36C87.8483 156.031 87.8097 155.645 87.8097 155.2C87.8097 154.736 87.8483 154.349 87.9257 154.04C87.8483 153.711 87.8097 153.325 87.8097 152.88C87.8097 152.416 87.8483 152.029 87.9257 151.72H86.4757C86.3983 151.391 86.3597 151.005 86.3597 150.56C86.3597 150.096 86.3983 149.709 86.4757 149.4H89.0857C89.163 149.709 89.2017 150.096 89.2017 150.56C89.2017 151.005 89.163 151.391 89.0857 151.72H90.2457C90.323 152.029 90.3617 152.416 90.3617 152.88C90.3617 153.325 90.323 153.711 90.2457 154.04ZM60.0573 187.68C60.1347 187.989 60.1733 188.376 60.1733 188.84C60.1733 189.285 60.1347 189.671 60.0573 190H53.0973C53.02 189.671 52.9813 189.285 52.9813 188.84C52.9813 188.376 53.02 187.989 53.0973 187.68H55.4173C55.34 187.351 55.3013 186.965 55.3013 186.52C55.3013 186.056 55.34 185.669 55.4173 185.36C55.34 185.031 55.3013 184.645 55.3013 184.2C55.3013 183.736 55.34 183.349 55.4173 183.04C55.34 182.711 55.3013 182.325 55.3013 181.88C55.3013 181.416 55.34 181.029 55.4173 180.72C55.34 180.391 55.3013 180.005 55.3013 179.56C55.3013 179.096 55.34 178.709 55.4173 178.4C55.34 178.071 55.3013 177.685 55.3013 177.24C55.3013 176.776 55.34 176.389 55.4173 176.08H53.6773C53.6 175.751 53.5613 175.365 53.5613 174.92C53.5613 174.456 53.6 174.069 53.6773 173.76H57.7373C57.8147 174.069 57.8533 174.456 57.8533 174.92C57.8533 175.365 57.8147 175.751 57.7373 176.08C57.8147 176.389 57.8533 176.776 57.8533 177.24C57.8533 177.685 57.8147 178.071 57.7373 178.4C57.8147 178.709 57.8533 179.096 57.8533 179.56C57.8533 180.005 57.8147 180.391 57.7373 180.72C57.8147 181.029 57.8533 181.416 57.8533 181.88C57.8533 182.325 57.8147 182.711 57.7373 183.04C57.8147 183.349 57.8533 183.736 57.8533 184.2C57.8533 184.645 57.8147 185.031 57.7373 185.36C57.8147 185.669 57.8533 186.056 57.8533 186.52C57.8533 186.965 57.8147 187.351 57.7373 187.68H60.0573ZM67.0287 176.08C66.9513 175.751 66.9127 175.365 66.9127 174.92C66.9127 174.456 66.9513 174.069 67.0287 173.76H69.3487C69.426 174.069 69.4647 174.456 69.4647 174.92C69.4647 175.365 69.426 175.751 69.3487 176.08H67.0287ZM71.6687 187.68C71.746 187.989 71.7847 188.376 71.7847 188.84C71.7847 189.285 71.746 189.671 71.6687 190H64.7087C64.6313 189.671 64.5927 189.285 64.5927 188.84C64.5927 188.376 64.6313 187.989 64.7087 187.68H67.0287C66.9513 187.351 66.9127 186.965 66.9127 186.52C66.9127 186.056 66.9513 185.669 67.0287 185.36C66.9513 185.031 66.9127 184.645 66.9127 184.2C66.9127 183.736 66.9513 183.349 67.0287 183.04C66.9513 182.711 66.9127 182.325 66.9127 181.88C66.9127 181.416 66.9513 181.029 67.0287 180.72H65.2887C65.2113 180.391 65.1727 180.005 65.1727 179.56C65.1727 179.096 65.2113 178.709 65.2887 178.4H69.3487C69.426 178.709 69.4647 179.096 69.4647 179.56C69.4647 180.005 69.426 180.391 69.3487 180.72C69.426 181.029 69.4647 181.416 69.4647 181.88C69.4647 182.325 69.426 182.711 69.3487 183.04C69.426 183.349 69.4647 183.736 69.4647 184.2C69.4647 184.645 69.426 185.031 69.3487 185.36C69.426 185.669 69.4647 186.056 69.4647 186.52C69.4647 186.965 69.426 187.351 69.3487 187.68H71.6687ZM77.306 179.56C77.306 180.005 77.2673 180.391 77.19 180.72H78.35C78.4273 181.029 78.466 181.416 78.466 181.88C78.466 182.325 78.4273 182.711 78.35 183.04H77.48C77.5573 183.349 77.596 183.736 77.596 184.2C77.596 184.645 77.5573 185.031 77.48 185.36C77.5573 185.669 77.596 186.056 77.596 186.52C77.596 186.965 77.5573 187.351 77.48 187.68C77.5573 187.989 77.596 188.376 77.596 188.84C77.596 189.285 77.5573 189.671 77.48 190H75.16C75.0827 189.671 75.044 189.285 75.044 188.84C75.044 188.376 75.0827 187.989 75.16 187.68C75.0827 187.351 75.044 186.965 75.044 186.52C75.044 186.056 75.0827 185.669 75.16 185.36C75.0827 185.031 75.044 184.645 75.044 184.2C75.044 183.736 75.0827 183.349 75.16 183.04C75.0827 182.711 75.044 182.325 75.044 181.88C75.044 181.416 75.0827 181.029 75.16 180.72C75.0827 180.391 75.044 180.005 75.044 179.56C75.044 179.096 75.0827 178.709 75.16 178.4H77.19C77.2673 178.709 77.306 179.096 77.306 179.56ZM84.44 183.04C84.5173 183.349 84.556 183.736 84.556 184.2C84.556 184.645 84.5173 185.031 84.44 185.36C84.5173 185.669 84.556 186.056 84.556 186.52C84.556 186.965 84.5173 187.351 84.44 187.68C84.5173 187.989 84.556 188.376 84.556 188.84C84.556 189.285 84.5173 189.671 84.44 190H82.12C82.0427 189.671 82.004 189.285 82.004 188.84C82.004 188.376 82.0427 187.989 82.12 187.68C82.0427 187.351 82.004 186.965 82.004 186.52C82.004 186.056 82.0427 185.669 82.12 185.36C82.0427 185.031 82.004 184.645 82.004 184.2C82.004 183.736 82.0427 183.349 82.12 183.04C82.0427 182.711 82.004 182.325 82.004 181.88C82.004 181.416 82.0427 181.029 82.12 180.72H78.35C78.2727 180.391 78.234 180.005 78.234 179.56C78.234 179.096 78.2727 178.709 78.35 178.4H82.99C83.0673 178.709 83.106 179.096 83.106 179.56C83.106 180.005 83.0673 180.391 82.99 180.72H84.44C84.5173 181.029 84.556 181.416 84.556 181.88C84.556 182.325 84.5173 182.711 84.44 183.04ZM96.0513 187.68C96.1287 187.989 96.1673 188.376 96.1673 188.84C96.1673 189.285 96.1287 189.671 96.0513 190H91.9913C91.914 189.671 91.8753 189.285 91.8753 188.84C91.8753 188.376 91.914 187.989 91.9913 187.68H90.8313C90.754 187.351 90.7153 186.965 90.7153 186.52C90.7153 186.056 90.754 185.669 90.8313 185.36H89.0913C89.1687 185.669 89.2073 186.056 89.2073 186.52C89.2073 186.965 89.1687 187.351 89.0913 187.68C89.1687 187.989 89.2073 188.376 89.2073 188.84C89.2073 189.285 89.1687 189.671 89.0913 190H86.7713C86.694 189.671 86.6553 189.285 86.6553 188.84C86.6553 188.376 86.694 187.989 86.7713 187.68C86.694 187.351 86.6553 186.965 86.6553 186.52C86.6553 186.056 86.694 185.669 86.7713 185.36C86.694 185.031 86.6553 184.645 86.6553 184.2C86.6553 183.736 86.694 183.349 86.7713 183.04C86.694 182.711 86.6553 182.325 86.6553 181.88C86.6553 181.416 86.694 181.029 86.7713 180.72C86.694 180.391 86.6553 180.005 86.6553 179.56C86.6553 179.096 86.694 178.709 86.7713 178.4C86.694 178.071 86.6553 177.685 86.6553 177.24C86.6553 176.776 86.694 176.389 86.7713 176.08C86.694 175.751 86.6553 175.365 86.6553 174.92C86.6553 174.456 86.694 174.069 86.7713 173.76H89.0913C89.1687 174.069 89.2073 174.456 89.2073 174.92C89.2073 175.365 89.1687 175.751 89.0913 176.08C89.1687 176.389 89.2073 176.776 89.2073 177.24C89.2073 177.685 89.1687 178.071 89.0913 178.4C89.1687 178.709 89.2073 179.096 89.2073 179.56C89.2073 180.005 89.1687 180.391 89.0913 180.72C89.1687 181.029 89.2073 181.416 89.2073 181.88C89.2073 182.325 89.1687 182.711 89.0913 183.04H90.8313C90.754 182.711 90.7153 182.325 90.7153 181.88C90.7153 181.416 90.754 181.029 90.8313 180.72H91.9913C91.914 180.391 91.8753 180.005 91.8753 179.56C91.8753 179.096 91.914 178.709 91.9913 178.4H95.4713C95.5487 178.709 95.5873 179.096 95.5873 179.56C95.5873 180.005 95.5487 180.391 95.4713 180.72H93.1513C93.2287 181.029 93.2673 181.416 93.2673 181.88C93.2673 182.325 93.2287 182.711 93.1513 183.04H91.9913C92.0687 183.349 92.1073 183.736 92.1073 184.2C92.1073 184.645 92.0687 185.031 91.9913 185.36H93.1513C93.2287 185.669 93.2673 186.056 93.2673 186.52C93.2673 186.965 93.2287 187.351 93.1513 187.68H96.0513Z" fill="#6C63FF"/>
<path d="M38.6107 352.2C38.6107 352.645 38.572 353.031 38.4947 353.36H37.3347C37.412 353.669 37.4507 354.056 37.4507 354.52C37.4507 354.965 37.412 355.351 37.3347 355.68H36.1747C36.252 355.989 36.2907 356.376 36.2907 356.84C36.2907 357.285 36.252 357.671 36.1747 358H31.5347C31.612 358.309 31.6507 358.696 31.6507 359.16C31.6507 359.605 31.612 359.991 31.5347 360.32C31.612 360.629 31.6507 361.016 31.6507 361.48C31.6507 361.925 31.612 362.311 31.5347 362.64H29.2147C29.1374 362.311 29.0987 361.925 29.0987 361.48C29.0987 361.016 29.1374 360.629 29.2147 360.32C29.1374 359.991 29.0987 359.605 29.0987 359.16C29.0987 358.696 29.1374 358.309 29.2147 358C29.1374 357.671 29.0987 357.285 29.0987 356.84C29.0987 356.376 29.1374 355.989 29.2147 355.68C29.1374 355.351 29.0987 354.965 29.0987 354.52C29.0987 354.056 29.1374 353.669 29.2147 353.36C29.1374 353.031 29.0987 352.645 29.0987 352.2C29.0987 351.736 29.1374 351.349 29.2147 351.04C29.1374 350.711 29.0987 350.325 29.0987 349.88C29.0987 349.416 29.1374 349.029 29.2147 348.72C29.1374 348.391 29.0987 348.005 29.0987 347.56C29.0987 347.096 29.1374 346.709 29.2147 346.4H31.5347C31.612 346.709 31.6507 347.096 31.6507 347.56C31.6507 348.005 31.612 348.391 31.5347 348.72H32.6947C32.772 349.029 32.8107 349.416 32.8107 349.88C32.8107 350.325 32.772 350.711 32.6947 351.04H31.5347C31.612 351.349 31.6507 351.736 31.6507 352.2C31.6507 352.645 31.612 353.031 31.5347 353.36C31.612 353.669 31.6507 354.056 31.6507 354.52C31.6507 354.965 31.612 355.351 31.5347 355.68H35.0147C34.9374 355.351 34.8987 354.965 34.8987 354.52C34.8987 354.056 34.9374 353.669 35.0147 353.36H36.1747C36.0974 353.031 36.0587 352.645 36.0587 352.2C36.0587 351.736 36.0974 351.349 36.1747 351.04H35.0147C34.9374 350.711 34.8987 350.325 34.8987 349.88C34.8987 349.416 34.9374 349.029 35.0147 348.72H32.6947C32.6174 348.391 32.5787 348.005 32.5787 347.56C32.5787 347.096 32.6174 346.709 32.6947 346.4H36.1747C36.252 346.709 36.2907 347.096 36.2907 347.56C36.2907 348.005 36.252 348.391 36.1747 348.72H37.3347C37.412 349.029 37.4507 349.416 37.4507 349.88C37.4507 350.325 37.412 350.711 37.3347 351.04H38.4947C38.572 351.349 38.6107 351.736 38.6107 352.2ZM50.106 355.68C50.1833 355.989 50.222 356.376 50.222 356.84C50.222 357.285 50.1833 357.671 50.106 358H47.786C47.7087 357.671 47.67 357.285 47.67 356.84C47.67 356.376 47.7087 355.989 47.786 355.68H46.626C46.5487 355.351 46.51 354.965 46.51 354.52C46.51 354.056 46.5487 353.669 46.626 353.36H43.146C43.2233 353.669 43.262 354.056 43.262 354.52C43.262 354.965 43.2233 355.351 43.146 355.68H46.626C46.7033 355.989 46.742 356.376 46.742 356.84C46.742 357.285 46.7033 357.671 46.626 358H41.986C41.9087 357.671 41.87 357.285 41.87 356.84C41.87 356.376 41.9087 355.989 41.986 355.68H40.826C40.7487 355.351 40.71 354.965 40.71 354.52C40.71 354.056 40.7487 353.669 40.826 353.36H41.986C41.9087 353.031 41.87 352.645 41.87 352.2C41.87 351.736 41.9087 351.349 41.986 351.04H46.626C46.5487 350.711 46.51 350.325 46.51 349.88C46.51 349.416 46.5487 349.029 46.626 348.72H42.566C42.4887 348.391 42.45 348.005 42.45 347.56C42.45 347.096 42.4887 346.709 42.566 346.4H47.786C47.8633 346.709 47.902 347.096 47.902 347.56C47.902 348.005 47.8633 348.391 47.786 348.72H48.946C49.0233 349.029 49.062 349.416 49.062 349.88C49.062 350.325 49.0233 350.711 48.946 351.04C49.0233 351.349 49.062 351.736 49.062 352.2C49.062 352.645 49.0233 353.031 48.946 353.36C49.0233 353.669 49.062 354.056 49.062 354.52C49.062 354.965 49.0233 355.351 48.946 355.68H50.106ZM61.7173 353.36C61.7947 353.669 61.8333 354.056 61.8333 354.52C61.8333 354.965 61.7947 355.351 61.7173 355.68H60.5573C60.6347 355.989 60.6733 356.376 60.6733 356.84C60.6733 357.285 60.6347 357.671 60.5573 358H54.7573C54.68 357.671 54.6413 357.285 54.6413 356.84C54.6413 356.376 54.68 355.989 54.7573 355.68H53.5973C53.52 355.351 53.4813 354.965 53.4813 354.52C53.4813 354.056 53.52 353.669 53.5973 353.36H52.4373C52.36 353.031 52.3213 352.645 52.3213 352.2C52.3213 351.736 52.36 351.349 52.4373 351.04H53.5973C53.52 350.711 53.4813 350.325 53.4813 349.88C53.4813 349.416 53.52 349.029 53.5973 348.72H54.7573C54.68 348.391 54.6413 348.005 54.6413 347.56C54.6413 347.096 54.68 346.709 54.7573 346.4H60.5573C60.6347 346.709 60.6733 347.096 60.6733 347.56C60.6733 348.005 60.6347 348.391 60.5573 348.72H61.7173C61.7947 349.029 61.8333 349.416 61.8333 349.88C61.8333 350.325 61.7947 350.711 61.7173 351.04H59.3973C59.32 350.711 59.2813 350.325 59.2813 349.88C59.2813 349.416 59.32 349.029 59.3973 348.72H55.9173C55.9947 349.029 56.0333 349.416 56.0333 349.88C56.0333 350.325 55.9947 350.711 55.9173 351.04H54.7573C54.8347 351.349 54.8733 351.736 54.8733 352.2C54.8733 352.645 54.8347 353.031 54.7573 353.36H55.9173C55.9947 353.669 56.0333 354.056 56.0333 354.52C56.0333 354.965 55.9947 355.351 55.9173 355.68H59.3973C59.32 355.351 59.2813 354.965 59.2813 354.52C59.2813 354.056 59.32 353.669 59.3973 353.36H61.7173ZM73.3287 355.68C73.406 355.989 73.4447 356.376 73.4447 356.84C73.4447 357.285 73.406 357.671 73.3287 358H69.2687C69.1913 357.671 69.1527 357.285 69.1527 356.84C69.1527 356.376 69.1913 355.989 69.2687 355.68H68.1087C68.0313 355.351 67.9927 354.965 67.9927 354.52C67.9927 354.056 68.0313 353.669 68.1087 353.36H66.3687C66.446 353.669 66.4847 354.056 66.4847 354.52C66.4847 354.965 66.446 355.351 66.3687 355.68C66.446 355.989 66.4847 356.376 66.4847 356.84C66.4847 357.285 66.446 357.671 66.3687 358H64.0487C63.9713 357.671 63.9327 357.285 63.9327 356.84C63.9327 356.376 63.9713 355.989 64.0487 355.68C63.9713 355.351 63.9327 354.965 63.9327 354.52C63.9327 354.056 63.9713 353.669 64.0487 353.36C63.9713 353.031 63.9327 352.645 63.9327 352.2C63.9327 351.736 63.9713 351.349 64.0487 351.04C63.9713 350.711 63.9327 350.325 63.9327 349.88C63.9327 349.416 63.9713 349.029 64.0487 348.72C63.9713 348.391 63.9327 348.005 63.9327 347.56C63.9327 347.096 63.9713 346.709 64.0487 346.4C63.9713 346.071 63.9327 345.685 63.9327 345.24C63.9327 344.776 63.9713 344.389 64.0487 344.08C63.9713 343.751 63.9327 343.365 63.9327 342.92C63.9327 342.456 63.9713 342.069 64.0487 341.76H66.3687C66.446 342.069 66.4847 342.456 66.4847 342.92C66.4847 343.365 66.446 343.751 66.3687 344.08C66.446 344.389 66.4847 344.776 66.4847 345.24C66.4847 345.685 66.446 346.071 66.3687 346.4C66.446 346.709 66.4847 347.096 66.4847 347.56C66.4847 348.005 66.446 348.391 66.3687 348.72C66.446 349.029 66.4847 349.416 66.4847 349.88C66.4847 350.325 66.446 350.711 66.3687 351.04H68.1087C68.0313 350.711 67.9927 350.325 67.9927 349.88C67.9927 349.416 68.0313 349.029 68.1087 348.72H69.2687C69.1913 348.391 69.1527 348.005 69.1527 347.56C69.1527 347.096 69.1913 346.709 69.2687 346.4H72.7487C72.826 346.709 72.8647 347.096 72.8647 347.56C72.8647 348.005 72.826 348.391 72.7487 348.72H70.4287C70.506 349.029 70.5447 349.416 70.5447 349.88C70.5447 350.325 70.506 350.711 70.4287 351.04H69.2687C69.346 351.349 69.3847 351.736 69.3847 352.2C69.3847 352.645 69.346 353.031 69.2687 353.36H70.4287C70.506 353.669 70.5447 354.056 70.5447 354.52C70.5447 354.965 70.506 355.351 70.4287 355.68H73.3287ZM84.94 355.68C85.0173 355.989 85.056 356.376 85.056 356.84C85.056 357.285 85.0173 357.671 84.94 358H82.62C82.5427 357.671 82.504 357.285 82.504 356.84C82.504 356.376 82.5427 355.989 82.62 355.68H81.46C81.3827 355.351 81.344 354.965 81.344 354.52C81.344 354.056 81.3827 353.669 81.46 353.36H77.98C78.0573 353.669 78.096 354.056 78.096 354.52C78.096 354.965 78.0573 355.351 77.98 355.68H81.46C81.5373 355.989 81.576 356.376 81.576 356.84C81.576 357.285 81.5373 357.671 81.46 358H76.82C76.7427 357.671 76.704 357.285 76.704 356.84C76.704 356.376 76.7427 355.989 76.82 355.68H75.66C75.5827 355.351 75.544 354.965 75.544 354.52C75.544 354.056 75.5827 353.669 75.66 353.36H76.82C76.7427 353.031 76.704 352.645 76.704 352.2C76.704 351.736 76.7427 351.349 76.82 351.04H81.46C81.3827 350.711 81.344 350.325 81.344 349.88C81.344 349.416 81.3827 349.029 81.46 348.72H77.4C77.3227 348.391 77.284 348.005 77.284 347.56C77.284 347.096 77.3227 346.709 77.4 346.4H82.62C82.6973 346.709 82.736 347.096 82.736 347.56C82.736 348.005 82.6973 348.391 82.62 348.72H83.78C83.8573 349.029 83.896 349.416 83.896 349.88C83.896 350.325 83.8573 350.711 83.78 351.04C83.8573 351.349 83.896 351.736 83.896 352.2C83.896 352.645 83.8573 353.031 83.78 353.36C83.8573 353.669 83.896 354.056 83.896 354.52C83.896 354.965 83.8573 355.351 83.78 355.68H84.94ZM96.5513 348.72C96.6287 349.029 96.6673 349.416 96.6673 349.88C96.6673 350.325 96.6287 350.711 96.5513 351.04C96.6287 351.349 96.6673 351.736 96.6673 352.2C96.6673 352.645 96.6287 353.031 96.5513 353.36C96.6287 353.669 96.6673 354.056 96.6673 354.52C96.6673 354.965 96.6287 355.351 96.5513 355.68C96.6287 355.989 96.6673 356.376 96.6673 356.84C96.6673 357.285 96.6287 357.671 96.5513 358H95.3913C95.4687 358.309 95.5073 358.696 95.5073 359.16C95.5073 359.605 95.4687 359.991 95.3913 360.32H94.2313C94.3087 360.629 94.3473 361.016 94.3473 361.48C94.3473 361.925 94.3087 362.311 94.2313 362.64H89.5913C89.514 362.311 89.4753 361.925 89.4753 361.48C89.4753 361.016 89.514 360.629 89.5913 360.32H93.0713C92.994 359.991 92.9553 359.605 92.9553 359.16C92.9553 358.696 92.994 358.309 93.0713 358H94.2313C94.154 357.671 94.1153 357.285 94.1153 356.84C94.1153 356.376 94.154 355.989 94.2313 355.68H93.0713C92.994 355.351 92.9553 354.965 92.9553 354.52C92.9553 354.056 92.994 353.669 93.0713 353.36H94.2313C94.154 353.031 94.1153 352.645 94.1153 352.2C94.1153 351.736 94.154 351.349 94.2313 351.04C94.154 350.711 94.1153 350.325 94.1153 349.88C94.1153 349.416 94.154 349.029 94.2313 348.72H90.4613C90.5387 349.029 90.5773 349.416 90.5773 349.88C90.5773 350.325 90.5387 350.711 90.4613 351.04H89.5913C89.6687 351.349 89.7073 351.736 89.7073 352.2C89.7073 352.645 89.6687 353.031 89.5913 353.36H90.4613C90.5387 353.669 90.5773 354.056 90.5773 354.52C90.5773 354.965 90.5387 355.351 90.4613 355.68H93.0713C93.1487 355.989 93.1873 356.376 93.1873 356.84C93.1873 357.285 93.1487 357.671 93.0713 358H89.5913C89.514 357.671 89.4753 357.285 89.4753 356.84C89.4753 356.376 89.514 355.989 89.5913 355.68H88.1413C88.064 355.351 88.0253 354.965 88.0253 354.52C88.0253 354.056 88.064 353.669 88.1413 353.36H87.2713C87.194 353.031 87.1553 352.645 87.1553 352.2C87.1553 351.736 87.194 351.349 87.2713 351.04H88.1413C88.064 350.711 88.0253 350.325 88.0253 349.88C88.0253 349.416 88.064 349.029 88.1413 348.72H89.5913C89.514 348.391 89.4753 348.005 89.4753 347.56C89.4753 347.096 89.514 346.709 89.5913 346.4H96.5513C96.6287 346.709 96.6673 347.096 96.6673 347.56C96.6673 348.005 96.6287 348.391 96.5513 348.72ZM108.279 349.88C108.279 350.325 108.24 350.711 108.163 351.04C108.24 351.349 108.279 351.736 108.279 352.2C108.279 352.645 108.24 353.031 108.163 353.36H102.073C102.15 353.669 102.189 354.056 102.189 354.52C102.189 354.965 102.15 355.351 102.073 355.68H107.003C107.08 355.989 107.119 356.376 107.119 356.84C107.119 357.285 107.08 357.671 107.003 358H101.203C101.125 357.671 101.087 357.285 101.087 356.84C101.087 356.376 101.125 355.989 101.203 355.68H99.7527C99.6753 355.351 99.6367 354.965 99.6367 354.52C99.6367 354.056 99.6753 353.669 99.7527 353.36H98.8827C98.8053 353.031 98.7667 352.645 98.7667 352.2C98.7667 351.736 98.8053 351.349 98.8827 351.04H99.7527C99.6753 350.711 99.6367 350.325 99.6367 349.88C99.6367 349.416 99.6753 349.029 99.7527 348.72H101.203C101.125 348.391 101.087 348.005 101.087 347.56C101.087 347.096 101.125 346.709 101.203 346.4H107.003C107.08 346.709 107.119 347.096 107.119 347.56C107.119 348.005 107.08 348.391 107.003 348.72H108.163C108.24 349.029 108.279 349.416 108.279 349.88ZM105.843 351.04C105.765 350.711 105.727 350.325 105.727 349.88C105.727 349.416 105.765 349.029 105.843 348.72H102.073C102.15 349.029 102.189 349.416 102.189 349.88C102.189 350.325 102.15 350.711 102.073 351.04H105.843ZM116.7 354.52C116.7 354.965 116.661 355.351 116.584 355.68C116.661 355.989 116.7 356.376 116.7 356.84C116.7 357.285 116.661 357.671 116.584 358H113.684C113.607 357.671 113.568 357.285 113.568 356.84C113.568 356.376 113.607 355.989 113.684 355.68C113.607 355.351 113.568 354.965 113.568 354.52C113.568 354.056 113.607 353.669 113.684 353.36H116.584C116.661 353.669 116.7 354.056 116.7 354.52ZM57.0773 373.08C57 372.751 56.9613 372.365 56.9613 371.92C56.9613 371.456 57 371.069 57.0773 370.76H59.3973C59.4747 371.069 59.5133 371.456 59.5133 371.92C59.5133 372.365 59.4747 372.751 59.3973 373.08H57.0773ZM59.3973 375.4C59.4747 375.709 59.5133 376.096 59.5133 376.56C59.5133 377.005 59.4747 377.391 59.3973 377.72C59.4747 378.029 59.5133 378.416 59.5133 378.88C59.5133 379.325 59.4747 379.711 59.3973 380.04C59.4747 380.349 59.5133 380.736 59.5133 381.2C59.5133 381.645 59.4747 382.031 59.3973 382.36C59.4747 382.669 59.5133 383.056 59.5133 383.52C59.5133 383.965 59.4747 384.351 59.3973 384.68C59.4747 384.989 59.5133 385.376 59.5133 385.84C59.5133 386.285 59.4747 386.671 59.3973 387H58.2373C58.3147 387.309 58.3533 387.696 58.3533 388.16C58.3533 388.605 58.3147 388.991 58.2373 389.32H57.0773C57.1547 389.629 57.1933 390.016 57.1933 390.48C57.1933 390.925 57.1547 391.311 57.0773 391.64H53.5973C53.52 391.311 53.4813 390.925 53.4813 390.48C53.4813 390.016 53.52 389.629 53.5973 389.32H55.9173C55.84 388.991 55.8013 388.605 55.8013 388.16C55.8013 387.696 55.84 387.309 55.9173 387H57.0773C57 386.671 56.9613 386.285 56.9613 385.84C56.9613 385.376 57 384.989 57.0773 384.68C57 384.351 56.9613 383.965 56.9613 383.52C56.9613 383.056 57 382.669 57.0773 382.36C57 382.031 56.9613 381.645 56.9613 381.2C56.9613 380.736 57 380.349 57.0773 380.04C57 379.711 56.9613 379.325 56.9613 378.88C56.9613 378.416 57 378.029 57.0773 377.72H54.7573C54.68 377.391 54.6413 377.005 54.6413 376.56C54.6413 376.096 54.68 375.709 54.7573 375.4H59.3973ZM72.8647 383.52C72.8647 383.965 72.826 384.351 72.7487 384.68H71.5887C71.666 384.989 71.7047 385.376 71.7047 385.84C71.7047 386.285 71.666 386.671 71.5887 387H65.2087C65.1313 386.671 65.0927 386.285 65.0927 385.84C65.0927 385.376 65.1313 384.989 65.2087 384.68H70.4287C70.3513 384.351 70.3127 383.965 70.3127 383.52C70.3127 383.056 70.3513 382.669 70.4287 382.36H65.7887C65.7113 382.031 65.6727 381.645 65.6727 381.2C65.6727 380.736 65.7113 380.349 65.7887 380.04H64.6287C64.5513 379.711 64.5127 379.325 64.5127 378.88C64.5127 378.416 64.5513 378.029 64.6287 377.72H65.7887C65.7113 377.391 65.6727 377.005 65.6727 376.56C65.6727 376.096 65.7113 375.709 65.7887 375.4H72.1687C72.246 375.709 72.2847 376.096 72.2847 376.56C72.2847 377.005 72.246 377.391 72.1687 377.72H66.9487C67.026 378.029 67.0647 378.416 67.0647 378.88C67.0647 379.325 67.026 379.711 66.9487 380.04H71.5887C71.666 380.349 71.7047 380.736 71.7047 381.2C71.7047 381.645 71.666 382.031 71.5887 382.36H72.7487C72.826 382.669 72.8647 383.056 72.8647 383.52ZM85.056 381.2C85.056 381.645 85.0173 382.031 84.94 382.36H84.07C84.1473 382.669 84.186 383.056 84.186 383.52C84.186 383.965 84.1473 384.351 84.07 384.68H82.62C82.6973 384.989 82.736 385.376 82.736 385.84C82.736 386.285 82.6973 386.671 82.62 387H77.98C77.9027 386.671 77.864 386.285 77.864 385.84C77.864 385.376 77.9027 384.989 77.98 384.68H76.53C76.4527 384.351 76.414 383.965 76.414 383.52C76.414 383.056 76.4527 382.669 76.53 382.36H75.66C75.5827 382.031 75.544 381.645 75.544 381.2C75.544 380.736 75.5827 380.349 75.66 380.04H76.53C76.4527 379.711 76.414 379.325 76.414 378.88C76.414 378.416 76.4527 378.029 76.53 377.72H77.98C77.9027 377.391 77.864 377.005 77.864 376.56C77.864 376.096 77.9027 375.709 77.98 375.4H82.62C82.6973 375.709 82.736 376.096 82.736 376.56C82.736 377.005 82.6973 377.391 82.62 377.72H84.07C84.1473 378.029 84.186 378.416 84.186 378.88C84.186 379.325 84.1473 379.711 84.07 380.04H84.94C85.0173 380.349 85.056 380.736 85.056 381.2ZM82.62 382.36C82.5427 382.031 82.504 381.645 82.504 381.2C82.504 380.736 82.5427 380.349 82.62 380.04H81.75C81.6727 379.711 81.634 379.325 81.634 378.88C81.634 378.416 81.6727 378.029 81.75 377.72H78.85C78.9273 378.029 78.966 378.416 78.966 378.88C78.966 379.325 78.9273 379.711 78.85 380.04H77.98C78.0573 380.349 78.096 380.736 78.096 381.2C78.096 381.645 78.0573 382.031 77.98 382.36H78.85C78.9273 382.669 78.966 383.056 78.966 383.52C78.966 383.965 78.9273 384.351 78.85 384.68H81.75C81.6727 384.351 81.634 383.965 81.634 383.52C81.634 383.056 81.6727 382.669 81.75 382.36H82.62ZM89.4173 376.56C89.4173 377.005 89.3787 377.391 89.3013 377.72H90.4613C90.5387 378.029 90.5773 378.416 90.5773 378.88C90.5773 379.325 90.5387 379.711 90.4613 380.04H89.5913C89.6687 380.349 89.7073 380.736 89.7073 381.2C89.7073 381.645 89.6687 382.031 89.5913 382.36C89.6687 382.669 89.7073 383.056 89.7073 383.52C89.7073 383.965 89.6687 384.351 89.5913 384.68C89.6687 384.989 89.7073 385.376 89.7073 385.84C89.7073 386.285 89.6687 386.671 89.5913 387H87.2713C87.194 386.671 87.1553 386.285 87.1553 385.84C87.1553 385.376 87.194 384.989 87.2713 384.68C87.194 384.351 87.1553 383.965 87.1553 383.52C87.1553 383.056 87.194 382.669 87.2713 382.36C87.194 382.031 87.1553 381.645 87.1553 381.2C87.1553 380.736 87.194 380.349 87.2713 380.04C87.194 379.711 87.1553 379.325 87.1553 378.88C87.1553 378.416 87.194 378.029 87.2713 377.72C87.194 377.391 87.1553 377.005 87.1553 376.56C87.1553 376.096 87.194 375.709 87.2713 375.4H89.3013C89.3787 375.709 89.4173 376.096 89.4173 376.56ZM96.5513 380.04C96.6287 380.349 96.6673 380.736 96.6673 381.2C96.6673 381.645 96.6287 382.031 96.5513 382.36C96.6287 382.669 96.6673 383.056 96.6673 383.52C96.6673 383.965 96.6287 384.351 96.5513 384.68C96.6287 384.989 96.6673 385.376 96.6673 385.84C96.6673 386.285 96.6287 386.671 96.5513 387H94.2313C94.154 386.671 94.1153 386.285 94.1153 385.84C94.1153 385.376 94.154 384.989 94.2313 384.68C94.154 384.351 94.1153 383.965 94.1153 383.52C94.1153 383.056 94.154 382.669 94.2313 382.36C94.154 382.031 94.1153 381.645 94.1153 381.2C94.1153 380.736 94.154 380.349 94.2313 380.04C94.154 379.711 94.1153 379.325 94.1153 378.88C94.1153 378.416 94.154 378.029 94.2313 377.72H90.4613C90.384 377.391 90.3453 377.005 90.3453 376.56C90.3453 376.096 90.384 375.709 90.4613 375.4H95.1013C95.1787 375.709 95.2173 376.096 95.2173 376.56C95.2173 377.005 95.1787 377.391 95.1013 377.72H96.5513C96.6287 378.029 96.6673 378.416 96.6673 378.88C96.6673 379.325 96.6287 379.711 96.5513 380.04Z" fill="#6C63FF"/>
<path d="M440.252 174.68C440.329 174.989 440.368 175.376 440.368 175.84C440.368 176.285 440.329 176.671 440.252 177H433.292C433.214 176.671 433.176 176.285 433.176 175.84C433.176 175.376 433.214 174.989 433.292 174.68H435.612C435.534 174.351 435.496 173.965 435.496 173.52C435.496 173.056 435.534 172.669 435.612 172.36C435.534 172.031 435.496 171.645 435.496 171.2C435.496 170.736 435.534 170.349 435.612 170.04C435.534 169.711 435.496 169.325 435.496 168.88C435.496 168.416 435.534 168.029 435.612 167.72C435.534 167.391 435.496 167.005 435.496 166.56C435.496 166.096 435.534 165.709 435.612 165.4C435.534 165.071 435.496 164.685 435.496 164.24C435.496 163.776 435.534 163.389 435.612 163.08H433.872C433.794 162.751 433.756 162.365 433.756 161.92C433.756 161.456 433.794 161.069 433.872 160.76H437.932C438.009 161.069 438.048 161.456 438.048 161.92C438.048 162.365 438.009 162.751 437.932 163.08C438.009 163.389 438.048 163.776 438.048 164.24C438.048 164.685 438.009 165.071 437.932 165.4C438.009 165.709 438.048 166.096 438.048 166.56C438.048 167.005 438.009 167.391 437.932 167.72C438.009 168.029 438.048 168.416 438.048 168.88C438.048 169.325 438.009 169.711 437.932 170.04C438.009 170.349 438.048 170.736 438.048 171.2C438.048 171.645 438.009 172.031 437.932 172.36C438.009 172.669 438.048 173.056 438.048 173.52C438.048 173.965 438.009 174.351 437.932 174.68H440.252ZM453.139 168.88C453.139 169.325 453.1 169.711 453.023 170.04C453.1 170.349 453.139 170.736 453.139 171.2C453.139 171.645 453.1 172.031 453.023 172.36H446.933C447.01 172.669 447.049 173.056 447.049 173.52C447.049 173.965 447.01 174.351 446.933 174.68H451.863C451.94 174.989 451.979 175.376 451.979 175.84C451.979 176.285 451.94 176.671 451.863 177H446.063C445.986 176.671 445.947 176.285 445.947 175.84C445.947 175.376 445.986 174.989 446.063 174.68H444.613C444.536 174.351 444.497 173.965 444.497 173.52C444.497 173.056 444.536 172.669 444.613 172.36H443.743C443.666 172.031 443.627 171.645 443.627 171.2C443.627 170.736 443.666 170.349 443.743 170.04H444.613C444.536 169.711 444.497 169.325 444.497 168.88C444.497 168.416 444.536 168.029 444.613 167.72H446.063C445.986 167.391 445.947 167.005 445.947 166.56C445.947 166.096 445.986 165.709 446.063 165.4H451.863C451.94 165.709 451.979 166.096 451.979 166.56C451.979 167.005 451.94 167.391 451.863 167.72H453.023C453.1 168.029 453.139 168.416 453.139 168.88ZM450.703 170.04C450.626 169.711 450.587 169.325 450.587 168.88C450.587 168.416 450.626 168.029 450.703 167.72H446.933C447.01 168.029 447.049 168.416 447.049 168.88C447.049 169.325 447.01 169.711 446.933 170.04H450.703ZM464.634 167.72C464.712 168.029 464.75 168.416 464.75 168.88C464.75 169.325 464.712 169.711 464.634 170.04H462.314C462.237 169.711 462.198 169.325 462.198 168.88C462.198 168.416 462.237 168.029 462.314 167.72H460.284C460.362 168.029 460.4 168.416 460.4 168.88C460.4 169.325 460.362 169.711 460.284 170.04H459.414C459.492 170.349 459.53 170.736 459.53 171.2C459.53 171.645 459.492 172.031 459.414 172.36C459.492 172.669 459.53 173.056 459.53 173.52C459.53 173.965 459.492 174.351 459.414 174.68H461.154C461.232 174.989 461.27 175.376 461.27 175.84C461.27 176.285 461.232 176.671 461.154 177H455.354C455.277 176.671 455.238 176.285 455.238 175.84C455.238 175.376 455.277 174.989 455.354 174.68H457.094C457.017 174.351 456.978 173.965 456.978 173.52C456.978 173.056 457.017 172.669 457.094 172.36C457.017 172.031 456.978 171.645 456.978 171.2C456.978 170.736 457.017 170.349 457.094 170.04C457.017 169.711 456.978 169.325 456.978 168.88C456.978 168.416 457.017 168.029 457.094 167.72H455.354C455.277 167.391 455.238 167.005 455.238 166.56C455.238 166.096 455.277 165.709 455.354 165.4H458.254C458.332 165.709 458.37 166.096 458.37 166.56C458.37 167.005 458.332 167.391 458.254 167.72H459.414C459.337 167.391 459.298 167.005 459.298 166.56C459.298 166.096 459.337 165.709 459.414 165.4H463.764C463.842 165.709 463.88 166.096 463.88 166.56C463.88 167.005 463.842 167.391 463.764 167.72H464.634ZM469.112 166.56C469.112 167.005 469.073 167.391 468.996 167.72H470.156C470.233 168.029 470.272 168.416 470.272 168.88C470.272 169.325 470.233 169.711 470.156 170.04H469.286C469.363 170.349 469.402 170.736 469.402 171.2C469.402 171.645 469.363 172.031 469.286 172.36C469.363 172.669 469.402 173.056 469.402 173.52C469.402 173.965 469.363 174.351 469.286 174.68C469.363 174.989 469.402 175.376 469.402 175.84C469.402 176.285 469.363 176.671 469.286 177H466.966C466.888 176.671 466.85 176.285 466.85 175.84C466.85 175.376 466.888 174.989 466.966 174.68C466.888 174.351 466.85 173.965 466.85 173.52C466.85 173.056 466.888 172.669 466.966 172.36C466.888 172.031 466.85 171.645 466.85 171.2C466.85 170.736 466.888 170.349 466.966 170.04C466.888 169.711 466.85 169.325 466.85 168.88C466.85 168.416 466.888 168.029 466.966 167.72C466.888 167.391 466.85 167.005 466.85 166.56C466.85 166.096 466.888 165.709 466.966 165.4H468.996C469.073 165.709 469.112 166.096 469.112 166.56ZM476.246 170.04C476.323 170.349 476.362 170.736 476.362 171.2C476.362 171.645 476.323 172.031 476.246 172.36C476.323 172.669 476.362 173.056 476.362 173.52C476.362 173.965 476.323 174.351 476.246 174.68C476.323 174.989 476.362 175.376 476.362 175.84C476.362 176.285 476.323 176.671 476.246 177H473.926C473.848 176.671 473.81 176.285 473.81 175.84C473.81 175.376 473.848 174.989 473.926 174.68C473.848 174.351 473.81 173.965 473.81 173.52C473.81 173.056 473.848 172.669 473.926 172.36C473.848 172.031 473.81 171.645 473.81 171.2C473.81 170.736 473.848 170.349 473.926 170.04C473.848 169.711 473.81 169.325 473.81 168.88C473.81 168.416 473.848 168.029 473.926 167.72H470.156C470.078 167.391 470.04 167.005 470.04 166.56C470.04 166.096 470.078 165.709 470.156 165.4H474.796C474.873 165.709 474.912 166.096 474.912 166.56C474.912 167.005 474.873 167.391 474.796 167.72H476.246C476.323 168.029 476.362 168.416 476.362 168.88C476.362 169.325 476.323 169.711 476.246 170.04ZM487.857 174.68C487.934 174.989 487.973 175.376 487.973 175.84C487.973 176.285 487.934 176.671 487.857 177H485.537C485.46 176.671 485.421 176.285 485.421 175.84C485.421 175.376 485.46 174.989 485.537 174.68H484.377C484.3 174.351 484.261 173.965 484.261 173.52C484.261 173.056 484.3 172.669 484.377 172.36H480.897C480.974 172.669 481.013 173.056 481.013 173.52C481.013 173.965 480.974 174.351 480.897 174.68H484.377C484.454 174.989 484.493 175.376 484.493 175.84C484.493 176.285 484.454 176.671 484.377 177H479.737C479.66 176.671 479.621 176.285 479.621 175.84C479.621 175.376 479.66 174.989 479.737 174.68H478.577C478.5 174.351 478.461 173.965 478.461 173.52C478.461 173.056 478.5 172.669 478.577 172.36H479.737C479.66 172.031 479.621 171.645 479.621 171.2C479.621 170.736 479.66 170.349 479.737 170.04H484.377C484.3 169.711 484.261 169.325 484.261 168.88C484.261 168.416 484.3 168.029 484.377 167.72H480.317C480.24 167.391 480.201 167.005 480.201 166.56C480.201 166.096 480.24 165.709 480.317 165.4H485.537C485.614 165.709 485.653 166.096 485.653 166.56C485.653 167.005 485.614 167.391 485.537 167.72H486.697C486.774 168.029 486.813 168.416 486.813 168.88C486.813 169.325 486.774 169.711 486.697 170.04C486.774 170.349 486.813 170.736 486.813 171.2C486.813 171.645 486.774 172.031 486.697 172.36C486.774 172.669 486.813 173.056 486.813 173.52C486.813 173.965 486.774 174.351 486.697 174.68H487.857Z" fill="#6C63FF"/>
</g>
<defs>
<clipPath id="clip0">
<rect width="813.664" height="701.257" fill="white"/>
</clipPath>
</defs>
</svg>
