<svg width="1041" height="650" viewBox="0 0 1041 650" fill="none" xmlns="http://www.w3.org/2000/svg">
<g clip-path="url(#clip0)">
<path d="M254.48 408.16H169.16C164.278 408.16 160.32 412.118 160.32 417V440.32C160.32 445.202 164.278 449.16 169.16 449.16H254.48C259.362 449.16 263.32 445.202 263.32 440.32V417C263.32 412.118 259.362 408.16 254.48 408.16Z" fill="#D38884"/>
<path d="M666.48 408.16H581.16C576.278 408.16 572.32 412.118 572.32 417V440.32C572.32 445.202 576.278 449.16 581.16 449.16H666.48C671.362 449.16 675.32 445.202 675.32 440.32V417C675.32 412.118 671.362 408.16 666.48 408.16Z" fill="#D38884"/>
<path d="M769.48 408.16H684.16C679.278 408.16 675.32 412.118 675.32 417V440.32C675.32 445.202 679.278 449.16 684.16 449.16H769.48C774.362 449.16 778.32 445.202 778.32 440.32V417C778.32 412.118 774.362 408.16 769.48 408.16Z" fill="#D38884"/>
<path opacity="0.1" d="M769.48 408.16H684.16C679.278 408.16 675.32 412.118 675.32 417V440.32C675.32 445.202 679.278 449.16 684.16 449.16H769.48C774.362 449.16 778.32 445.202 778.32 440.32V417C778.32 412.118 774.362 408.16 769.48 408.16Z" fill="black"/>
<path d="M684.16 408.16H769.48C774.362 408.16 778.32 404.202 778.32 399.32V376C778.32 371.118 774.362 367.16 769.48 367.16H684.16C679.278 367.16 675.32 371.118 675.32 376V399.32C675.32 404.202 679.278 408.16 684.16 408.16Z" fill="#D38884"/>
<path d="M581.16 408.16H666.48C671.362 408.16 675.32 404.202 675.32 399.32V376C675.32 371.118 671.362 367.16 666.48 367.16H581.16C576.278 367.16 572.32 371.118 572.32 376V399.32C572.32 404.202 576.278 408.16 581.16 408.16Z" fill="#D38884"/>
<path opacity="0.1" d="M581.16 408.16H666.48C671.362 408.16 675.32 404.202 675.32 399.32V376C675.32 371.118 671.362 367.16 666.48 367.16H581.16C576.278 367.16 572.32 371.118 572.32 376V399.32C572.32 404.202 576.278 408.16 581.16 408.16Z" fill="black"/>
<path d="M169.16 408.16H254.48C259.362 408.16 263.32 404.202 263.32 399.32V376C263.32 371.118 259.362 367.16 254.48 367.16H169.16C164.278 367.16 160.32 371.118 160.32 376V399.32C160.32 404.202 164.278 408.16 169.16 408.16Z" fill="#D38884"/>
<path opacity="0.1" d="M169.16 408.16H254.48C259.362 408.16 263.32 404.202 263.32 399.32V376C263.32 371.118 259.362 367.16 254.48 367.16H169.16C164.278 367.16 160.32 371.118 160.32 376V399.32C160.32 404.202 164.278 408.16 169.16 408.16Z" fill="black"/>
<path d="M254.48 326.16H169.16C164.278 326.16 160.32 330.118 160.32 335V358.32C160.32 363.202 164.278 367.16 169.16 367.16H254.48C259.362 367.16 263.32 363.202 263.32 358.32V335C263.32 330.118 259.362 326.16 254.48 326.16Z" fill="#D38884"/>
<path d="M666.48 326.16H581.16C576.278 326.16 572.32 330.118 572.32 335V358.32C572.32 363.202 576.278 367.16 581.16 367.16H666.48C671.362 367.16 675.32 363.202 675.32 358.32V335C675.32 330.118 671.362 326.16 666.48 326.16Z" fill="#D38884"/>
<path d="M769.48 326.16H684.16C679.278 326.16 675.32 330.118 675.32 335V358.32C675.32 363.202 679.278 367.16 684.16 367.16H769.48C774.362 367.16 778.32 363.202 778.32 358.32V335C778.32 330.118 774.362 326.16 769.48 326.16Z" fill="#D38884"/>
<path opacity="0.1" d="M769.48 326.16H684.16C679.278 326.16 675.32 330.118 675.32 335V358.32C675.32 363.202 679.278 367.16 684.16 367.16H769.48C774.362 367.16 778.32 363.202 778.32 358.32V335C778.32 330.118 774.362 326.16 769.48 326.16Z" fill="black"/>
<path d="M581.16 326.16H666.48C671.362 326.16 675.32 322.202 675.32 317.32V294C675.32 289.118 671.362 285.16 666.48 285.16H581.16C576.278 285.16 572.32 289.118 572.32 294V317.32C572.32 322.202 576.278 326.16 581.16 326.16Z" fill="#D38884"/>
<path opacity="0.1" d="M581.16 326.16H666.48C671.362 326.16 675.32 322.202 675.32 317.32V294C675.32 289.118 671.362 285.16 666.48 285.16H581.16C576.278 285.16 572.32 289.118 572.32 294V317.32C572.32 322.202 576.278 326.16 581.16 326.16Z" fill="black"/>
<path d="M169.16 326.16H254.48C259.362 326.16 263.32 322.202 263.32 317.32V294C263.32 289.118 259.362 285.16 254.48 285.16H169.16C164.278 285.16 160.32 289.118 160.32 294V317.32C160.32 322.202 164.278 326.16 169.16 326.16Z" fill="#D38884"/>
<path opacity="0.1" d="M169.16 326.16H254.48C259.362 326.16 263.32 322.202 263.32 317.32V294C263.32 289.118 259.362 285.16 254.48 285.16H169.16C164.278 285.16 160.32 289.118 160.32 294V317.32C160.32 322.202 164.278 326.16 169.16 326.16Z" fill="black"/>
<path d="M254.48 246.16H169.16C164.278 246.16 160.32 250.118 160.32 255V278.32C160.32 283.202 164.278 287.16 169.16 287.16H254.48C259.362 287.16 263.32 283.202 263.32 278.32V255C263.32 250.118 259.362 246.16 254.48 246.16Z" fill="#D38884"/>
<path d="M666.48 246.16H581.16C576.278 246.16 572.32 250.118 572.32 255V278.32C572.32 283.202 576.278 287.16 581.16 287.16H666.48C671.362 287.16 675.32 283.202 675.32 278.32V255C675.32 250.118 671.362 246.16 666.48 246.16Z" fill="#D38884"/>
<path d="M581.16 246.16H666.48C671.362 246.16 675.32 242.202 675.32 237.32V214C675.32 209.118 671.362 205.16 666.48 205.16H581.16C576.278 205.16 572.32 209.118 572.32 214V237.32C572.32 242.202 576.278 246.16 581.16 246.16Z" fill="#D38884"/>
<path opacity="0.1" d="M581.16 246.16H666.48C671.362 246.16 675.32 242.202 675.32 237.32V214C675.32 209.118 671.362 205.16 666.48 205.16H581.16C576.278 205.16 572.32 209.118 572.32 214V237.32C572.32 242.202 576.278 246.16 581.16 246.16Z" fill="black"/>
<path d="M478.16 246.16H563.48C568.362 246.16 572.32 242.202 572.32 237.32V214C572.32 209.118 568.362 205.16 563.48 205.16H478.16C473.278 205.16 469.32 209.118 469.32 214V237.32C469.32 242.202 473.278 246.16 478.16 246.16Z" fill="#D38884"/>
<path d="M375.16 246.16H460.48C465.362 246.16 469.32 242.202 469.32 237.32V214C469.32 209.118 465.362 205.16 460.48 205.16H375.16C370.278 205.16 366.32 209.118 366.32 214V237.32C366.32 242.202 370.278 246.16 375.16 246.16Z" fill="#D38884"/>
<path opacity="0.1" d="M375.16 246.16H460.48C465.362 246.16 469.32 242.202 469.32 237.32V214C469.32 209.118 465.362 205.16 460.48 205.16H375.16C370.278 205.16 366.32 209.118 366.32 214V237.32C366.32 242.202 370.278 246.16 375.16 246.16Z" fill="black"/>
<path d="M272.16 246.16H357.48C362.362 246.16 366.32 242.202 366.32 237.32V214C366.32 209.118 362.362 205.16 357.48 205.16H272.16C267.278 205.16 263.32 209.118 263.32 214V237.32C263.32 242.202 267.278 246.16 272.16 246.16Z" fill="#D38884"/>
<path d="M169.16 246.16H254.48C259.362 246.16 263.32 242.202 263.32 237.32V214C263.32 209.118 259.362 205.16 254.48 205.16H169.16C164.278 205.16 160.32 209.118 160.32 214V237.32C160.32 242.202 164.278 246.16 169.16 246.16Z" fill="#D38884"/>
<path opacity="0.1" d="M169.16 246.16H254.48C259.362 246.16 263.32 242.202 263.32 237.32V214C263.32 209.118 259.362 205.16 254.48 205.16H169.16C164.278 205.16 160.32 209.118 160.32 214V237.32C160.32 242.202 164.278 246.16 169.16 246.16Z" fill="black"/>
<path d="M254.48 164.16H169.16C164.278 164.16 160.32 168.118 160.32 173V196.32C160.32 201.202 164.278 205.16 169.16 205.16H254.48C259.362 205.16 263.32 201.202 263.32 196.32V173C263.32 168.118 259.362 164.16 254.48 164.16Z" fill="#D38884"/>
<path d="M357.48 164.16H272.16C267.278 164.16 263.32 168.118 263.32 173V196.32C263.32 201.202 267.278 205.16 272.16 205.16H357.48C362.362 205.16 366.32 201.202 366.32 196.32V173C366.32 168.118 362.362 164.16 357.48 164.16Z" fill="#D38884"/>
<path opacity="0.1" d="M357.48 164.16H272.16C267.278 164.16 263.32 168.118 263.32 173V196.32C263.32 201.202 267.278 205.16 272.16 205.16H357.48C362.362 205.16 366.32 201.202 366.32 196.32V173C366.32 168.118 362.362 164.16 357.48 164.16Z" fill="black"/>
<path d="M460.48 164.16H375.16C370.278 164.16 366.32 168.118 366.32 173V196.32C366.32 201.202 370.278 205.16 375.16 205.16H460.48C465.362 205.16 469.32 201.202 469.32 196.32V173C469.32 168.118 465.362 164.16 460.48 164.16Z" fill="#D38884"/>
<path d="M666.48 164.16H581.16C576.278 164.16 572.32 168.118 572.32 173V196.32C572.32 201.202 576.278 205.16 581.16 205.16H666.48C671.362 205.16 675.32 201.202 675.32 196.32V173C675.32 168.118 671.362 164.16 666.48 164.16Z" fill="#D38884"/>
<path d="M769.48 27.5703H676.16C671.278 27.5703 667.32 31.5281 667.32 36.4103V62.9103C667.32 67.7925 671.278 71.7503 676.16 71.7503H769.48C774.362 71.7503 778.32 67.7925 778.32 62.9103V36.4103C778.32 31.5281 774.362 27.5703 769.48 27.5703Z" fill="url(#paint0_linear)"/>
<path d="M680.16 70.1602L765.48 70.1602C770.362 70.1602 774.32 66.2024 774.32 61.3202V38.0002C774.32 33.118 770.362 29.1602 765.48 29.1602L680.16 29.1602C675.278 29.1602 671.32 33.118 671.32 38.0002V61.3202C671.32 66.2024 675.278 70.1602 680.16 70.1602Z" fill="#D38884"/>
<path d="M581.16 164.16H666.48C671.362 164.16 675.32 160.202 675.32 155.32V132C675.32 127.118 671.362 123.16 666.48 123.16L581.16 123.16C576.278 123.16 572.32 127.118 572.32 132V155.32C572.32 160.202 576.278 164.16 581.16 164.16Z" fill="#D38884"/>
<path opacity="0.1" d="M581.16 164.16H666.48C671.362 164.16 675.32 160.202 675.32 155.32V132C675.32 127.118 671.362 123.16 666.48 123.16L581.16 123.16C576.278 123.16 572.32 127.118 572.32 132V155.32C572.32 160.202 576.278 164.16 581.16 164.16Z" fill="black"/>
<rect x="263" y="246" width="309" height="198" rx="8" fill="#BE7A77"/>
<path d="M375.16 164.16H460.48C465.362 164.16 469.32 160.202 469.32 155.32V132C469.32 127.118 465.362 123.16 460.48 123.16L375.16 123.16C370.278 123.16 366.32 127.118 366.32 132V155.32C366.32 160.202 370.278 164.16 375.16 164.16Z" fill="#D38884"/>
<path opacity="0.1" d="M375.16 164.16H460.48C465.362 164.16 469.32 160.202 469.32 155.32V132C469.32 127.118 465.362 123.16 460.48 123.16L375.16 123.16C370.278 123.16 366.32 127.118 366.32 132V155.32C366.32 160.202 370.278 164.16 375.16 164.16Z" fill="black"/>
<path d="M169.16 164.16H254.48C259.362 164.16 263.32 160.202 263.32 155.32V132C263.32 127.118 259.362 123.16 254.48 123.16L169.16 123.16C164.278 123.16 160.32 127.118 160.32 132V155.32C160.32 160.202 164.278 164.16 169.16 164.16Z" fill="#D38884"/>
<path opacity="0.1" d="M169.16 164.16H254.48C259.362 164.16 263.32 160.202 263.32 155.32V132C263.32 127.118 259.362 123.16 254.48 123.16L169.16 123.16C164.278 123.16 160.32 127.118 160.32 132V155.32C160.32 160.202 164.278 164.16 169.16 164.16Z" fill="black"/>
<path d="M499 649.16C774.59 649.16 998 598.344 998 535.66C998 472.976 774.59 422.16 499 422.16C223.41 422.16 0 472.976 0 535.66C0 598.344 223.41 649.16 499 649.16Z" fill="#F5F5F5"/>
<path d="M113.95 484.72C113.95 484.72 122.95 454.31 112.27 431.92C107.743 422.56 106.378 411.983 108.38 401.78C109.368 396.943 110.797 392.206 112.65 387.63" stroke="#535461" stroke-width="2" stroke-miterlimit="10"/>
<path d="M106.03 373.49C106.03 377.22 112.78 388.03 112.78 388.03C112.78 388.03 119.53 377.22 119.53 373.49C119.53 371.7 118.819 369.983 117.553 368.717C116.287 367.451 114.57 366.74 112.78 366.74C110.99 366.74 109.273 367.451 108.007 368.717C106.741 369.983 106.03 371.7 106.03 373.49V373.49Z" fill="#D38884"/>
<path d="M94.87 394.14C96.87 397.27 108.44 402.67 108.44 402.67C108.44 402.67 108.23 389.93 106.2 386.8C105.222 385.308 103.693 384.264 101.948 383.896C100.202 383.528 98.3822 383.866 96.8851 384.836C95.3881 385.806 94.3357 387.329 93.9582 389.072C93.5806 390.816 93.9084 392.638 94.87 394.14Z" fill="#D38884"/>
<path d="M95.3602 429.42C98.6902 431.1 111.36 429.94 111.36 429.94C111.36 429.94 104.75 419.05 101.42 417.37C99.8275 416.608 97.9997 416.5 96.3286 417.07C94.6576 417.64 93.2763 418.842 92.481 420.418C91.6857 421.995 91.5396 423.82 92.0741 425.502C92.6086 427.185 93.7811 428.591 95.3402 429.42H95.3602Z" fill="#D38884"/>
<path d="M101.74 456.03C104.74 458.25 117.44 459.25 117.44 459.25C117.44 459.25 112.76 447.4 109.77 445.18C108.327 444.231 106.575 443.872 104.874 444.176C103.174 444.48 101.655 445.424 100.63 446.814C99.6046 448.205 99.1515 449.935 99.3636 451.649C99.5758 453.364 100.437 454.931 101.77 456.03H101.74Z" fill="#D38884"/>
<path d="M122.61 403.39C119.94 405.99 107.48 408.68 107.48 408.68C107.48 408.68 110.53 396.31 113.2 393.68C113.836 393.062 114.587 392.575 115.41 392.247C116.234 391.92 117.114 391.758 118 391.77C118.887 391.783 119.762 391.97 120.576 392.32C121.39 392.671 122.127 393.179 122.745 393.815C123.363 394.45 123.849 395.201 124.177 396.025C124.505 396.849 124.667 397.729 124.654 398.615C124.642 399.501 124.455 400.376 124.104 401.191C123.753 402.005 123.246 402.742 122.61 403.36V403.39Z" fill="#D38884"/>
<path d="M129.68 434.58C126.35 436.26 113.68 435.1 113.68 435.1C113.68 435.1 120.29 424.21 123.62 422.53C125.207 421.814 127.009 421.739 128.65 422.32C130.291 422.902 131.644 424.095 132.426 425.65C133.209 427.205 133.359 429.003 132.848 430.667C132.336 432.331 131.201 433.733 129.68 434.58V434.58Z" fill="#D38884"/>
<path d="M132.38 465.9C129.38 468.12 116.68 469.12 116.68 469.12C116.68 469.12 121.36 457.27 124.35 455.05C125.794 454.101 127.546 453.742 129.246 454.046C130.947 454.35 132.466 455.294 133.491 456.685C134.516 458.075 134.969 459.805 134.757 461.52C134.545 463.234 133.683 464.802 132.35 465.9H132.38Z" fill="#D38884"/>
<path d="M596.98 312.38C596.98 312.38 629.87 345.27 611.3 394.07C592.73 442.87 643.13 524.07 643.13 524.07C643.13 524.07 642.59 523.99 641.59 523.81C574.04 511.84 540.48 434.58 578.04 377.2C592 355.86 603.47 330.84 596.98 312.38Z" fill="#D38884"/>
<path opacity="0.2" d="M596.98 312.38C596.98 312.38 629.87 345.27 611.3 394.07C592.73 442.87 643.13 524.07 643.13 524.07C643.13 524.07 642.59 523.99 641.59 523.81C574.04 511.84 540.48 434.58 578.04 377.2C592 355.86 603.47 330.84 596.98 312.38Z" fill="black"/>
<path d="M596.98 312.38C596.98 312.38 615.55 352.69 596.98 385.58C578.41 418.47 593.8 510.76 643.16 524.02" stroke="#535461" stroke-miterlimit="10"/>
<path d="M538.41 445.39C538.41 445.39 575.94 439.39 579.36 473.05C582.78 506.71 651.52 511.34 651.52 511.34L650.23 512.2C593.47 549.46 539.23 535.93 547.39 486.46C550.43 468.07 550.16 449.58 538.41 445.39Z" fill="#D38884"/>
<path opacity="0.2" d="M538.41 445.39C538.41 445.39 575.94 439.39 579.36 473.05C582.78 506.71 651.52 511.34 651.52 511.34L650.23 512.2C593.47 549.46 539.23 535.93 547.39 486.46C550.43 468.07 550.16 449.58 538.41 445.39Z" fill="#F5F5F5"/>
<path d="M538.41 445.39C538.41 445.39 567.54 451.78 565.15 478.27C562.76 504.76 608.41 536.51 651.52 511.34" stroke="#535461" stroke-miterlimit="10"/>
<path d="M823.93 522.81C823.93 522.81 768.23 511.67 753.37 496.81C738.51 481.95 671.67 455.96 664.24 474.53C656.81 493.1 563.98 556.24 627.16 567.38C690.34 578.52 775.7 582.23 794.27 574.81C812.84 567.39 823.93 522.81 823.93 522.81Z" fill="#A8A8A8"/>
<path opacity="0.2" d="M627.16 560.48C690.29 571.62 775.7 575.33 794.27 567.91C808.41 562.25 818.27 535.08 822.12 522.43L823.98 522.82C823.98 522.82 812.84 567.38 794.27 574.82C775.7 582.26 690.27 578.53 627.16 567.39C608.94 564.17 603.73 556.62 605.69 547.06C607.16 553.29 613.55 558.08 627.16 560.48Z" fill="black"/>
<path d="M936.63 28.17C935.637 25.6962 934.055 23.5026 932.02 21.78C917.07 8.15996 892.9 12.29 874.34 3.95997C870.06 2.03997 865.68 -0.620033 861.04 0.109967C854.56 1.10997 848.53 8.50996 842.88 5.22996L843.28 6.45997L842.88 6.24997L847.04 18.91C848.64 23.77 850.32 28.77 853.42 32.82C848.83 36.8225 845.317 41.912 843.202 47.6231C841.088 53.3342 840.439 59.4843 841.315 65.511C842.192 71.5376 844.566 77.2482 848.219 82.1203C851.873 86.9925 856.69 90.8707 862.23 93.4C862.43 93.82 862.62 94.25 862.81 94.68L863.34 94.9C864.571 97.7318 865.49 100.689 866.08 103.72C861.27 104.39 852.88 109.72 844.64 117.56L828.16 117.01C817.501 116.654 807.186 113.146 798.52 106.93L749.16 71.48C745.644 71.8263 742.332 73.2914 739.71 75.66C733.59 69.28 728.39 62.66 728.83 58.66C728.83 58.66 705.89 15.73 697.55 37.19C689.21 58.65 713.19 81.19 713.19 81.19L728.4 100.9C727.8 104.356 727.419 107.846 727.26 111.35C746.03 132.82 811.71 152.24 811.71 152.24L821.95 152.74L822.01 153.24C821.38 155.927 821.071 158.68 821.09 161.44C821.09 161.84 821.09 162.25 821.09 162.67C821.09 163.09 821.09 163.22 821.09 163.49C821.61 197.73 826.3 302.49 826.3 302.49C827.21 302.08 828.16 301.71 829.12 301.36L828.39 310.67C828.39 310.67 784.6 316.8 752.28 329.07C719.96 341.34 718.92 355.65 718.92 355.65V481.91C709.69 486.65 695.12 492.91 687.64 489.54C679.52 485.92 675.07 488.96 674.26 492.13C674.106 492.757 674.106 493.413 674.26 494.04C674.329 494.322 674.433 494.594 674.57 494.85V494.91C674.719 495.174 674.904 495.417 675.12 495.63C678.25 498.7 746.02 525.27 761.66 521.18C762.144 521.053 762.619 520.893 763.08 520.7C763.23 520.64 763.36 520.56 763.51 520.49C763.66 520.42 764.09 520.22 764.36 520.06C764.63 519.9 764.67 519.85 764.82 519.75C764.97 519.65 765.29 519.44 765.51 519.27C765.73 519.1 765.8 519.01 765.94 518.88C766.08 518.75 766.35 518.53 766.53 518.33C766.71 518.13 766.79 518.03 766.92 517.88C767.05 517.73 767.28 517.48 767.44 517.26C767.6 517.04 767.66 516.93 767.78 516.77C767.9 516.61 768.1 516.31 768.24 516.07C768.38 515.83 768.43 515.73 768.52 515.55C768.61 515.37 768.8 515.04 768.93 514.77C769.06 514.5 769.09 514.42 769.16 514.24C769.23 514.06 769.41 513.67 769.52 513.38C769.63 513.09 769.64 513.03 769.71 512.85C769.78 512.67 769.93 512.22 770.02 511.85C770.02 511.68 770.11 511.51 770.16 511.34C770.25 510.99 770.35 510.65 770.43 510.34C770.43 510.18 770.5 510.02 770.53 509.86C770.61 509.48 770.69 509.1 770.75 508.72C770.75 508.58 770.75 508.43 770.82 508.29C770.89 507.88 770.95 507.46 771 507.05V506.69C771.05 506.24 771.1 505.79 771.14 505.34V505.06C771.18 504.573 771.21 504.087 771.23 503.6V503.4C771.23 502.88 771.23 502.36 771.23 501.84V501.74C771.211 495.643 770.541 489.565 769.23 483.61V483.61L773.16 376.08C793.639 376.398 814.12 375.644 834.52 373.82L836.76 425.14C836.76 425.14 836.76 458.87 848.23 474.2C858.05 487.32 869.39 545.35 872.45 561.82C868.24 569.82 860.18 579.82 846.14 579.48C846.14 579.48 819.73 577.2 821.22 584.48C821.262 584.671 821.319 584.858 821.39 585.04V585.04C821.473 585.249 821.57 585.453 821.68 585.65V585.65C821.79 585.84 821.91 586.03 822.05 586.23L822.13 586.35C822.28 586.56 822.45 586.78 822.64 587.01V587.06C822.82 587.27 823.01 587.48 823.22 587.69L823.4 587.87C823.64 588.11 823.88 588.35 824.16 588.6C837.71 600.87 916.95 602.91 916.95 602.91V602.63C916.95 602.55 916.95 602.45 916.95 602.34C916.95 598.79 916.43 580.17 911.69 566.15H912.79C912.79 566.15 901.32 462.91 891.94 450.65C891.94 450.65 889.45 396.21 895.07 362.1L896.07 361.72C922.35 351.9 924.22 327.72 921.51 309.96C926.51 311.56 929.43 312.65 929.43 312.65C929.43 312.65 929.34 311.88 929.17 310.51L929.43 310.61C929.43 310.61 928.93 307.36 928.1 302.3C926.22 288.37 922.58 264.03 918.7 252.54C918.07 250.01 917.47 247.85 916.92 246.22C914.681 239.315 913.143 232.203 912.33 224.99C911.268 215.641 910.73 206.239 910.72 196.83C910.805 184.258 911.768 171.708 913.6 159.27C915.19 148.41 916.6 136.05 916.5 127.42C916.61 124.406 916.399 121.389 915.87 118.42C914.48 112.05 908.33 107.91 901.94 105.27C901.53 105.1 901.11 104.96 900.69 104.8C900.85 102.39 901.05 99.65 901.31 96.8C902.076 97.3306 902.941 97.7 903.854 97.8856C904.767 98.0713 905.708 98.0694 906.62 97.88C909.37 97.28 911.34 94.99 913.09 92.88C922.33 81.53 931.82 69.7 935.37 55.6C936.804 49.3033 937.476 42.857 937.37 36.4C937.37 36.0466 937.37 35.6933 937.37 35.34C937.541 32.9251 937.291 30.499 936.63 28.17V28.17Z" fill="url(#paint1_linear)"/>
<path d="M852.5 83.4996C852.5 83.4996 866.5 104.5 863.5 114.5C860.5 124.5 896.5 118.5 896.5 118.5C896.5 118.5 897.5 79.4996 904.5 70.4996C911.5 61.4996 852.5 83.4996 852.5 83.4996Z" fill="#F7C4A7"/>
<path d="M760 97.0001C760 97.0001 731 73.0001 732 64.0001C732 64.0001 710 22.0001 702 43.0001C694 64.0001 717 86.0001 717 86.0001L745 123L760 97.0001Z" fill="#F7C4A7"/>
<path d="M730.5 473.5C730.5 473.5 703.5 490.5 692.5 485.5C681.5 480.5 677.5 488.5 680.5 491.5C683.5 494.5 748.5 520.5 763.5 516.5C778.5 512.5 770.87 479.74 770.87 479.74L730.5 473.5Z" fill="#535461"/>
<path d="M873.5 546.5C873.5 546.5 867 574 844.5 573.5C844.5 573.5 810.5 570.5 823.5 582.5C836.5 594.5 912.5 596.5 912.5 596.5C912.5 596.5 912.5 555.5 898.5 546.5C884.5 537.5 873.5 546.5 873.5 546.5Z" fill="#535461"/>
<path d="M832.5 352.5L835.5 422.5C835.5 422.5 835.5 455.5 846.5 470.5C857.5 485.5 870.5 560.5 870.5 560.5H908.5C908.5 560.5 897.5 459.5 888.5 447.5C888.5 447.5 884.5 358.5 898.5 338.5L832.5 352.5Z" fill="#575988"/>
<path opacity="0.1" d="M832.5 352.5L835.5 422.5C835.5 422.5 835.5 455.5 846.5 470.5C857.5 485.5 870.5 560.5 870.5 560.5H908.5C908.5 560.5 897.5 459.5 888.5 447.5C888.5 447.5 884.5 358.5 898.5 338.5L832.5 352.5Z" fill="black"/>
<path d="M911.5 289.5C911.5 289.5 934.5 344.5 892.5 360.5C850.5 376.5 774.5 374.5 774.5 374.5L770.5 490.5C770.5 490.5 723.5 496.5 722.5 481.5V354.5C722.5 354.5 723.5 340.5 754.5 328.5C785.5 316.5 827.5 310.5 827.5 310.5L829.5 284.5L911.5 289.5Z" fill="#575988"/>
<path opacity="0.1" d="M874.65 108.31C882.638 107.426 890.72 108.568 898.15 111.63C904.28 114.21 910.15 118.26 911.51 124.49C913.09 131.87 911.34 148.42 909.33 162.43C906.11 184.385 905.7 206.661 908.11 228.72C909.11 237.91 910.56 245.92 912.51 249.49C918.51 260.49 924.51 312.49 924.51 312.49C924.51 312.49 858.51 287.49 825.51 302.49C825.51 302.49 821.01 199.99 820.51 166.49C820.12 140.55 853.01 110.99 864.01 109.99C870.45 109.41 868.24 108.98 874.65 108.31Z" fill="black"/>
<path d="M874.65 106.31C882.638 105.426 890.72 106.568 898.15 109.63C904.28 112.21 910.15 116.26 911.51 122.49C913.09 129.87 911.34 146.42 909.33 160.43C906.11 182.385 905.7 204.661 908.11 226.72C908.888 233.772 910.362 240.729 912.51 247.49C917.01 260.99 924.51 310.49 924.51 310.49C924.51 310.49 858.51 285.49 825.51 300.49C825.51 300.49 821.01 197.99 820.51 164.49C820.12 138.55 853.01 108.99 864.01 107.99C870.45 107.41 868.24 106.98 874.65 106.31Z" fill="#84ADD3"/>
<path opacity="0.1" d="M892.5 161.5L821.5 157.5C821.5 157.5 816.98 122.69 827.23 123.05L897.5 125.5C897.5 125.5 912.5 143.5 892.5 161.5Z" fill="black"/>
<path d="M892.5 159.5L811.5 155.5C811.5 155.5 748.5 136.5 730.5 115.5C730.5 115.5 731.5 78.5 751.5 76.5L798.81 111.19C807.079 117.255 816.982 120.691 827.23 121.05L897.5 123.5C897.5 123.5 912.5 141.5 892.5 159.5Z" fill="#84ADD3"/>
<path opacity="0.1" d="M896 87.9996C897.19 78.5196 901.49 75.3696 904.5 71.4996C911.5 62.4996 852.5 84.4996 852.5 84.4996C855.55 89.1845 858.225 94.1031 860.5 99.2096C865.204 101.377 870.321 102.499 875.5 102.5C884.16 102.5 889.78 93.1296 896 87.9996Z" fill="black"/>
<path d="M875.5 101.5C895.382 101.5 911.5 85.3823 911.5 65.5C911.5 45.6177 895.382 29.5 875.5 29.5C855.618 29.5 839.5 45.6177 839.5 65.5C839.5 85.3823 855.618 101.5 875.5 101.5Z" fill="#F7C4A7"/>
<path opacity="0.1" d="M852.77 40.2699C848.94 36.0799 847.09 30.4998 845.35 25.0898L841.35 12.6998C846.77 15.8998 852.55 8.69985 858.77 7.69985C863.22 6.98985 867.43 9.58986 871.53 11.4599C889.33 19.5999 912.53 15.5599 926.85 28.8899C928.807 30.5849 930.324 32.7296 931.27 35.1399C931.931 37.4111 932.201 39.7781 932.07 42.1399C932.187 48.4516 931.559 54.7551 930.2 60.9198C926.8 74.7098 917.7 86.2899 908.83 97.3899C907.15 99.4999 905.26 101.74 902.62 102.33C897.47 103.48 893.49 97.9199 891.5 93.0399C888.864 86.5734 886.919 79.8459 885.7 72.9699C885.18 70.0599 884.77 67.0599 883.32 64.4899C880.22 58.9999 872.58 53.7999 867.94 49.5399C863.3 45.2799 857.03 44.9199 852.77 40.2699Z" fill="black"/>
<path d="M852.77 39.2699C848.94 35.0799 847.09 29.4998 845.35 24.0898L841.35 11.6998C846.77 14.8998 852.55 7.69985 858.77 6.69985C863.22 5.98985 867.43 8.58986 871.53 10.4599C889.33 18.5999 912.53 14.5599 926.85 27.8899C928.807 29.5849 930.324 31.7296 931.27 34.1399C931.931 36.4111 932.201 38.7781 932.07 41.1399C932.187 47.4516 931.559 53.7551 930.2 59.9198C926.8 73.7098 917.7 85.2899 908.83 96.3899C907.15 98.4999 905.26 100.74 902.62 101.33C897.47 102.48 893.49 96.9199 891.5 92.0399C888.864 85.5734 886.919 78.8459 885.7 71.9699C885.18 69.0599 884.77 66.0599 883.32 63.4899C880.22 57.9999 872.58 52.7999 867.94 48.5399C863.3 44.2799 857.03 43.9199 852.77 39.2699Z" fill="#601916"/>
<path d="M885 76C886.657 76 888 73.0899 888 69.5C888 65.9101 886.657 63 885 63C883.343 63 882 65.9101 882 69.5C882 73.0899 883.343 76 885 76Z" fill="#F7C4A7"/>
<path opacity="0.1" d="M903 243C903 243 901 249 891 248C881 247 852 245 852 248" fill="black"/>
<path opacity="0.5" d="M823.5 581.5C821.7 579.84 820.8 578.5 820.59 577.33C820.33 578.63 821.13 580.33 823.5 582.5C836.5 594.5 912.5 596.5 912.5 596.5C912.5 596.5 912.5 596.15 912.5 595.5C912.01 595.49 836.46 593.46 823.5 581.5Z" fill="white"/>
<path opacity="0.5" d="M763.5 514.5C748.5 518.5 683.5 492.5 680.5 489.5C680.1 489.094 679.814 488.591 679.67 488.04C679.497 488.639 679.482 489.273 679.628 489.88C679.773 490.486 680.074 491.045 680.5 491.5C683.5 494.5 748.5 520.5 763.5 516.5C771.22 514.44 772.94 504.77 772.8 495.86C772.65 504.16 770.64 512.58 763.5 514.5Z" fill="white"/>
<path d="M502.09 503.74C502.488 503.74 502.869 503.582 503.151 503.3C503.432 503.019 503.59 502.638 503.59 502.24C503.59 501.842 503.432 501.46 503.151 501.179C502.869 500.898 502.488 500.74 502.09 500.74C501.692 500.74 501.31 500.898 501.029 501.179C500.748 501.46 500.59 501.842 500.59 502.24C500.59 502.638 500.748 503.019 501.029 503.3C501.31 503.582 501.692 503.74 502.09 503.74V503.74Z" fill="#67647E"/>
<path d="M91.4902 477.21C91.4902 477.21 128.81 476.06 140.05 468.05C151.29 460.04 197.45 450.48 200.24 463.32C203.03 476.16 256.33 527.2 214.16 527.58C171.99 527.96 116.27 521.02 105.04 514.18C93.8102 507.34 91.4902 477.21 91.4902 477.21Z" fill="#A8A8A8"/>
<path opacity="0.2" d="M214.95 523.07C172.82 523.41 117.06 516.51 105.83 509.67C97.2802 504.46 93.8302 485.78 92.7402 477.16H91.4902C91.4902 477.16 93.8502 507.26 105.08 514.09C116.31 520.92 172.07 527.88 214.16 527.58C226.32 527.48 230.52 523.16 230.29 516.75C228.64 520.58 224 523 214.95 523.07Z" fill="black"/>
<path d="M946.16 573.16H1031.48C1036.36 573.16 1040.32 569.202 1040.32 564.32V541C1040.32 536.118 1036.36 532.16 1031.48 532.16H946.16C941.278 532.16 937.32 536.118 937.32 541V564.32C937.32 569.202 941.278 573.16 946.16 573.16Z" fill="#D38884"/>
<path opacity="0.1" d="M946.16 573.16H1031.48C1036.36 573.16 1040.32 569.202 1040.32 564.32V541C1040.32 536.118 1036.36 532.16 1031.48 532.16H946.16C941.278 532.16 937.32 536.118 937.32 541V564.32C937.32 569.202 941.278 573.16 946.16 573.16Z" fill="black"/>
<path d="M1031.48 493.16H946.16C941.278 493.16 937.32 497.118 937.32 502V525.32C937.32 530.202 941.278 534.16 946.16 534.16H1031.48C1036.36 534.16 1040.32 530.202 1040.32 525.32V502C1040.32 497.118 1036.36 493.16 1031.48 493.16Z" fill="#D38884"/>
<path d="M946.16 493.16H1031.48C1036.36 493.16 1040.32 489.202 1040.32 484.32V461C1040.32 456.118 1036.36 452.16 1031.48 452.16H946.16C941.278 452.16 937.32 456.118 937.32 461V484.32C937.32 489.202 941.278 493.16 946.16 493.16Z" fill="#D38884"/>
<path opacity="0.1" d="M946.16 493.16H1031.48C1036.36 493.16 1040.32 489.202 1040.32 484.32V461C1040.32 456.118 1036.36 452.16 1031.48 452.16H946.16C941.278 452.16 937.32 456.118 937.32 461V484.32C937.32 489.202 941.278 493.16 946.16 493.16Z" fill="black"/>
<path d="M1031.48 411.16H946.16C941.278 411.16 937.32 415.118 937.32 420V443.32C937.32 448.202 941.278 452.16 946.16 452.16H1031.48C1036.36 452.16 1040.32 448.202 1040.32 443.32V420C1040.32 415.118 1036.36 411.16 1031.48 411.16Z" fill="#D38884"/>
<g filter="url(#filter0_d)">
<path d="M428.317 325L417.751 343.3L407.186 325H372L417.751 404.244L463.503 325H428.317Z" fill="#41B883"/>
<path d="M428.317 324.999L417.752 343.3L407.186 324.999H390.301L417.752 372.545L445.202 324.999H428.317Z" fill="#34495E"/>
</g>
<path d="M360.135 295.135C359.906 297.09 359.183 298.601 357.964 299.667C356.754 300.725 355.141 301.254 353.127 301.254C350.943 301.254 349.191 300.471 347.871 298.905C346.559 297.34 345.903 295.245 345.903 292.621V290.844C345.903 289.126 346.208 287.615 346.817 286.312C347.435 285.008 348.307 284.009 349.433 283.315C350.558 282.613 351.862 282.262 353.343 282.262C355.306 282.262 356.881 282.812 358.065 283.912C359.25 285.004 359.94 286.519 360.135 288.457H357.685C357.473 286.984 357.012 285.918 356.301 285.258C355.598 284.598 354.612 284.268 353.343 284.268C351.785 284.268 350.562 284.843 349.674 285.994C348.794 287.145 348.354 288.783 348.354 290.907V292.697C348.354 294.703 348.772 296.299 349.61 297.483C350.448 298.668 351.62 299.261 353.127 299.261C354.481 299.261 355.518 298.956 356.237 298.347C356.965 297.729 357.448 296.658 357.685 295.135H360.135ZM362.483 294.005C362.483 292.659 362.746 291.449 363.271 290.374C363.804 289.299 364.54 288.47 365.479 287.886C366.427 287.302 367.507 287.01 368.717 287.01C370.587 287.01 372.098 287.657 373.249 288.952C374.409 290.247 374.988 291.969 374.988 294.119V294.284C374.988 295.621 374.73 296.823 374.214 297.89C373.706 298.948 372.974 299.773 372.018 300.365C371.07 300.958 369.978 301.254 368.742 301.254C366.88 301.254 365.369 300.606 364.21 299.312C363.059 298.017 362.483 296.303 362.483 294.17V294.005ZM364.845 294.284C364.845 295.808 365.196 297.031 365.898 297.953C366.609 298.876 367.557 299.337 368.742 299.337C369.936 299.337 370.883 298.871 371.586 297.94C372.288 297.001 372.64 295.689 372.64 294.005C372.64 292.498 372.28 291.28 371.561 290.349C370.85 289.409 369.902 288.939 368.717 288.939C367.557 288.939 366.622 289.401 365.911 290.323C365.2 291.246 364.845 292.566 364.845 294.284ZM384.573 289.371C384.218 289.312 383.833 289.282 383.418 289.282C381.878 289.282 380.832 289.938 380.282 291.25V301H377.934V287.264H380.219L380.257 288.851C381.027 287.623 382.119 287.01 383.532 287.01C383.989 287.01 384.336 287.069 384.573 287.188V289.371ZM392.19 301.254C390.328 301.254 388.813 300.645 387.646 299.426C386.478 298.199 385.894 296.561 385.894 294.513V294.081C385.894 292.718 386.152 291.504 386.668 290.438C387.193 289.363 387.921 288.525 388.852 287.924C389.791 287.314 390.807 287.01 391.898 287.01C393.684 287.01 395.072 287.598 396.062 288.774C397.053 289.951 397.548 291.635 397.548 293.827V294.805H388.242C388.276 296.159 388.67 297.255 389.423 298.093C390.185 298.922 391.149 299.337 392.317 299.337C393.147 299.337 393.849 299.168 394.425 298.829C395 298.491 395.504 298.042 395.936 297.483L397.37 298.601C396.219 300.369 394.493 301.254 392.19 301.254ZM391.898 288.939C390.951 288.939 390.155 289.286 389.512 289.98C388.868 290.666 388.471 291.631 388.318 292.875H395.199V292.697C395.132 291.504 394.81 290.581 394.234 289.93C393.659 289.27 392.88 288.939 391.898 288.939ZM410.243 282.516L416.286 297.598L422.329 282.516H425.49V301H423.053V293.802L423.281 286.032L417.213 301H415.347L409.291 286.07L409.532 293.802V301H407.095V282.516H410.243ZM428.804 294.005C428.804 292.659 429.066 291.449 429.591 290.374C430.124 289.299 430.86 288.47 431.8 287.886C432.748 287.302 433.827 287.01 435.037 287.01C436.908 287.01 438.418 287.657 439.569 288.952C440.729 290.247 441.309 291.969 441.309 294.119V294.284C441.309 295.621 441.05 296.823 440.534 297.89C440.026 298.948 439.294 299.773 438.338 300.365C437.39 300.958 436.298 301.254 435.062 301.254C433.201 301.254 431.69 300.606 430.53 299.312C429.379 298.017 428.804 296.303 428.804 294.17V294.005ZM431.165 294.284C431.165 295.808 431.516 297.031 432.219 297.953C432.93 298.876 433.878 299.337 435.062 299.337C436.256 299.337 437.204 298.871 437.906 297.94C438.609 297.001 438.96 295.689 438.96 294.005C438.96 292.498 438.6 291.28 437.881 290.349C437.17 289.409 436.222 288.939 435.037 288.939C433.878 288.939 432.942 289.401 432.231 290.323C431.521 291.246 431.165 292.566 431.165 294.284ZM443.683 294.018C443.683 291.91 444.182 290.217 445.181 288.939C446.179 287.653 447.487 287.01 449.104 287.01C450.712 287.01 451.985 287.56 452.925 288.66V281.5H455.273V301H453.115L453.001 299.527C452.062 300.678 450.754 301.254 449.078 301.254C447.487 301.254 446.188 300.602 445.181 299.299C444.182 297.995 443.683 296.294 443.683 294.195V294.018ZM446.031 294.284C446.031 295.841 446.353 297.06 446.996 297.94C447.639 298.821 448.528 299.261 449.662 299.261C451.152 299.261 452.239 298.592 452.925 297.255V290.945C452.222 289.65 451.143 289.003 449.688 289.003C448.536 289.003 447.639 289.447 446.996 290.336C446.353 291.225 446.031 292.541 446.031 294.284ZM467.41 299.642C466.496 300.716 465.155 301.254 463.386 301.254C461.922 301.254 460.804 300.831 460.034 299.984C459.272 299.13 458.887 297.868 458.879 296.201V287.264H461.228V296.138C461.228 298.22 462.074 299.261 463.767 299.261C465.561 299.261 466.754 298.592 467.347 297.255V287.264H469.695V301H467.461L467.41 299.642ZM475.827 301H473.479V281.5H475.827V301ZM485.298 301.254C483.436 301.254 481.921 300.645 480.753 299.426C479.585 298.199 479.001 296.561 479.001 294.513V294.081C479.001 292.718 479.259 291.504 479.775 290.438C480.3 289.363 481.028 288.525 481.959 287.924C482.898 287.314 483.914 287.01 485.006 287.01C486.792 287.01 488.18 287.598 489.17 288.774C490.16 289.951 490.655 291.635 490.655 293.827V294.805H481.35C481.383 296.159 481.777 297.255 482.53 298.093C483.292 298.922 484.257 299.337 485.425 299.337C486.254 299.337 486.957 299.168 487.532 298.829C488.108 298.491 488.611 298.042 489.043 297.483L490.478 298.601C489.326 300.369 487.6 301.254 485.298 301.254ZM485.006 288.939C484.058 288.939 483.262 289.286 482.619 289.98C481.976 290.666 481.578 291.631 481.426 292.875H488.307V292.697C488.239 291.504 487.917 290.581 487.342 289.93C486.766 289.27 485.988 288.939 485.006 288.939Z" fill="white"/>
<rect x="160" y="286" width="103" height="163" rx="6" fill="#D38884"/>
<rect x="366" y="123" width="103" height="123" rx="6" fill="#D38884"/>
<rect x="160" y="123" width="103" height="163" rx="6" fill="#BE7A77"/>
</g>
<g filter="url(#filter1_d)">
<path d="M214.651 352L211.152 358.06L207.653 352H196L211.152 378.244L226.304 352H214.651Z" fill="#41B883"/>
<path d="M214.652 352L211.152 358.061L207.653 352H202.061L211.152 367.746L220.244 352H214.652Z" fill="#34495E"/>
</g>
<path d="M185.304 328.336L188.79 337.037L192.276 328.336H194.1V339H192.694V334.847L192.826 330.365L189.325 339H188.248L184.754 330.387L184.894 334.847V339H183.487V328.336H185.304ZM196.012 334.964C196.012 334.188 196.163 333.49 196.466 332.87C196.773 332.25 197.198 331.771 197.74 331.434C198.287 331.097 198.91 330.929 199.608 330.929C200.687 330.929 201.559 331.302 202.223 332.049C202.892 332.796 203.226 333.79 203.226 335.03V335.125C203.226 335.897 203.077 336.59 202.779 337.206C202.486 337.816 202.064 338.292 201.512 338.634C200.965 338.976 200.335 339.146 199.623 339.146C198.548 339.146 197.677 338.773 197.008 338.026C196.344 337.279 196.012 336.29 196.012 335.06V334.964ZM197.374 335.125C197.374 336.004 197.577 336.71 197.982 337.242C198.392 337.774 198.939 338.041 199.623 338.041C200.311 338.041 200.858 337.772 201.263 337.235C201.668 336.693 201.871 335.936 201.871 334.964C201.871 334.095 201.664 333.392 201.249 332.855C200.838 332.313 200.292 332.042 199.608 332.042C198.939 332.042 198.399 332.308 197.989 332.84C197.579 333.373 197.374 334.134 197.374 335.125ZM204.596 334.972C204.596 333.756 204.884 332.779 205.46 332.042C206.036 331.3 206.791 330.929 207.723 330.929C208.651 330.929 209.386 331.246 209.928 331.881V327.75H211.283V339H210.038L209.972 338.15C209.43 338.814 208.675 339.146 207.708 339.146C206.791 339.146 206.041 338.771 205.46 338.019C204.884 337.267 204.596 336.285 204.596 335.074V334.972ZM205.951 335.125C205.951 336.024 206.136 336.727 206.507 337.235C206.878 337.743 207.391 337.997 208.045 337.997C208.905 337.997 209.532 337.611 209.928 336.839V333.199C209.522 332.452 208.9 332.079 208.06 332.079C207.396 332.079 206.878 332.335 206.507 332.848C206.136 333.36 205.951 334.12 205.951 335.125ZM218.285 338.216C217.757 338.836 216.983 339.146 215.963 339.146C215.118 339.146 214.474 338.902 214.029 338.414C213.59 337.921 213.368 337.193 213.363 336.231V331.075H214.718V336.195C214.718 337.396 215.206 337.997 216.183 337.997C217.218 337.997 217.906 337.611 218.248 336.839V331.075H219.603V339H218.314L218.285 338.216ZM223.141 339H221.786V327.75H223.141V339ZM228.604 339.146C227.53 339.146 226.656 338.795 225.982 338.092C225.309 337.384 224.972 336.439 224.972 335.257V335.008C224.972 334.222 225.121 333.521 225.418 332.906C225.721 332.286 226.141 331.803 226.678 331.456C227.22 331.104 227.806 330.929 228.436 330.929C229.466 330.929 230.267 331.268 230.838 331.947C231.41 332.625 231.695 333.597 231.695 334.862V335.426H226.327C226.346 336.207 226.573 336.839 227.008 337.323C227.447 337.801 228.004 338.041 228.678 338.041C229.156 338.041 229.562 337.943 229.894 337.748C230.226 337.552 230.516 337.293 230.765 336.971L231.593 337.616C230.929 338.636 229.933 339.146 228.604 339.146ZM228.436 332.042C227.889 332.042 227.43 332.242 227.059 332.643C226.688 333.038 226.458 333.595 226.371 334.312H230.34V334.21C230.301 333.521 230.116 332.989 229.784 332.613C229.452 332.232 229.002 332.042 228.436 332.042ZM243.092 336.217H238.624L237.621 339H236.17L240.243 328.336H241.473L245.553 339H244.11L243.092 336.217ZM239.049 335.06H242.674L240.858 330.072L239.049 335.06Z" fill="white"/>
<g filter="url(#filter2_d)">
<path d="M211.651 199L208.152 205.06L204.653 199H193L208.152 225.244L223.304 199H211.651Z" fill="#41B883"/>
<path d="M211.652 199L208.152 205.061L204.653 199H199.061L208.152 214.746L217.244 199H211.652Z" fill="#34495E"/>
</g>
<path d="M182.523 175.336L186.01 184.037L189.496 175.336H191.32V186H189.914V181.847L190.045 177.365L186.544 186H185.468L181.974 177.387L182.113 181.847V186H180.707V175.336H182.523ZM193.231 181.964C193.231 181.188 193.383 180.49 193.686 179.87C193.993 179.25 194.418 178.771 194.96 178.434C195.507 178.097 196.129 177.929 196.828 177.929C197.907 177.929 198.778 178.302 199.442 179.049C200.111 179.796 200.446 180.79 200.446 182.03V182.125C200.446 182.897 200.297 183.59 199.999 184.206C199.706 184.816 199.284 185.292 198.732 185.634C198.185 185.976 197.555 186.146 196.842 186.146C195.768 186.146 194.896 185.773 194.228 185.026C193.563 184.279 193.231 183.29 193.231 182.06V181.964ZM194.594 182.125C194.594 183.004 194.796 183.71 195.202 184.242C195.612 184.774 196.159 185.041 196.842 185.041C197.531 185.041 198.078 184.772 198.483 184.235C198.888 183.693 199.091 182.936 199.091 181.964C199.091 181.095 198.883 180.392 198.468 179.855C198.058 179.313 197.511 179.042 196.828 179.042C196.159 179.042 195.619 179.308 195.209 179.84C194.799 180.373 194.594 181.134 194.594 182.125ZM201.815 181.972C201.815 180.756 202.104 179.779 202.68 179.042C203.256 178.3 204.01 177.929 204.943 177.929C205.871 177.929 206.605 178.246 207.147 178.881V174.75H208.502V186H207.257L207.191 185.15C206.649 185.814 205.895 186.146 204.928 186.146C204.01 186.146 203.261 185.771 202.68 185.019C202.104 184.267 201.815 183.285 201.815 182.074V181.972ZM203.17 182.125C203.17 183.024 203.356 183.727 203.727 184.235C204.098 184.743 204.611 184.997 205.265 184.997C206.125 184.997 206.752 184.611 207.147 183.839V180.199C206.742 179.452 206.12 179.079 205.28 179.079C204.616 179.079 204.098 179.335 203.727 179.848C203.356 180.36 203.17 181.12 203.17 182.125ZM215.504 185.216C214.977 185.836 214.203 186.146 213.183 186.146C212.338 186.146 211.693 185.902 211.249 185.414C210.81 184.921 210.587 184.193 210.583 183.231V178.075H211.938V183.195C211.938 184.396 212.426 184.997 213.402 184.997C214.438 184.997 215.126 184.611 215.468 183.839V178.075H216.823V186H215.534L215.504 185.216ZM220.36 186H219.005V174.75H220.36V186ZM225.824 186.146C224.75 186.146 223.876 185.795 223.202 185.092C222.528 184.384 222.191 183.439 222.191 182.257V182.008C222.191 181.222 222.34 180.521 222.638 179.906C222.941 179.286 223.361 178.803 223.898 178.456C224.44 178.104 225.026 177.929 225.656 177.929C226.686 177.929 227.487 178.268 228.058 178.947C228.629 179.625 228.915 180.597 228.915 181.862V182.426H223.546C223.566 183.207 223.793 183.839 224.228 184.323C224.667 184.801 225.224 185.041 225.897 185.041C226.376 185.041 226.781 184.943 227.113 184.748C227.445 184.552 227.736 184.293 227.985 183.971L228.812 184.616C228.148 185.636 227.152 186.146 225.824 186.146ZM225.656 179.042C225.109 179.042 224.65 179.242 224.279 179.643C223.908 180.038 223.678 180.595 223.59 181.312H227.56V181.21C227.521 180.521 227.335 179.989 227.003 179.613C226.671 179.232 226.222 179.042 225.656 179.042ZM234.423 186V175.336H237.909C239.066 175.336 239.936 175.575 240.517 176.054C241.103 176.532 241.396 177.24 241.396 178.178C241.396 178.676 241.254 179.118 240.971 179.503C240.688 179.884 240.302 180.18 239.813 180.39C240.39 180.551 240.844 180.858 241.176 181.312C241.513 181.762 241.681 182.299 241.681 182.924C241.681 183.881 241.371 184.633 240.751 185.18C240.131 185.727 239.254 186 238.122 186H234.423ZM235.829 181.012V184.85H238.151C238.805 184.85 239.32 184.682 239.696 184.345C240.077 184.003 240.268 183.534 240.268 182.938C240.268 181.654 239.569 181.012 238.173 181.012H235.829ZM235.829 179.884H237.953C238.568 179.884 239.059 179.73 239.425 179.423C239.796 179.115 239.982 178.698 239.982 178.17C239.982 177.584 239.811 177.16 239.469 176.896C239.127 176.627 238.607 176.493 237.909 176.493H235.829V179.884Z" fill="white"/>
<g filter="url(#filter3_d)">
<path d="M419.651 186L416.152 192.06L412.653 186H401L416.152 212.244L431.304 186H419.651Z" fill="#41B883"/>
<path d="M419.652 186L416.152 192.061L412.653 186H407.061L416.152 201.746L425.244 186H419.652Z" fill="#34495E"/>
</g>
<path d="M390.311 162.336L393.797 171.037L397.284 162.336H399.107V173H397.701V168.847L397.833 164.365L394.332 173H393.255L389.762 164.387L389.901 168.847V173H388.495V162.336H390.311ZM401.019 168.964C401.019 168.188 401.17 167.49 401.473 166.87C401.781 166.25 402.206 165.771 402.748 165.434C403.294 165.097 403.917 164.929 404.615 164.929C405.694 164.929 406.566 165.302 407.23 166.049C407.899 166.796 408.233 167.79 408.233 169.03V169.125C408.233 169.897 408.084 170.59 407.787 171.206C407.494 171.816 407.071 172.292 406.52 172.634C405.973 172.976 405.343 173.146 404.63 173.146C403.556 173.146 402.684 172.773 402.015 172.026C401.351 171.279 401.019 170.29 401.019 169.06V168.964ZM402.381 169.125C402.381 170.004 402.584 170.71 402.989 171.242C403.399 171.774 403.946 172.041 404.63 172.041C405.318 172.041 405.865 171.772 406.271 171.235C406.676 170.693 406.878 169.936 406.878 168.964C406.878 168.095 406.671 167.392 406.256 166.855C405.846 166.313 405.299 166.042 404.615 166.042C403.946 166.042 403.407 166.308 402.997 166.84C402.586 167.373 402.381 168.134 402.381 169.125ZM409.603 168.972C409.603 167.756 409.891 166.779 410.467 166.042C411.043 165.3 411.798 164.929 412.73 164.929C413.658 164.929 414.393 165.246 414.935 165.881V161.75H416.29V173H415.045L414.979 172.15C414.437 172.814 413.683 173.146 412.716 173.146C411.798 173.146 411.048 172.771 410.467 172.019C409.891 171.267 409.603 170.285 409.603 169.074V168.972ZM410.958 169.125C410.958 170.024 411.144 170.727 411.515 171.235C411.886 171.743 412.398 171.997 413.053 171.997C413.912 171.997 414.54 171.611 414.935 170.839V167.199C414.53 166.452 413.907 166.079 413.067 166.079C412.403 166.079 411.886 166.335 411.515 166.848C411.144 167.36 410.958 168.12 410.958 169.125ZM423.292 172.216C422.765 172.836 421.991 173.146 420.97 173.146C420.125 173.146 419.481 172.902 419.037 172.414C418.597 171.921 418.375 171.193 418.37 170.231V165.075H419.725V170.195C419.725 171.396 420.213 171.997 421.19 171.997C422.225 171.997 422.914 171.611 423.255 170.839V165.075H424.61V173H423.321L423.292 172.216ZM428.148 173H426.793V161.75H428.148V173ZM433.612 173.146C432.538 173.146 431.664 172.795 430.99 172.092C430.316 171.384 429.979 170.439 429.979 169.257V169.008C429.979 168.222 430.128 167.521 430.426 166.906C430.729 166.286 431.148 165.803 431.686 165.456C432.228 165.104 432.813 164.929 433.443 164.929C434.474 164.929 435.274 165.268 435.846 165.947C436.417 166.625 436.703 167.597 436.703 168.862V169.426H431.334C431.354 170.207 431.581 170.839 432.015 171.323C432.455 171.801 433.011 172.041 433.685 172.041C434.164 172.041 434.569 171.943 434.901 171.748C435.233 171.552 435.523 171.293 435.772 170.971L436.6 171.616C435.936 172.636 434.94 173.146 433.612 173.146ZM433.443 166.042C432.896 166.042 432.438 166.242 432.066 166.643C431.695 167.038 431.466 167.595 431.378 168.312H435.348V168.21C435.309 167.521 435.123 166.989 434.791 166.613C434.459 166.232 434.01 166.042 433.443 166.042ZM450.055 169.616C449.923 170.744 449.505 171.616 448.802 172.231C448.104 172.841 447.174 173.146 446.012 173.146C444.752 173.146 443.741 172.695 442.979 171.792C442.223 170.888 441.844 169.68 441.844 168.166V167.141C441.844 166.149 442.02 165.278 442.372 164.526C442.728 163.774 443.231 163.198 443.88 162.797C444.53 162.392 445.282 162.189 446.136 162.189C447.269 162.189 448.177 162.507 448.861 163.142C449.544 163.771 449.942 164.646 450.055 165.764H448.641C448.519 164.914 448.253 164.299 447.843 163.918C447.438 163.537 446.869 163.347 446.136 163.347C445.238 163.347 444.532 163.679 444.02 164.343C443.512 165.007 443.258 165.952 443.258 167.177V168.21C443.258 169.367 443.5 170.288 443.983 170.971C444.466 171.655 445.143 171.997 446.012 171.997C446.793 171.997 447.391 171.821 447.806 171.469C448.226 171.113 448.504 170.495 448.641 169.616H450.055Z" fill="white"/>
<defs>
<filter id="filter0_d" x="355" y="306.999" width="127.503" height="115.246" filterUnits="userSpaceOnUse" color-interpolation-filters="sRGB">
<feFlood flood-opacity="0" result="BackgroundImageFix"/>
<feColorMatrix in="SourceAlpha" type="matrix" values="0 0 0 0 0 0 0 0 0 0 0 0 0 0 0 0 0 0 127 0"/>
<feOffset dx="1"/>
<feGaussianBlur stdDeviation="9"/>
<feColorMatrix type="matrix" values="0 0 0 0 0.36426 0 0 0 0 0.315104 0 0 0 0 0.504167 0 0 0 0.65 0"/>
<feBlend mode="normal" in2="BackgroundImageFix" result="effect1_dropShadow"/>
<feBlend mode="normal" in="SourceGraphic" in2="effect1_dropShadow" result="shape"/>
</filter>
<filter id="filter1_d" x="179" y="334" width="66.3043" height="62.2446" filterUnits="userSpaceOnUse" color-interpolation-filters="sRGB">
<feFlood flood-opacity="0" result="BackgroundImageFix"/>
<feColorMatrix in="SourceAlpha" type="matrix" values="0 0 0 0 0 0 0 0 0 0 0 0 0 0 0 0 0 0 127 0"/>
<feOffset dx="1"/>
<feGaussianBlur stdDeviation="9"/>
<feColorMatrix type="matrix" values="0 0 0 0 0.36426 0 0 0 0 0.315104 0 0 0 0 0.504167 0 0 0 0.65 0"/>
<feBlend mode="normal" in2="BackgroundImageFix" result="effect1_dropShadow"/>
<feBlend mode="normal" in="SourceGraphic" in2="effect1_dropShadow" result="shape"/>
</filter>
<filter id="filter2_d" x="176" y="181" width="66.3043" height="62.2446" filterUnits="userSpaceOnUse" color-interpolation-filters="sRGB">
<feFlood flood-opacity="0" result="BackgroundImageFix"/>
<feColorMatrix in="SourceAlpha" type="matrix" values="0 0 0 0 0 0 0 0 0 0 0 0 0 0 0 0 0 0 127 0"/>
<feOffset dx="1"/>
<feGaussianBlur stdDeviation="9"/>
<feColorMatrix type="matrix" values="0 0 0 0 0.36426 0 0 0 0 0.315104 0 0 0 0 0.504167 0 0 0 0.65 0"/>
<feBlend mode="normal" in2="BackgroundImageFix" result="effect1_dropShadow"/>
<feBlend mode="normal" in="SourceGraphic" in2="effect1_dropShadow" result="shape"/>
</filter>
<filter id="filter3_d" x="384" y="168" width="66.3043" height="62.2446" filterUnits="userSpaceOnUse" color-interpolation-filters="sRGB">
<feFlood flood-opacity="0" result="BackgroundImageFix"/>
<feColorMatrix in="SourceAlpha" type="matrix" values="0 0 0 0 0 0 0 0 0 0 0 0 0 0 0 0 0 0 127 0"/>
<feOffset dx="1"/>
<feGaussianBlur stdDeviation="9"/>
<feColorMatrix type="matrix" values="0 0 0 0 0.36426 0 0 0 0 0.315104 0 0 0 0 0.504167 0 0 0 0.65 0"/>
<feBlend mode="normal" in2="BackgroundImageFix" result="effect1_dropShadow"/>
<feBlend mode="normal" in="SourceGraphic" in2="effect1_dropShadow" result="shape"/>
</filter>
<linearGradient id="paint0_linear" x1="722.82" y1="71.7503" x2="722.82" y2="27.5703" gradientUnits="userSpaceOnUse">
<stop stop-color="#808080" stop-opacity="0.25"/>
<stop offset="0.54" stop-color="#808080" stop-opacity="0.12"/>
<stop offset="1" stop-color="#808080" stop-opacity="0.1"/>
</linearGradient>
<linearGradient id="paint1_linear" x1="233849" y1="439182" x2="233849" y2="75618.7" gradientUnits="userSpaceOnUse">
<stop stop-color="#808080" stop-opacity="0.25"/>
<stop offset="0.54" stop-color="#808080" stop-opacity="0.12"/>
<stop offset="1" stop-color="#808080" stop-opacity="0.1"/>
</linearGradient>
<clipPath id="clip0">
<rect width="1040.32" height="649.16" fill="white"/>
</clipPath>
</defs>
</svg>
