<svg width="20" height="20" viewBox="0 0 20 20" fill="none" xmlns="http://www.w3.org/2000/svg">
<path d="M16.1931 13.8721C16.1138 13.8721 16.0345 13.843 15.9726 13.7843L12.2617 10.3031C12.1321 10.1819 12.1257 9.97743 12.2475 9.8478C12.3694 9.71688 12.5726 9.71108 12.7035 9.83361L16.4143 13.3148C16.544 13.4361 16.5504 13.6405 16.4285 13.7702C16.3647 13.8379 16.2795 13.8721 16.1931 13.8721Z" fill="#4F4F4F"/>
<path d="M3.8063 13.873C3.72052 13.873 3.63475 13.8388 3.5709 13.7711C3.44902 13.6415 3.45546 13.437 3.58509 13.3158L7.2972 9.83454C7.42747 9.7133 7.63191 9.71846 7.75315 9.84873C7.87504 9.97836 7.86859 10.1828 7.73896 10.304L4.02686 13.7853C3.96494 13.844 3.88562 13.873 3.8063 13.873Z" fill="#4F4F4F"/>
<path d="M18.3877 17.1089H1.61228C0.723591 17.1089 0 16.3859 0 15.4966V4.50277C0 3.61343 0.723591 2.89049 1.61228 2.89049H18.3877C19.2764 2.89049 20 3.61343 20 4.50277V15.4966C20 16.3859 19.2764 17.1089 18.3877 17.1089ZM1.61228 3.5354C1.07894 3.5354 0.644912 3.96942 0.644912 4.50277V15.4966C0.644912 16.0299 1.07894 16.4639 1.61228 16.4639H18.3877C18.9211 16.4639 19.3551 16.0299 19.3551 15.4966V4.50277C19.3551 3.96942 18.9211 3.5354 18.3877 3.5354H1.61228Z" fill="#4F4F4F"/>
<path d="M9.99994 11.62C9.57108 11.62 9.14221 11.4775 8.81589 11.1931L0.53522 3.96942C0.401078 3.85269 0.38689 3.6489 0.503619 3.51411C0.621638 3.37997 0.824785 3.36772 0.958927 3.48316L9.23959 10.7062C9.65169 11.0654 10.3482 11.0654 10.7596 10.7062L19.03 3.49477C19.1635 3.37804 19.3666 3.39094 19.4853 3.52572C19.602 3.66051 19.5885 3.86366 19.4543 3.98103L11.184 11.1924C10.857 11.4775 10.4288 11.62 9.99994 11.62Z" fill="#4F4F4F"/>
</svg>
